AnekOdia-CondensedMedium.ufo
<glyph name="I" format="2">
  <advance width="378"/>
  <unicode hex="0049"/>
  <anchor x="189" y="0" name="bottom"/>
  <anchor x="318" y="0" name="ogonek"/>
  <anchor x="189" y="1278" name="top"/>
  <anchor x="20" y="1278" name="topleft"/>
  <outline>
    <contour>
      <point x="279" y="0" type="line"/>
      <point x="279" y="1278" type="line"/>
      <point x="99" y="1278" type="line"/>
      <point x="99" y="0" type="line"/>
    </contour>
  </outline>
</glyph>
<glyph name="Candrabindu.or" format="2">
  <unicode hex="0B01"/>
  <anchor x="-260" y="1436" name="_top2"/>
  <outline>
    <contour>
      <point x="-260" y="1639" type="curve" smooth="yes"/>
      <point x="-310" y="1639"/>
      <point x="-329" y="1675"/>
      <point x="-329" y="1745" type="curve" smooth="yes"/>
      <point x="-329" y="1759" type="line" smooth="yes"/>
      <point x="-329" y="1827"/>
      <point x="-310" y="1863"/>
      <point x="-260" y="1863" type="curve" smooth="yes"/>
      <point x="-209" y="1863"/>
      <point x="-191" y="1827"/>
      <point x="-191" y="1759" type="curve" smooth="yes"/>
      <point x="-191" y="1745" type="line" smooth="yes"/>
      <point x="-191" y="1675"/>
      <point x="-209" y="1639"/>
    </contour>
    <contour>
      <point x="-114" y="1754" type="line"/>
      <point x="13" y="1754" type="line"/>
      <point x="15" y="1728"/>
      <point x="15" y="1716"/>
      <point x="15" y="1706" type="curve" smooth="yes"/>
      <point x="15" y="1523"/>
      <point x="-82" y="1436"/>
      <point x="-260" y="1436" type="curve" smooth="yes"/>
      <point x="-438" y="1436"/>
      <point x="-535" y="1523"/>
      <point x="-535" y="1706" type="curve" smooth="yes"/>
      <point x="-535" y="1715"/>
      <point x="-535" y="1728"/>
      <point x="-533" y="1754" type="curve"/>
      <point x="-405" y="1754" type="line"/>
      <point x="-405" y="1722" type="line" smooth="yes"/>
      <point x="-405" y="1605"/>
      <point x="-358" y="1555"/>
      <point x="-260" y="1555" type="curve" smooth="yes"/>
      <point x="-162" y="1555"/>
      <point x="-114" y="1605"/>
      <point x="-114" y="1722" type="curve" smooth="yes"/>
    </contour>
  </outline>
</glyph>
<glyph name="Anusvara.or" format="2">
  <advance width="462"/>
  <unicode hex="0B02"/>
  <outline>
    <contour>
      <point x="232" y="776" type="curve" smooth="yes"/>
      <point x="368" y="776"/>
      <point x="438" y="855"/>
      <point x="438" y="1000" type="curve" smooth="yes"/>
      <point x="438" y="1141" type="line" smooth="yes"/>
      <point x="438" y="1286"/>
      <point x="368" y="1365"/>
      <point x="232" y="1365" type="curve" smooth="yes"/>
      <point x="94" y="1365"/>
      <point x="24" y="1286"/>
      <point x="24" y="1141" type="curve" smooth="yes"/>
      <point x="24" y="1000" type="line" smooth="yes"/>
      <point x="24" y="855"/>
      <point x="94" y="776"/>
    </contour>
    <contour>
      <point x="231" y="896" type="curve" smooth="yes"/>
      <point x="182" y="896"/>
      <point x="161" y="931"/>
      <point x="161" y="999" type="curve" smooth="yes"/>
      <point x="161" y="1141" type="line" smooth="yes"/>
      <point x="161" y="1209"/>
      <point x="182" y="1245"/>
      <point x="231" y="1245" type="curve" smooth="yes"/>
      <point x="280" y="1245"/>
      <point x="301" y="1209"/>
      <point x="301" y="1141" type="curve" smooth="yes"/>
      <point x="301" y="999" type="line" smooth="yes"/>
      <point x="301" y="931"/>
      <point x="280" y="896"/>
    </contour>
  </outline>
</glyph>
<glyph name="Visarga.or" format="2">
  <advance width="639"/>
  <unicode hex="0B03"/>
  <outline>
    <contour>
      <point x="319" y="-10" type="curve" smooth="yes"/>
      <point x="485" y="-10"/>
      <point x="573" y="87"/>
      <point x="573" y="278" type="curve" smooth="yes"/>
      <point x="573" y="351" type="line" smooth="yes"/>
      <point x="573" y="495"/>
      <point x="522" y="594"/>
      <point x="412" y="692" type="curve"/>
      <point x="332" y="758" type="line"/>
      <point x="257" y="834"/>
      <point x="219" y="899"/>
      <point x="219" y="1004" type="curve" smooth="yes"/>
      <point x="219" y="1088" type="line" smooth="yes"/>
      <point x="219" y="1186"/>
      <point x="247" y="1235"/>
      <point x="317" y="1235" type="curve" smooth="yes"/>
      <point x="386" y="1235"/>
      <point x="415" y="1184"/>
      <point x="415" y="1082" type="curve" smooth="yes"/>
      <point x="415" y="998" type="line" smooth="yes"/>
      <point x="415" y="904"/>
      <point x="379" y="838"/>
      <point x="305" y="757" type="curve"/>
      <point x="229" y="692" type="line"/>
      <point x="108" y="563"/>
      <point x="71" y="480"/>
      <point x="71" y="347" type="curve" smooth="yes"/>
      <point x="71" y="274" type="line" smooth="yes"/>
      <point x="71" y="87"/>
      <point x="156" y="-10"/>
    </contour>
    <contour>
      <point x="322" y="125" type="curve" smooth="yes"/>
      <point x="252" y="125"/>
      <point x="224" y="177"/>
      <point x="224" y="281" type="curve" smooth="yes"/>
      <point x="224" y="361" type="line" smooth="yes"/>
      <point x="224" y="456"/>
      <point x="256" y="517"/>
      <point x="326" y="591" type="curve"/>
      <point x="399" y="657" type="line"/>
      <point x="521" y="780"/>
      <point x="568" y="867"/>
      <point x="568" y="1015" type="curve" smooth="yes"/>
      <point x="568" y="1092" type="line" smooth="yes"/>
      <point x="568" y="1274"/>
      <point x="481" y="1369"/>
      <point x="320" y="1369" type="curve" smooth="yes"/>
      <point x="154" y="1369"/>
      <point x="66" y="1272"/>
      <point x="66" y="1085" type="curve" smooth="yes"/>
      <point x="66" y="1008" type="line" smooth="yes"/>
      <point x="66" y="857"/>
      <point x="117" y="754"/>
      <point x="241" y="650" type="curve"/>
      <point x="303" y="594" type="line"/>
      <point x="380" y="521"/>
      <point x="420" y="461"/>
      <point x="420" y="356" type="curve" smooth="yes"/>
      <point x="420" y="276" type="line" smooth="yes"/>
      <point x="420" y="176"/>
      <point x="390" y="125"/>
    </contour>
  </outline>
</glyph>
<glyph name="VowelA.or" format="2">
  <advance width="1099"/>
  <unicode hex="0B05"/>
  <anchor x="910" y="1436" name="top2"/>
  <outline>
    <contour>
      <point x="849" y="0" type="line"/>
      <point x="1005" y="0" type="line"/>
      <point x="1005" y="1366" type="line"/>
      <point x="849" y="1366" type="line"/>
      <point x="849" y="276" type="line"/>
      <point x="856" y="258" type="line"/>
    </contour>
    <contour>
      <point x="476" y="-15" type="curve" smooth="yes"/>
      <point x="706" y="-15"/>
      <point x="805" y="71"/>
      <point x="845" y="206" type="curve"/>
      <point x="916" y="206" type="line"/>
      <point x="854" y="381" type="line"/>
      <point x="822" y="231"/>
      <point x="697" y="136"/>
      <point x="513" y="136" type="curve" smooth="yes"/>
      <point x="311" y="136"/>
      <point x="233" y="215"/>
      <point x="233" y="343" type="curve" smooth="yes"/>
      <point x="233" y="366" type="line" smooth="yes"/>
      <point x="233" y="461"/>
      <point x="273" y="513"/>
      <point x="377" y="554" type="curve" smooth="yes"/>
      <point x="494" y="600" type="line" smooth="yes"/>
      <point x="670" y="669"/>
      <point x="734" y="752"/>
      <point x="734" y="921" type="curve" smooth="yes"/>
      <point x="734" y="1146" type="line" smooth="yes"/>
      <point x="734" y="1295"/>
      <point x="680" y="1370"/>
      <point x="560" y="1370" type="curve" smooth="yes"/>
      <point x="477" y="1370"/>
      <point x="425" y="1328"/>
      <point x="406" y="1252" type="curve"/>
      <point x="401" y="1252" type="line"/>
      <point x="384" y="1328"/>
      <point x="332" y="1370"/>
      <point x="250" y="1370" type="curve" smooth="yes"/>
      <point x="133" y="1370"/>
      <point x="74" y="1295"/>
      <point x="74" y="1141" type="curve" smooth="yes"/>
      <point x="74" y="994" type="line" smooth="yes"/>
      <point x="74" y="930"/>
      <point x="81" y="886"/>
      <point x="97" y="835" type="curve"/>
      <point x="236" y="826" type="line"/>
      <point x="222" y="878"/>
      <point x="215" y="917"/>
      <point x="215" y="974" type="curve" smooth="yes"/>
      <point x="215" y="1146" type="line" smooth="yes"/>
      <point x="215" y="1206"/>
      <point x="232" y="1238"/>
      <point x="275" y="1238" type="curve" smooth="yes"/>
      <point x="318" y="1238"/>
      <point x="335" y="1205"/>
      <point x="335" y="1146" type="curve" smooth="yes"/>
      <point x="336" y="874" type="line"/>
      <point x="472" y="874" type="line"/>
      <point x="473" y="1146" type="line" smooth="yes"/>
      <point x="473" y="1205"/>
      <point x="491" y="1238"/>
      <point x="533" y="1238" type="curve" smooth="yes"/>
      <point x="576" y="1238"/>
      <point x="593" y="1206"/>
      <point x="593" y="1146" type="curve" smooth="yes"/>
      <point x="593" y="934" type="line" smooth="yes"/>
      <point x="593" y="821"/>
      <point x="560" y="782"/>
      <point x="445" y="736" type="curve" smooth="yes"/>
      <point x="321" y="687" type="line" smooth="yes"/>
      <point x="137" y="614"/>
      <point x="65" y="526"/>
      <point x="65" y="359" type="curve" smooth="yes"/>
      <point x="65" y="332" type="line" smooth="yes"/>
      <point x="65" y="116"/>
      <point x="196" y="-15"/>
    </contour>
  </outline>
</glyph>
<glyph name="VowelI.or" format="2">
  <advance width="1242"/>
  <unicode hex="0B07"/>
  <anchor x="940" y="1436" name="top2"/>
  <outline>
    <contour>
      <point x="1281" y="-144" type="line"/>
      <point x="1281" y="20" type="line"/>
      <point x="1079" y="87" type="line"/>
      <point x="1081" y="60" type="line"/>
      <point x="1139" y="118"/>
      <point x="1150" y="196"/>
      <point x="1150" y="286" type="curve" smooth="yes"/>
      <point x="1150" y="851" type="line" smooth="yes"/>
      <point x="1150" y="1199"/>
      <point x="960" y="1393"/>
      <point x="605" y="1393" type="curve" smooth="yes"/>
      <point x="260" y="1393"/>
      <point x="65" y="1205"/>
      <point x="65" y="892" type="curve" smooth="yes"/>
      <point x="65" y="760" type="line" smooth="yes"/>
      <point x="65" y="605"/>
      <point x="111" y="521"/>
      <point x="201" y="476" type="curve"/>
      <point x="288" y="591" type="line"/>
      <point x="239" y="635"/>
      <point x="225" y="678"/>
      <point x="225" y="765" type="curve" smooth="yes"/>
      <point x="225" y="892" type="line" smooth="yes"/>
      <point x="225" y="1117"/>
      <point x="347" y="1245"/>
      <point x="605" y="1245" type="curve" smooth="yes"/>
      <point x="872" y="1245"/>
      <point x="992" y="1101"/>
      <point x="992" y="850" type="curve" smooth="yes"/>
      <point x="992" y="261" type="line" smooth="yes"/>
      <point x="992" y="166"/>
      <point x="975" y="79"/>
      <point x="930" y="14" type="curve"/>
    </contour>
    <contour>
      <point x="367" y="127" type="curve" smooth="yes"/>
      <point x="319" y="127"/>
      <point x="300" y="162"/>
      <point x="300" y="228" type="curve" smooth="yes"/>
      <point x="300" y="522" type="line" smooth="yes"/>
      <point x="300" y="587"/>
      <point x="319" y="622"/>
      <point x="367" y="622" type="curve" smooth="yes"/>
      <point x="415" y="622"/>
      <point x="434" y="586"/>
      <point x="434" y="521" type="curve" smooth="yes"/>
      <point x="434" y="228" type="line" smooth="yes"/>
      <point x="434" y="163"/>
      <point x="415" y="127"/>
    </contour>
    <contour>
      <point x="336" y="-9" type="curve" smooth="yes"/>
      <point x="429" y="-9"/>
      <point x="487" y="35"/>
      <point x="508" y="115" type="curve"/>
      <point x="513" y="115" type="line"/>
      <point x="533" y="35"/>
      <point x="591" y="-9"/>
      <point x="684" y="-9" type="curve" smooth="yes"/>
      <point x="815" y="-9"/>
      <point x="874" y="70"/>
      <point x="874" y="234" type="curve" smooth="yes"/>
      <point x="874" y="515" type="line" smooth="yes"/>
      <point x="874" y="679"/>
      <point x="815" y="758"/>
      <point x="685" y="758" type="curve" smooth="yes"/>
      <point x="593" y="758"/>
      <point x="536" y="714"/>
      <point x="515" y="634" type="curve"/>
      <point x="510" y="634" type="line"/>
      <point x="492" y="714"/>
      <point x="445" y="758"/>
      <point x="361" y="758" type="curve" smooth="yes"/>
      <point x="265" y="758"/>
      <point x="214" y="707"/>
      <point x="194" y="607" type="curve"/>
      <point x="165" y="586" type="line"/>
      <point x="150" y="552"/>
      <point x="146" y="518"/>
      <point x="146" y="471" type="curve" smooth="yes"/>
      <point x="146" y="234" type="line" smooth="yes"/>
      <point x="146" y="70"/>
      <point x="205" y="-9"/>
    </contour>
    <contour>
      <point x="653" y="127" type="curve" smooth="yes"/>
      <point x="605" y="127"/>
      <point x="586" y="163"/>
      <point x="586" y="228" type="curve" smooth="yes"/>
      <point x="586" y="521" type="line" smooth="yes"/>
      <point x="586" y="586"/>
      <point x="605" y="622"/>
      <point x="653" y="622" type="curve" smooth="yes"/>
      <point x="701" y="622"/>
      <point x="720" y="587"/>
      <point x="720" y="521" type="curve" smooth="yes"/>
      <point x="720" y="228" type="line" smooth="yes"/>
      <point x="720" y="162"/>
      <point x="701" y="127"/>
    </contour>
  </outline>
</glyph>
<glyph name="VowelIi.or" format="2">
  <advance width="1239"/>
  <unicode hex="0B08"/>
  <anchor x="957" y="1436" name="top2"/>
  <outline>
    <contour>
      <point x="1277" y="-144" type="line"/>
      <point x="1277" y="20" type="line"/>
      <point x="1075" y="87" type="line"/>
      <point x="1077" y="60" type="line"/>
      <point x="1135" y="118"/>
      <point x="1146" y="196"/>
      <point x="1146" y="286" type="curve" smooth="yes"/>
      <point x="1146" y="881" type="line" smooth="yes"/>
      <point x="1146" y="1216"/>
      <point x="981" y="1393"/>
      <point x="656" y="1393" type="curve" smooth="yes"/>
      <point x="367" y="1393"/>
      <point x="209" y="1243"/>
      <point x="209" y="1031" type="curve" smooth="yes"/>
      <point x="209" y="1000"/>
      <point x="214" y="970"/>
      <point x="221" y="947" type="curve"/>
      <point x="381" y="952" type="line"/>
      <point x="373" y="972"/>
      <point x="369" y="1002"/>
      <point x="369" y="1032" type="curve" smooth="yes"/>
      <point x="369" y="1162"/>
      <point x="457" y="1245"/>
      <point x="656" y="1245" type="curve" smooth="yes"/>
      <point x="888" y="1245"/>
      <point x="988" y="1118"/>
      <point x="988" y="881" type="curve" smooth="yes"/>
      <point x="988" y="261" type="line" smooth="yes"/>
      <point x="988" y="166"/>
      <point x="971" y="79"/>
      <point x="926" y="14" type="curve"/>
    </contour>
    <contour>
      <point x="363" y="127" type="curve" smooth="yes"/>
      <point x="315" y="127"/>
      <point x="296" y="162"/>
      <point x="296" y="228" type="curve" smooth="yes"/>
      <point x="296" y="522" type="line" smooth="yes"/>
      <point x="296" y="587"/>
      <point x="315" y="622"/>
      <point x="363" y="622" type="curve" smooth="yes"/>
      <point x="411" y="622"/>
      <point x="430" y="586"/>
      <point x="430" y="521" type="curve" smooth="yes"/>
      <point x="430" y="228" type="line" smooth="yes"/>
      <point x="430" y="163"/>
      <point x="411" y="127"/>
    </contour>
    <contour>
      <point x="332" y="-9" type="curve" smooth="yes"/>
      <point x="425" y="-9"/>
      <point x="483" y="35"/>
      <point x="504" y="115" type="curve"/>
      <point x="509" y="115" type="line"/>
      <point x="529" y="35"/>
      <point x="587" y="-9"/>
      <point x="680" y="-9" type="curve" smooth="yes"/>
      <point x="811" y="-9"/>
      <point x="870" y="70"/>
      <point x="870" y="234" type="curve" smooth="yes"/>
      <point x="870" y="515" type="line" smooth="yes"/>
      <point x="870" y="679"/>
      <point x="811" y="758"/>
      <point x="681" y="758" type="curve" smooth="yes"/>
      <point x="589" y="758"/>
      <point x="532" y="714"/>
      <point x="511" y="634" type="curve"/>
      <point x="506" y="634" type="line"/>
      <point x="488" y="714"/>
      <point x="441" y="758"/>
      <point x="357" y="758" type="curve" smooth="yes"/>
      <point x="261" y="758"/>
      <point x="210" y="707"/>
      <point x="190" y="607" type="curve"/>
      <point x="161" y="586" type="line"/>
      <point x="146" y="552"/>
      <point x="142" y="518"/>
      <point x="142" y="471" type="curve" smooth="yes"/>
      <point x="142" y="234" type="line" smooth="yes"/>
      <point x="142" y="70"/>
      <point x="201" y="-9"/>
    </contour>
    <contour>
      <point x="172" y="510" type="curve"/>
      <point x="264" y="617" type="line"/>
      <point x="218" y="651"/>
      <point x="201" y="684"/>
      <point x="201" y="746" type="curve" smooth="yes"/>
      <point x="201" y="762" type="line" smooth="yes"/>
      <point x="201" y="854"/>
      <point x="252" y="911"/>
      <point x="368" y="911" type="curve" smooth="yes"/>
      <point x="372" y="911" type="line" smooth="yes"/>
      <point x="428" y="911"/>
      <point x="483" y="900"/>
      <point x="527" y="887" type="curve"/>
      <point x="514" y="1019" type="line"/>
      <point x="469" y="1034"/>
      <point x="412" y="1044"/>
      <point x="345" y="1045" type="curve"/>
      <point x="294" y="1046" type="line"/>
      <point x="143" y="1038"/>
      <point x="43" y="937"/>
      <point x="43" y="764" type="curve" smooth="yes"/>
      <point x="43" y="740" type="line" smooth="yes"/>
      <point x="43" y="617"/>
      <point x="85" y="550"/>
    </contour>
    <contour>
      <point x="649" y="127" type="curve" smooth="yes"/>
      <point x="601" y="127"/>
      <point x="582" y="163"/>
      <point x="582" y="228" type="curve" smooth="yes"/>
      <point x="582" y="521" type="line" smooth="yes"/>
      <point x="582" y="586"/>
      <point x="601" y="622"/>
      <point x="649" y="622" type="curve" smooth="yes"/>
      <point x="697" y="622"/>
      <point x="716" y="587"/>
      <point x="716" y="521" type="curve" smooth="yes"/>
      <point x="716" y="228" type="line" smooth="yes"/>
      <point x="716" y="162"/>
      <point x="697" y="127"/>
    </contour>
  </outline>
</glyph>
<glyph name="VowelU.or" format="2">
  <advance width="1161"/>
  <unicode hex="0B09"/>
  <anchor x="879" y="1436" name="top2"/>
  <outline>
    <contour>
      <point x="1200" y="-144" type="line"/>
      <point x="1200" y="20" type="line"/>
      <point x="982" y="92" type="line"/>
      <point x="991" y="63" type="line"/>
      <point x="1051" y="114"/>
      <point x="1069" y="194"/>
      <point x="1069" y="296" type="curve" smooth="yes"/>
      <point x="1069" y="863" type="line" smooth="yes"/>
      <point x="1069" y="1204"/>
      <point x="895" y="1393"/>
      <point x="568" y="1393" type="curve" smooth="yes"/>
      <point x="247" y="1393"/>
      <point x="65" y="1208"/>
      <point x="65" y="899" type="curve" smooth="yes"/>
      <point x="65" y="793" type="line" smooth="yes"/>
      <point x="65" y="612"/>
      <point x="126" y="507"/>
      <point x="251" y="446" type="curve"/>
      <point x="316" y="588" type="line"/>
      <point x="246" y="631"/>
      <point x="225" y="691"/>
      <point x="225" y="790" type="curve" smooth="yes"/>
      <point x="225" y="900" type="line" smooth="yes"/>
      <point x="225" y="1121"/>
      <point x="336" y="1245"/>
      <point x="567" y="1245" type="curve" smooth="yes"/>
      <point x="803" y="1245"/>
      <point x="911" y="1107"/>
      <point x="911" y="863" type="curve" smooth="yes"/>
      <point x="911" y="261" type="line" smooth="yes"/>
      <point x="911" y="164"/>
      <point x="891" y="79"/>
      <point x="832" y="14" type="curve"/>
    </contour>
    <contour>
      <point x="498" y="-18" type="curve" smooth="yes"/>
      <point x="680" y="-18"/>
      <point x="775" y="85"/>
      <point x="775" y="278" type="curve" smooth="yes"/>
      <point x="775" y="349" type="line" smooth="yes"/>
      <point x="775" y="469"/>
      <point x="749" y="521"/>
      <point x="687" y="555" type="curve"/>
      <point x="687" y="590" type="line"/>
      <point x="583" y="500" type="line"/>
      <point x="611" y="480"/>
      <point x="621" y="446"/>
      <point x="621" y="384" type="curve" smooth="yes"/>
      <point x="621" y="279" type="line" smooth="yes"/>
      <point x="621" y="178"/>
      <point x="585" y="116"/>
      <point x="498" y="116" type="curve" smooth="yes"/>
      <point x="411" y="116"/>
      <point x="376" y="178"/>
      <point x="376" y="278" type="curve" smooth="yes"/>
      <point x="376" y="460" type="line" smooth="yes"/>
      <point x="376" y="540"/>
      <point x="393" y="586"/>
      <point x="439" y="615" type="curve"/>
      <point x="439" y="777" type="line"/>
      <point x="339" y="745"/>
      <point x="273" y="679"/>
      <point x="245" y="573" type="curve"/>
      <point x="227" y="535" type="line"/>
      <point x="220" y="502"/>
      <point x="220" y="479"/>
      <point x="220" y="445" type="curve" smooth="yes"/>
      <point x="220" y="279" type="line" smooth="yes"/>
      <point x="220" y="85"/>
      <point x="310" y="-18"/>
    </contour>
    <contour>
      <point x="482" y="358" type="line"/>
      <point x="618" y="493" type="line"/>
      <point x="662" y="536" type="line"/>
      <point x="776" y="646" type="line"/>
      <point x="776" y="825" type="line"/>
      <point x="482" y="544" type="line"/>
    </contour>
  </outline>
</glyph>
<glyph name="VowelUu.or" format="2">
  <advance width="1176"/>
  <unicode hex="0B0A"/>
  <anchor x="898" y="1436" name="top2"/>
  <outline>
    <contour>
      <point x="1167" y="-144" type="line"/>
      <point x="1167" y="20" type="line"/>
      <point x="930" y="107" type="line"/>
      <point x="926" y="68" type="line"/>
      <point x="954" y="78" type="line"/>
      <point x="1072" y="88"/>
      <point x="1117" y="155"/>
      <point x="1117" y="272" type="curve" smooth="yes"/>
      <point x="1117" y="392" type="line" smooth="yes"/>
      <point x="1117" y="510"/>
      <point x="1081" y="574"/>
      <point x="990" y="592" type="curve"/>
      <point x="987" y="568" type="line"/>
      <point x="1057" y="594"/>
      <point x="1079" y="656"/>
      <point x="1079" y="747" type="curve" smooth="yes"/>
      <point x="1079" y="899" type="line" smooth="yes"/>
      <point x="1079" y="1211"/>
      <point x="905" y="1393"/>
      <point x="574" y="1393" type="curve" smooth="yes"/>
      <point x="254" y="1393"/>
      <point x="65" y="1208"/>
      <point x="65" y="906" type="curve" smooth="yes"/>
      <point x="65" y="793" type="line" smooth="yes"/>
      <point x="65" y="616"/>
      <point x="121" y="509"/>
      <point x="255" y="447" type="curve"/>
      <point x="317" y="587" type="line"/>
      <point x="244" y="630"/>
      <point x="225" y="690"/>
      <point x="225" y="790" type="curve" smooth="yes"/>
      <point x="225" y="906" type="line" smooth="yes"/>
      <point x="225" y="1125"/>
      <point x="342" y="1245"/>
      <point x="574" y="1245" type="curve" smooth="yes"/>
      <point x="810" y="1245"/>
      <point x="920" y="1120"/>
      <point x="920" y="898" type="curve" smooth="yes"/>
      <point x="920" y="729" type="line" smooth="yes"/>
      <point x="920" y="659"/>
      <point x="903" y="625"/>
      <point x="857" y="620" type="curve" smooth="yes"/>
      <point x="837" y="618" type="line"/>
      <point x="837" y="493" type="line"/>
      <point x="870" y="492" type="line" smooth="yes"/>
      <point x="941" y="490"/>
      <point x="965" y="447"/>
      <point x="965" y="367" type="curve" smooth="yes"/>
      <point x="965" y="269" type="line" smooth="yes"/>
      <point x="965" y="185"/>
      <point x="938" y="140"/>
      <point x="856" y="137" type="curve" smooth="yes"/>
      <point x="830" y="136" type="line"/>
      <point x="830" y="21" type="line"/>
    </contour>
    <contour>
      <point x="473" y="-18" type="curve" smooth="yes"/>
      <point x="655" y="-18"/>
      <point x="750" y="85"/>
      <point x="750" y="278" type="curve" smooth="yes"/>
      <point x="750" y="349" type="line" smooth="yes"/>
      <point x="750" y="469"/>
      <point x="724" y="521"/>
      <point x="662" y="555" type="curve"/>
      <point x="662" y="590" type="line"/>
      <point x="558" y="500" type="line"/>
      <point x="586" y="480"/>
      <point x="596" y="446"/>
      <point x="596" y="384" type="curve" smooth="yes"/>
      <point x="596" y="279" type="line" smooth="yes"/>
      <point x="596" y="178"/>
      <point x="560" y="116"/>
      <point x="473" y="116" type="curve" smooth="yes"/>
      <point x="386" y="116"/>
      <point x="351" y="178"/>
      <point x="351" y="278" type="curve" smooth="yes"/>
      <point x="351" y="460" type="line" smooth="yes"/>
      <point x="351" y="540"/>
      <point x="368" y="586"/>
      <point x="414" y="615" type="curve"/>
      <point x="414" y="777" type="line"/>
      <point x="314" y="745"/>
      <point x="248" y="679"/>
      <point x="220" y="573" type="curve"/>
      <point x="202" y="535" type="line"/>
      <point x="195" y="502"/>
      <point x="195" y="479"/>
      <point x="195" y="445" type="curve" smooth="yes"/>
      <point x="195" y="279" type="line" smooth="yes"/>
      <point x="195" y="85"/>
      <point x="285" y="-18"/>
    </contour>
    <contour>
      <point x="457" y="358" type="line"/>
      <point x="593" y="493" type="line"/>
      <point x="637" y="536" type="line"/>
      <point x="751" y="646" type="line"/>
      <point x="751" y="825" type="line"/>
      <point x="457" y="544" type="line"/>
    </contour>
  </outline>
</glyph>
<glyph name="VowelVocalicR.or" format="2">
  <advance width="1140"/>
  <unicode hex="0B0B"/>
  <anchor x="555" y="1725" name="top1"/>
  <anchor x="874" y="1436" name="top2"/>
  <outline>
    <contour>
      <point x="1131" y="-144" type="line"/>
      <point x="1131" y="20" type="line"/>
      <point x="894" y="107" type="line"/>
      <point x="890" y="68" type="line"/>
      <point x="918" y="78" type="line"/>
      <point x="1036" y="88"/>
      <point x="1081" y="155"/>
      <point x="1081" y="272" type="curve" smooth="yes"/>
      <point x="1081" y="392" type="line" smooth="yes"/>
      <point x="1081" y="510"/>
      <point x="1045" y="574"/>
      <point x="954" y="592" type="curve"/>
      <point x="951" y="568" type="line"/>
      <point x="1020" y="594"/>
      <point x="1042" y="656"/>
      <point x="1042" y="747" type="curve" smooth="yes"/>
      <point x="1042" y="907" type="line" smooth="yes"/>
      <point x="1042" y="1213"/>
      <point x="869" y="1393"/>
      <point x="554" y="1393" type="curve" smooth="yes"/>
      <point x="246" y="1393"/>
      <point x="65" y="1211"/>
      <point x="65" y="914" type="curve" smooth="yes"/>
      <point x="65" y="793" type="line" smooth="yes"/>
      <point x="65" y="618"/>
      <point x="125" y="511"/>
      <point x="269" y="450" type="curve"/>
      <point x="331" y="590" type="line"/>
      <point x="247" y="632"/>
      <point x="225" y="691"/>
      <point x="225" y="790" type="curve" smooth="yes"/>
      <point x="225" y="914" type="line" smooth="yes"/>
      <point x="225" y="1128"/>
      <point x="335" y="1245"/>
      <point x="554" y="1245" type="curve" smooth="yes"/>
      <point x="775" y="1245"/>
      <point x="884" y="1123"/>
      <point x="884" y="908" type="curve" smooth="yes"/>
      <point x="884" y="729" type="line" smooth="yes"/>
      <point x="884" y="659"/>
      <point x="867" y="625"/>
      <point x="821" y="620" type="curve" smooth="yes"/>
      <point x="801" y="618" type="line"/>
      <point x="801" y="493" type="line"/>
      <point x="834" y="492" type="line" smooth="yes"/>
      <point x="905" y="490"/>
      <point x="929" y="447"/>
      <point x="929" y="367" type="curve" smooth="yes"/>
      <point x="929" y="269" type="line" smooth="yes"/>
      <point x="929" y="185"/>
      <point x="902" y="140"/>
      <point x="820" y="137" type="curve" smooth="yes"/>
      <point x="794" y="136" type="line"/>
      <point x="794" y="21" type="line"/>
    </contour>
    <contour>
      <point x="465" y="-17" type="curve" smooth="yes"/>
      <point x="633" y="-17"/>
      <point x="717" y="79"/>
      <point x="717" y="260" type="curve" smooth="yes"/>
      <point x="717" y="486" type="line" smooth="yes"/>
      <point x="717" y="665"/>
      <point x="636" y="763"/>
      <point x="472" y="763" type="curve" smooth="yes"/>
      <point x="312" y="763"/>
      <point x="249" y="674"/>
      <point x="226" y="538" type="curve"/>
      <point x="214" y="510" type="line"/>
      <point x="213" y="498"/>
      <point x="213" y="484"/>
      <point x="213" y="472" type="curve" smooth="yes"/>
      <point x="213" y="260" type="line" smooth="yes"/>
      <point x="213" y="79"/>
      <point x="295" y="-17"/>
    </contour>
    <contour>
      <point x="465" y="117" type="curve" smooth="yes"/>
      <point x="395" y="117"/>
      <point x="369" y="165"/>
      <point x="369" y="258" type="curve" smooth="yes"/>
      <point x="369" y="487" type="line" smooth="yes"/>
      <point x="369" y="580"/>
      <point x="395" y="629"/>
      <point x="465" y="629" type="curve" smooth="yes"/>
      <point x="532" y="629"/>
      <point x="561" y="580"/>
      <point x="561" y="487" type="curve" smooth="yes"/>
      <point x="561" y="258" type="line" smooth="yes"/>
      <point x="561" y="165"/>
      <point x="532" y="117"/>
    </contour>
  </outline>
</glyph>
<glyph name="VowelVocalicL.or" format="2">
  <advance width="915"/>
  <unicode hex="0B0C"/>
  <anchor x="701" y="1436" name="top2"/>
  <outline>
    <contour>
      <point x="475" y="-10" type="curve" smooth="yes"/>
      <point x="722" y="-10"/>
      <point x="866" y="117"/>
      <point x="866" y="340" type="curve" smooth="yes"/>
      <point x="866" y="452" type="line" smooth="yes"/>
      <point x="866" y="614"/>
      <point x="790" y="699"/>
      <point x="642" y="699" type="curve" smooth="yes"/>
      <point x="500" y="699"/>
      <point x="417" y="616"/>
      <point x="417" y="458" type="curve" smooth="yes"/>
      <point x="417" y="309" type="line" smooth="yes"/>
      <point x="417" y="201"/>
      <point x="458" y="139"/>
      <point x="534" y="103" type="curve"/>
      <point x="643" y="140" type="line"/>
      <point x="598" y="171"/>
      <point x="567" y="211"/>
      <point x="567" y="294" type="curve" smooth="yes"/>
      <point x="567" y="459" type="line" smooth="yes"/>
      <point x="567" y="534"/>
      <point x="588" y="572"/>
      <point x="642" y="572" type="curve" smooth="yes"/>
      <point x="695" y="572"/>
      <point x="716" y="534"/>
      <point x="716" y="459" type="curve" smooth="yes"/>
      <point x="716" y="349" type="line" smooth="yes"/>
      <point x="716" y="250"/>
      <point x="691" y="180"/>
      <point x="617" y="150" type="curve"/>
      <point x="576" y="138" type="line"/>
      <point x="540" y="132"/>
      <point x="515" y="130"/>
      <point x="478" y="130" type="curve" smooth="yes"/>
      <point x="306" y="130"/>
      <point x="230" y="219"/>
      <point x="230" y="378" type="curve" smooth="yes"/>
      <point x="230" y="455" type="line" smooth="yes"/>
      <point x="230" y="581"/>
      <point x="267" y="646"/>
      <point x="388" y="724" type="curve" smooth="yes"/>
      <point x="490" y="790" type="line" smooth="yes"/>
      <point x="647" y="892"/>
      <point x="722" y="953"/>
      <point x="722" y="1114" type="curve" smooth="yes"/>
      <point x="722" y="1139" type="line" smooth="yes"/>
      <point x="722" y="1300"/>
      <point x="628" y="1390"/>
      <point x="452" y="1390" type="curve" smooth="yes"/>
      <point x="282" y="1390"/>
      <point x="184" y="1298"/>
      <point x="184" y="1137" type="curve" smooth="yes"/>
      <point x="184" y="1117" type="line" smooth="yes"/>
      <point x="184" y="1065"/>
      <point x="192" y="1033"/>
      <point x="208" y="990" type="curve"/>
      <point x="357" y="990" type="line"/>
      <point x="343" y="1032"/>
      <point x="336" y="1062"/>
      <point x="336" y="1112" type="curve" smooth="yes"/>
      <point x="336" y="1128" type="line" smooth="yes"/>
      <point x="336" y="1211"/>
      <point x="373" y="1258"/>
      <point x="453" y="1258" type="curve" smooth="yes"/>
      <point x="528" y="1258"/>
      <point x="566" y="1215"/>
      <point x="566" y="1131" type="curve" smooth="yes"/>
      <point x="566" y="1106" type="line" smooth="yes"/>
      <point x="566" y="1013"/>
      <point x="506" y="965"/>
      <point x="401" y="898" type="curve" smooth="yes"/>
      <point x="309" y="839" type="line" smooth="yes"/>
      <point x="147" y="735"/>
      <point x="65" y="648"/>
      <point x="65" y="455" type="curve" smooth="yes"/>
      <point x="65" y="367" type="line" smooth="yes"/>
      <point x="65" y="128"/>
      <point x="208" y="-10"/>
    </contour>
  </outline>
</glyph>
<glyph name="VowelE.or" format="2">
  <advance width="893"/>
  <unicode hex="0B0F"/>
  <anchor x="669" y="1436" name="top2"/>
  <outline>
    <contour>
      <point x="550" y="0" type="line"/>
      <point x="799" y="0" type="line"/>
      <point x="799" y="1365" type="line"/>
      <point x="555" y="1365" type="line"/>
      <point x="273" y="843" type="line"/>
      <point x="446" y="843" type="line"/>
      <point x="633" y="1225" type="line"/>
      <point x="648" y="1225" type="line"/>
      <point x="647" y="1105"/>
      <point x="643" y="998"/>
      <point x="643" y="876" type="curve" smooth="yes"/>
      <point x="643" y="147" type="line"/>
      <point x="629" y="147" type="line"/>
      <point x="18" y="1051" type="line"/>
      <point x="18" y="779" type="line"/>
    </contour>
  </outline>
</glyph>
<glyph name="VowelAi.or" format="2">
  <advance width="1237"/>
  <unicode hex="0B10"/>
  <anchor x="1202" y="1521" name="top2"/>
  <outline>
    <contour>
      <point x="987" y="0" type="line"/>
      <point x="1143" y="0" type="line"/>
      <point x="1143" y="1355" type="line" smooth="yes"/>
      <point x="1143" y="1574"/>
      <point x="1050" y="1663"/>
      <point x="826" y="1666" type="curve" smooth="yes"/>
      <point x="619" y="1669" type="line" smooth="yes"/>
      <point x="524" y="1670"/>
      <point x="479" y="1700"/>
      <point x="476" y="1772" type="curve" smooth="yes"/>
      <point x="475" y="1800" type="line"/>
      <point x="321" y="1800" type="line"/>
      <point x="321" y="1768" type="line" smooth="yes"/>
      <point x="321" y="1604"/>
      <point x="414" y="1533"/>
      <point x="613" y="1531" type="curve" smooth="yes"/>
      <point x="821" y="1529" type="line" smooth="yes"/>
      <point x="947" y="1528"/>
      <point x="987" y="1474"/>
      <point x="987" y="1353" type="curve" smooth="yes"/>
    </contour>
    <contour>
      <point x="764" y="673" type="line"/>
      <point x="1031" y="673" type="line"/>
      <point x="1031" y="818" type="line"/>
      <point x="764" y="818" type="line"/>
    </contour>
    <component base="VowelE.or"/>
  </outline>
</glyph>
<glyph name="VowelO.or" format="2">
  <advance width="975"/>
  <unicode hex="0B13"/>
  <anchor x="840" y="1436" name="top2"/>
  <outline>
    <contour>
      <point x="517" y="-16" type="curve" smooth="yes"/>
      <point x="779" y="-16"/>
      <point x="916" y="132"/>
      <point x="916" y="367" type="curve" smooth="yes"/>
      <point x="916" y="394" type="line" smooth="yes"/>
      <point x="916" y="534"/>
      <point x="860" y="615"/>
      <point x="774" y="668" type="curve"/>
      <point x="662" y="582" type="line"/>
      <point x="723" y="543"/>
      <point x="752" y="486"/>
      <point x="752" y="395" type="curve" smooth="yes"/>
      <point x="752" y="372" type="line" smooth="yes"/>
      <point x="752" y="228"/>
      <point x="684" y="135"/>
      <point x="518" y="135" type="curve" smooth="yes"/>
      <point x="330" y="135"/>
      <point x="244" y="260"/>
      <point x="244" y="481" type="curve" smooth="yes"/>
      <point x="244" y="895" type="line" smooth="yes"/>
      <point x="244" y="1089"/>
      <point x="252" y="1196"/>
      <point x="309" y="1366" type="curve"/>
      <point x="150" y="1366" type="line"/>
      <point x="95" y="1213"/>
      <point x="84" y="1083"/>
      <point x="84" y="891" type="curve" smooth="yes"/>
      <point x="84" y="482" type="line" smooth="yes"/>
      <point x="84" y="157"/>
      <point x="228" y="-16"/>
    </contour>
    <contour>
      <point x="506" y="536" type="line"/>
      <point x="549" y="536" type="line" smooth="yes"/>
      <point x="608" y="536"/>
      <point x="671" y="546"/>
      <point x="714" y="570" type="curve"/>
      <point x="771" y="607" type="line"/>
      <point x="860" y="662"/>
      <point x="899" y="738"/>
      <point x="899" y="894" type="curve" smooth="yes"/>
      <point x="899" y="1113" type="line" smooth="yes"/>
      <point x="899" y="1293"/>
      <point x="815" y="1387"/>
      <point x="651" y="1387" type="curve" smooth="yes"/>
      <point x="487" y="1387"/>
      <point x="406" y="1290"/>
      <point x="406" y="1119" type="curve" smooth="yes"/>
      <point x="406" y="1030" type="line" smooth="yes"/>
      <point x="406" y="969"/>
      <point x="412" y="927"/>
      <point x="423" y="878" type="curve"/>
      <point x="574" y="868" type="line"/>
      <point x="565" y="921"/>
      <point x="560" y="965"/>
      <point x="560" y="1020" type="curve" smooth="yes"/>
      <point x="560" y="1120" type="line" smooth="yes"/>
      <point x="560" y="1207"/>
      <point x="587" y="1253"/>
      <point x="651" y="1253" type="curve" smooth="yes"/>
      <point x="714" y="1253"/>
      <point x="741" y="1207"/>
      <point x="741" y="1120" type="curve" smooth="yes"/>
      <point x="741" y="890" type="line" smooth="yes"/>
      <point x="741" y="746"/>
      <point x="685" y="678"/>
      <point x="550" y="675" type="curve" smooth="yes"/>
      <point x="506" y="674" type="line"/>
    </contour>
  </outline>
</glyph>
<glyph name="VowelAu.or" format="2">
  <advance width="1319"/>
  <unicode hex="0B14"/>
  <anchor x="1284" y="1521" name="top2"/>
  <outline>
    <contour>
      <point x="1069" y="0" type="line"/>
      <point x="1225" y="0" type="line"/>
      <point x="1225" y="1355" type="line" smooth="yes"/>
      <point x="1225" y="1574"/>
      <point x="1132" y="1663"/>
      <point x="908" y="1666" type="curve" smooth="yes"/>
      <point x="701" y="1669" type="line" smooth="yes"/>
      <point x="606" y="1670"/>
      <point x="561" y="1700"/>
      <point x="558" y="1772" type="curve" smooth="yes"/>
      <point x="557" y="1800" type="line"/>
      <point x="403" y="1800" type="line"/>
      <point x="403" y="1768" type="line" smooth="yes"/>
      <point x="403" y="1604"/>
      <point x="496" y="1533"/>
      <point x="695" y="1531" type="curve" smooth="yes"/>
      <point x="903" y="1529" type="line" smooth="yes"/>
      <point x="1029" y="1528"/>
      <point x="1069" y="1474"/>
      <point x="1069" y="1353" type="curve" smooth="yes"/>
    </contour>
    <contour>
      <point x="867" y="341" type="line"/>
      <point x="1114" y="341" type="line"/>
      <point x="1114" y="486" type="line"/>
      <point x="867" y="486" type="line"/>
    </contour>
    <component base="VowelO.or"/>
  </outline>
</glyph>
<glyph name="Kha.or" format="2">
  <advance width="1102"/>
  <unicode hex="0B16"/>
  <anchor x="1008" y="40" name="bottom"/>
  <anchor x="582" y="40" name="nukta"/>
  <anchor x="554" y="1725" name="top1"/>
  <anchor x="913" y="1436" name="top2"/>
  <outline>
    <contour>
      <point x="242" y="456" type="curve"/>
      <point x="305" y="596" type="line"/>
      <point x="244" y="640"/>
      <point x="225" y="693"/>
      <point x="225" y="794" type="curve" smooth="yes"/>
      <point x="225" y="929" type="line" smooth="yes"/>
      <point x="225" y="1127"/>
      <point x="310" y="1238"/>
      <point x="484" y="1238" type="curve" smooth="yes"/>
      <point x="539" y="1238"/>
      <point x="582" y="1230"/>
      <point x="613" y="1221" type="curve"/>
      <point x="518" y="1326" type="line"/>
      <point x="518" y="1272"/>
      <point x="518" y="1220"/>
      <point x="518" y="1162" type="curve" smooth="yes"/>
      <point x="518" y="1034" type="line" smooth="yes"/>
      <point x="518" y="872"/>
      <point x="575" y="785"/>
      <point x="704" y="785" type="curve" smooth="yes"/>
      <point x="790" y="785"/>
      <point x="829" y="821"/>
      <point x="847" y="883" type="curve"/>
      <point x="894" y="883" type="line"/>
      <point x="854" y="1040" type="line"/>
      <point x="852" y="959"/>
      <point x="821" y="919"/>
      <point x="764" y="919" type="curve" smooth="yes"/>
      <point x="699" y="919"/>
      <point x="674" y="964"/>
      <point x="674" y="1050" type="curve" smooth="yes"/>
      <point x="674" y="1187" type="line" smooth="yes"/>
      <point x="674" y="1248"/>
      <point x="674" y="1298"/>
      <point x="674" y="1356" type="curve"/>
      <point x="624" y="1372"/>
      <point x="567" y="1386"/>
      <point x="480" y="1386" type="curve" smooth="yes"/>
      <point x="215" y="1386"/>
      <point x="65" y="1213"/>
      <point x="65" y="932" type="curve" smooth="yes"/>
      <point x="65" y="793" type="line" smooth="yes"/>
      <point x="65" y="623"/>
      <point x="119" y="519"/>
    </contour>
    <contour>
      <point x="469" y="-17" type="curve" smooth="yes"/>
      <point x="637" y="-17"/>
      <point x="721" y="79"/>
      <point x="721" y="260" type="curve" smooth="yes"/>
      <point x="721" y="482" type="line" smooth="yes"/>
      <point x="721" y="661"/>
      <point x="640" y="759"/>
      <point x="476" y="759" type="curve" smooth="yes"/>
      <point x="316" y="759"/>
      <point x="253" y="670"/>
      <point x="230" y="534" type="curve"/>
      <point x="218" y="506" type="line"/>
      <point x="217" y="494"/>
      <point x="217" y="480"/>
      <point x="217" y="468" type="curve" smooth="yes"/>
      <point x="217" y="260" type="line" smooth="yes"/>
      <point x="217" y="79"/>
      <point x="299" y="-17"/>
    </contour>
    <contour>
      <point x="469" y="117" type="curve" smooth="yes"/>
      <point x="399" y="117"/>
      <point x="373" y="165"/>
      <point x="373" y="258" type="curve" smooth="yes"/>
      <point x="373" y="483" type="line" smooth="yes"/>
      <point x="373" y="576"/>
      <point x="399" y="625"/>
      <point x="469" y="625" type="curve" smooth="yes"/>
      <point x="536" y="625"/>
      <point x="565" y="576"/>
      <point x="565" y="483" type="curve" smooth="yes"/>
      <point x="565" y="258" type="line" smooth="yes"/>
      <point x="565" y="165"/>
      <point x="536" y="117"/>
    </contour>
    <contour>
      <point x="852" y="0" type="line"/>
      <point x="1008" y="0" type="line"/>
      <point x="1008" y="1366" type="line"/>
      <point x="854" y="1366" type="line"/>
      <point x="854" y="975" type="line"/>
      <point x="854" y="943" type="line"/>
      <point x="852" y="733" type="line"/>
    </contour>
  </outline>
</glyph>
<glyph name="Ga.or" format="2">
  <advance width="1102"/>
  <unicode hex="0B17"/>
  <anchor x="1008" y="40" name="bottom"/>
  <anchor x="570" y="40" name="nukta"/>
  <anchor x="550" y="1725" name="top1"/>
  <anchor x="914" y="1436" name="top2"/>
  <outline>
    <contour>
      <point x="242" y="456" type="curve"/>
      <point x="305" y="596" type="line"/>
      <point x="244" y="640"/>
      <point x="225" y="693"/>
      <point x="225" y="794" type="curve" smooth="yes"/>
      <point x="225" y="926" type="line" smooth="yes"/>
      <point x="225" y="1130"/>
      <point x="324" y="1243"/>
      <point x="528" y="1243" type="curve" smooth="yes"/>
      <point x="737" y="1243"/>
      <point x="842" y="1120"/>
      <point x="852" y="919" type="curve"/>
      <point x="852" y="1156" type="line"/>
      <point x="823" y="1296"/>
      <point x="727" y="1393"/>
      <point x="498" y="1393" type="curve" smooth="yes"/>
      <point x="220" y="1393"/>
      <point x="65" y="1217"/>
      <point x="65" y="929" type="curve" smooth="yes"/>
      <point x="65" y="793" type="line" smooth="yes"/>
      <point x="65" y="623"/>
      <point x="119" y="519"/>
    </contour>
    <contour>
      <point x="469" y="-17" type="curve" smooth="yes"/>
      <point x="637" y="-17"/>
      <point x="721" y="79"/>
      <point x="721" y="260" type="curve" smooth="yes"/>
      <point x="721" y="486" type="line" smooth="yes"/>
      <point x="721" y="665"/>
      <point x="640" y="763"/>
      <point x="476" y="763" type="curve" smooth="yes"/>
      <point x="316" y="763"/>
      <point x="253" y="674"/>
      <point x="230" y="538" type="curve"/>
      <point x="218" y="510" type="line"/>
      <point x="217" y="498"/>
      <point x="217" y="484"/>
      <point x="217" y="472" type="curve" smooth="yes"/>
      <point x="217" y="260" type="line" smooth="yes"/>
      <point x="217" y="79"/>
      <point x="299" y="-17"/>
    </contour>
    <contour>
      <point x="469" y="117" type="curve" smooth="yes"/>
      <point x="399" y="117"/>
      <point x="373" y="165"/>
      <point x="373" y="258" type="curve" smooth="yes"/>
      <point x="373" y="487" type="line" smooth="yes"/>
      <point x="373" y="580"/>
      <point x="399" y="629"/>
      <point x="469" y="629" type="curve" smooth="yes"/>
      <point x="536" y="629"/>
      <point x="565" y="580"/>
      <point x="565" y="487" type="curve" smooth="yes"/>
      <point x="565" y="258" type="line" smooth="yes"/>
      <point x="565" y="165"/>
      <point x="536" y="117"/>
    </contour>
    <contour>
      <point x="852" y="0" type="line"/>
      <point x="1008" y="0" type="line"/>
      <point x="1008" y="1366" type="line"/>
      <point x="852" y="1366" type="line"/>
      <point x="858" y="1172" type="line"/>
      <point x="827" y="1172" type="line"/>
      <point x="852" y="1080" type="line"/>
    </contour>
  </outline>
</glyph>
<glyph name="Gha.or" format="2">
  <advance width="1084"/>
  <unicode hex="0B18"/>
  <anchor x="990" y="40" name="bottom"/>
  <anchor x="566" y="40" name="nukta"/>
  <anchor x="1283" y="28" name="rasmall"/>
  <anchor x="542" y="1725" name="top1"/>
  <anchor x="896" y="1436" name="top2"/>
  <outline>
    <contour>
      <point x="257" y="459" type="curve"/>
      <point x="322" y="599" type="line"/>
      <point x="248" y="643"/>
      <point x="227" y="695"/>
      <point x="227" y="793" type="curve" smooth="yes"/>
      <point x="227" y="931" type="line" smooth="yes"/>
      <point x="227" y="1132"/>
      <point x="323" y="1243"/>
      <point x="519" y="1243" type="curve" smooth="yes"/>
      <point x="724" y="1243"/>
      <point x="826" y="1120"/>
      <point x="837" y="917" type="curve"/>
      <point x="834" y="1156" type="line"/>
      <point x="806" y="1296"/>
      <point x="712" y="1393"/>
      <point x="489" y="1393" type="curve" smooth="yes"/>
      <point x="217" y="1393"/>
      <point x="65" y="1219"/>
      <point x="65" y="934" type="curve" smooth="yes"/>
      <point x="65" y="794" type="line" smooth="yes"/>
      <point x="65" y="625"/>
      <point x="120" y="522"/>
    </contour>
    <contour>
      <point x="401" y="-8" type="curve" smooth="yes"/>
      <point x="500" y="-8"/>
      <point x="555" y="33"/>
      <point x="576" y="112" type="curve"/>
      <point x="581" y="112" type="line"/>
      <point x="597" y="33"/>
      <point x="638" y="-8"/>
      <point x="709" y="-8" type="curve" smooth="yes"/>
      <point x="791" y="-8"/>
      <point x="820" y="38"/>
      <point x="834" y="113" type="curve"/>
      <point x="899" y="113" type="line"/>
      <point x="838" y="245" type="line"/>
      <point x="832" y="181"/>
      <point x="807" y="131"/>
      <point x="751" y="131" type="curve" smooth="yes"/>
      <point x="695" y="131"/>
      <point x="670" y="174"/>
      <point x="670" y="253" type="curve" smooth="yes"/>
      <point x="669" y="514" type="line"/>
      <point x="515" y="514" type="line"/>
      <point x="514" y="257" type="line" smooth="yes"/>
      <point x="514" y="176"/>
      <point x="487" y="131"/>
      <point x="428" y="131" type="curve" smooth="yes"/>
      <point x="365" y="131"/>
      <point x="342" y="177"/>
      <point x="342" y="257" type="curve" smooth="yes"/>
      <point x="342" y="464" type="line" smooth="yes"/>
      <point x="342" y="551"/>
      <point x="365" y="594"/>
      <point x="419" y="623" type="curve"/>
      <point x="419" y="790" type="line"/>
      <point x="310" y="758"/>
      <point x="244" y="692"/>
      <point x="211" y="583" type="curve"/>
      <point x="193" y="546" type="line"/>
      <point x="185" y="515"/>
      <point x="184" y="487"/>
      <point x="184" y="458" type="curve" smooth="yes"/>
      <point x="184" y="259" type="line" smooth="yes"/>
      <point x="184" y="83"/>
      <point x="254" y="-8"/>
    </contour>
    <contour>
      <point x="838" y="0" type="line"/>
      <point x="990" y="0" type="line"/>
      <point x="990" y="1366" type="line"/>
      <point x="834" y="1366" type="line"/>
      <point x="840" y="1172" type="line"/>
      <point x="811" y="1172" type="line"/>
      <point x="836" y="946" type="line"/>
      <point x="836" y="184" type="line"/>
      <point x="843" y="156" type="line"/>
    </contour>
  </outline>
</glyph>
<glyph name="Nga.or" format="2">
  <advance width="1247"/>
  <unicode hex="0B19"/>
  <anchor x="626" y="40" name="bottom"/>
  <anchor x="555" y="40" name="nukta"/>
  <anchor x="546" y="1725" name="top1"/>
  <anchor x="866" y="1436" name="top2"/>
  <outline>
    <contour>
      <point x="283" y="431" type="curve"/>
      <point x="335" y="578" type="line"/>
      <point x="248" y="622"/>
      <point x="225" y="685"/>
      <point x="225" y="790" type="curve" smooth="yes"/>
      <point x="225" y="913" type="line" smooth="yes"/>
      <point x="225" y="1125"/>
      <point x="333" y="1245"/>
      <point x="545" y="1245" type="curve" smooth="yes"/>
      <point x="685" y="1245"/>
      <point x="773" y="1200"/>
      <point x="831" y="1133" type="curve"/>
      <point x="905" y="1248" type="line"/>
      <point x="825" y="1339"/>
      <point x="706" y="1393"/>
      <point x="545" y="1393" type="curve" smooth="yes"/>
      <point x="244" y="1393"/>
      <point x="65" y="1210"/>
      <point x="65" y="912" type="curve" smooth="yes"/>
      <point x="65" y="793" type="line" smooth="yes"/>
      <point x="65" y="605"/>
      <point x="129" y="495"/>
    </contour>
    <contour>
      <point x="526" y="-18" type="curve" smooth="yes"/>
      <point x="708" y="-18"/>
      <point x="803" y="85"/>
      <point x="803" y="278" type="curve" smooth="yes"/>
      <point x="803" y="349" type="line" smooth="yes"/>
      <point x="803" y="469"/>
      <point x="777" y="521"/>
      <point x="715" y="555" type="curve"/>
      <point x="715" y="590" type="line"/>
      <point x="611" y="500" type="line"/>
      <point x="639" y="480"/>
      <point x="649" y="446"/>
      <point x="649" y="384" type="curve" smooth="yes"/>
      <point x="649" y="279" type="line" smooth="yes"/>
      <point x="649" y="178"/>
      <point x="613" y="116"/>
      <point x="526" y="116" type="curve" smooth="yes"/>
      <point x="439" y="116"/>
      <point x="404" y="178"/>
      <point x="404" y="278" type="curve" smooth="yes"/>
      <point x="404" y="460" type="line" smooth="yes"/>
      <point x="404" y="540"/>
      <point x="421" y="586"/>
      <point x="467" y="615" type="curve"/>
      <point x="467" y="777" type="line"/>
      <point x="367" y="745"/>
      <point x="301" y="679"/>
      <point x="273" y="573" type="curve"/>
      <point x="255" y="535" type="line"/>
      <point x="248" y="502"/>
      <point x="248" y="479"/>
      <point x="248" y="445" type="curve" smooth="yes"/>
      <point x="248" y="279" type="line" smooth="yes"/>
      <point x="248" y="85"/>
      <point x="338" y="-18"/>
    </contour>
    <contour>
      <point x="510" y="358" type="line"/>
      <point x="646" y="493" type="line"/>
      <point x="690" y="536" type="line"/>
      <point x="804" y="646" type="line"/>
      <point x="804" y="825" type="line"/>
      <point x="510" y="544" type="line"/>
    </contour>
    <contour>
      <point x="1012" y="797" type="curve" smooth="yes"/>
      <point x="1150" y="797"/>
      <point x="1219" y="878"/>
      <point x="1219" y="1016" type="curve" smooth="yes"/>
      <point x="1219" y="1127" type="line" smooth="yes"/>
      <point x="1219" y="1266"/>
      <point x="1150" y="1346"/>
      <point x="1018" y="1346" type="curve" smooth="yes"/>
      <point x="925" y="1346"/>
      <point x="875" y="1312"/>
      <point x="844" y="1249" type="curve"/>
      <point x="818" y="1213" type="line"/>
      <point x="810" y="1185"/>
      <point x="805" y="1156"/>
      <point x="805" y="1117" type="curve" smooth="yes"/>
      <point x="805" y="1016" type="line" smooth="yes"/>
      <point x="805" y="879"/>
      <point x="876" y="797"/>
    </contour>
    <contour>
      <point x="1012" y="917" type="curve" smooth="yes"/>
      <point x="964" y="917"/>
      <point x="942" y="949"/>
      <point x="942" y="1016" type="curve" smooth="yes"/>
      <point x="942" y="1127" type="line" smooth="yes"/>
      <point x="942" y="1194"/>
      <point x="964" y="1226"/>
      <point x="1012" y="1226" type="curve" smooth="yes"/>
      <point x="1062" y="1226"/>
      <point x="1082" y="1194"/>
      <point x="1082" y="1127" type="curve" smooth="yes"/>
      <point x="1082" y="1016" type="line" smooth="yes"/>
      <point x="1082" y="949"/>
      <point x="1062" y="917"/>
    </contour>
  </outline>
</glyph>
<glyph name="Ca.or" format="2">
  <advance width="1090"/>
  <unicode hex="0B1A"/>
  <anchor x="615" y="40" name="bottom"/>
  <anchor x="525" y="40" name="nukta"/>
  <anchor x="535" y="1725" name="top1"/>
  <anchor x="842" y="1436" name="top2"/>
  <outline>
    <contour>
      <point x="283" y="431" type="curve"/>
      <point x="335" y="578" type="line"/>
      <point x="248" y="622"/>
      <point x="225" y="685"/>
      <point x="225" y="790" type="curve" smooth="yes"/>
      <point x="225" y="920" type="line" smooth="yes"/>
      <point x="225" y="1130"/>
      <point x="333" y="1245"/>
      <point x="546" y="1245" type="curve" smooth="yes"/>
      <point x="763" y="1245"/>
      <point x="864" y="1124"/>
      <point x="864" y="912" type="curve" smooth="yes"/>
      <point x="864" y="736" type="line" smooth="yes"/>
      <point x="864" y="650"/>
      <point x="853" y="575"/>
      <point x="825" y="497" type="curve"/>
      <point x="979" y="516" type="line"/>
      <point x="1006" y="579"/>
      <point x="1023" y="661"/>
      <point x="1023" y="745" type="curve" smooth="yes"/>
      <point x="1023" y="912" type="line" smooth="yes"/>
      <point x="1023" y="1216"/>
      <point x="858" y="1393"/>
      <point x="546" y="1393" type="curve" smooth="yes"/>
      <point x="243" y="1393"/>
      <point x="65" y="1213"/>
      <point x="65" y="919" type="curve" smooth="yes"/>
      <point x="65" y="790" type="line" smooth="yes"/>
      <point x="65" y="605"/>
      <point x="129" y="495"/>
    </contour>
    <contour>
      <point x="519" y="-17" type="curve" smooth="yes"/>
      <point x="687" y="-17"/>
      <point x="771" y="79"/>
      <point x="771" y="260" type="curve" smooth="yes"/>
      <point x="771" y="486" type="line" smooth="yes"/>
      <point x="771" y="665"/>
      <point x="690" y="763"/>
      <point x="526" y="763" type="curve" smooth="yes"/>
      <point x="366" y="763"/>
      <point x="303" y="674"/>
      <point x="280" y="538" type="curve"/>
      <point x="268" y="510" type="line"/>
      <point x="267" y="498"/>
      <point x="267" y="484"/>
      <point x="267" y="472" type="curve" smooth="yes"/>
      <point x="267" y="260" type="line" smooth="yes"/>
      <point x="267" y="79"/>
      <point x="349" y="-17"/>
    </contour>
    <contour>
      <point x="519" y="117" type="curve" smooth="yes"/>
      <point x="449" y="117"/>
      <point x="423" y="165"/>
      <point x="423" y="258" type="curve" smooth="yes"/>
      <point x="423" y="487" type="line" smooth="yes"/>
      <point x="423" y="580"/>
      <point x="449" y="629"/>
      <point x="519" y="629" type="curve" smooth="yes"/>
      <point x="586" y="629"/>
      <point x="615" y="580"/>
      <point x="615" y="487" type="curve" smooth="yes"/>
      <point x="615" y="258" type="line" smooth="yes"/>
      <point x="615" y="165"/>
      <point x="586" y="117"/>
    </contour>
  </outline>
</glyph>
<glyph name="Cha.or" format="2">
  <advance width="1090"/>
  <unicode hex="0B1B"/>
  <anchor x="706" y="-150" name="bottom"/>
  <anchor x="520" y="-128" name="nukta"/>
  <anchor x="535" y="1725" name="top1"/>
  <anchor x="842" y="1436" name="top2"/>
  <outline>
    <contour>
      <point x="283" y="438" type="curve"/>
      <point x="335" y="585" type="line"/>
      <point x="248" y="629"/>
      <point x="225" y="692"/>
      <point x="225" y="797" type="curve" smooth="yes"/>
      <point x="225" y="920" type="line" smooth="yes"/>
      <point x="225" y="1130"/>
      <point x="333" y="1245"/>
      <point x="546" y="1245" type="curve" smooth="yes"/>
      <point x="763" y="1245"/>
      <point x="864" y="1124"/>
      <point x="864" y="912" type="curve" smooth="yes"/>
      <point x="864" y="736" type="line" smooth="yes"/>
      <point x="864" y="650"/>
      <point x="853" y="575"/>
      <point x="825" y="497" type="curve"/>
      <point x="979" y="516" type="line"/>
      <point x="1006" y="579"/>
      <point x="1023" y="661"/>
      <point x="1023" y="745" type="curve" smooth="yes"/>
      <point x="1023" y="912" type="line" smooth="yes"/>
      <point x="1023" y="1216"/>
      <point x="858" y="1393"/>
      <point x="546" y="1393" type="curve" smooth="yes"/>
      <point x="243" y="1393"/>
      <point x="65" y="1213"/>
      <point x="65" y="919" type="curve" smooth="yes"/>
      <point x="65" y="797" type="line" smooth="yes"/>
      <point x="65" y="612"/>
      <point x="129" y="502"/>
    </contour>
    <contour>
      <point x="332" y="-258" type="curve" smooth="yes"/>
      <point x="441" y="-258"/>
      <point x="502" y="-202"/>
      <point x="543" y="-92" type="curve"/>
      <point x="576" y="-32" type="line"/>
      <point x="609" y="59"/>
      <point x="638" y="100"/>
      <point x="690" y="100" type="curve" smooth="yes"/>
      <point x="735" y="100"/>
      <point x="760" y="64"/>
      <point x="760" y="-2" type="curve" smooth="yes"/>
      <point x="760" y="-42" type="line" smooth="yes"/>
      <point x="760" y="-106"/>
      <point x="735" y="-140"/>
      <point x="691" y="-140" type="curve" smooth="yes"/>
      <point x="640" y="-140"/>
      <point x="607" y="-100"/>
      <point x="576" y="-19" type="curve"/>
      <point x="531" y="58" type="line"/>
      <point x="486" y="153"/>
      <point x="405" y="203"/>
      <point x="317" y="203" type="curve" smooth="yes"/>
      <point x="207" y="203"/>
      <point x="145" y="127"/>
      <point x="145" y="3" type="curve" smooth="yes"/>
      <point x="145" y="-50" type="line" smooth="yes"/>
      <point x="145" y="-179"/>
      <point x="205" y="-258"/>
    </contour>
    <contour>
      <point x="708" y="-258" type="curve" smooth="yes"/>
      <point x="834" y="-258"/>
      <point x="894" y="-179"/>
      <point x="894" y="-50" type="curve" smooth="yes"/>
      <point x="894" y="3" type="line" smooth="yes"/>
      <point x="894" y="128"/>
      <point x="832" y="203"/>
      <point x="722" y="203" type="curve" smooth="yes"/>
      <point x="638" y="203"/>
      <point x="553" y="153"/>
      <point x="507" y="54" type="curve"/>
      <point x="463" y="-19" type="line"/>
      <point x="430" y="-101"/>
      <point x="400" y="-140"/>
      <point x="350" y="-140" type="curve" smooth="yes"/>
      <point x="305" y="-140"/>
      <point x="279" y="-106"/>
      <point x="279" y="-42" type="curve" smooth="yes"/>
      <point x="279" y="-2" type="line" smooth="yes"/>
      <point x="279" y="64"/>
      <point x="305" y="100"/>
      <point x="350" y="100" type="curve" smooth="yes"/>
      <point x="401" y="100"/>
      <point x="431" y="59"/>
      <point x="464" y="-32" type="curve"/>
      <point x="492" y="-92" type="line"/>
      <point x="536" y="-202"/>
      <point x="600" y="-258"/>
    </contour>
    <contour>
      <point x="519" y="73" type="curve" smooth="yes"/>
      <point x="687" y="73"/>
      <point x="771" y="163"/>
      <point x="771" y="333" type="curve" smooth="yes"/>
      <point x="771" y="509" type="line" smooth="yes"/>
      <point x="771" y="688"/>
      <point x="690" y="786"/>
      <point x="526" y="786" type="curve" smooth="yes"/>
      <point x="366" y="786"/>
      <point x="303" y="697"/>
      <point x="280" y="561" type="curve"/>
      <point x="268" y="533" type="line"/>
      <point x="267" y="521"/>
      <point x="267" y="507"/>
      <point x="267" y="495" type="curve" smooth="yes"/>
      <point x="267" y="333" type="line" smooth="yes"/>
      <point x="267" y="163"/>
      <point x="349" y="73"/>
    </contour>
    <contour>
      <point x="519" y="171" type="curve" smooth="yes"/>
      <point x="449" y="171"/>
      <point x="423" y="219"/>
      <point x="423" y="312" type="curve" smooth="yes"/>
      <point x="423" y="510" type="line" smooth="yes"/>
      <point x="423" y="603"/>
      <point x="449" y="652"/>
      <point x="519" y="652" type="curve" smooth="yes"/>
      <point x="586" y="652"/>
      <point x="615" y="603"/>
      <point x="615" y="510" type="curve" smooth="yes"/>
      <point x="615" y="312" type="line" smooth="yes"/>
      <point x="615" y="219"/>
      <point x="586" y="171"/>
    </contour>
  </outline>
</glyph>
<glyph name="Ja.or" format="2">
  <advance width="1158"/>
  <unicode hex="0B1C"/>
  <anchor x="889" y="40" name="bottom"/>
  <anchor x="569" y="40" name="nukta"/>
  <anchor x="569" y="1719" name="top1"/>
  <anchor x="882" y="1430" name="top2"/>
  <outline>
    <contour>
      <point x="205" y="459" type="curve"/>
      <point x="283" y="574" type="line"/>
      <point x="240" y="619"/>
      <point x="225" y="662"/>
      <point x="225" y="749" type="curve" smooth="yes"/>
      <point x="225" y="908" type="line" smooth="yes"/>
      <point x="225" y="1123"/>
      <point x="338" y="1245"/>
      <point x="577" y="1245" type="curve" smooth="yes"/>
      <point x="823" y="1245"/>
      <point x="935" y="1113"/>
      <point x="935" y="883" type="curve" smooth="yes"/>
      <point x="935" y="696" type="line" smooth="yes"/>
      <point x="935" y="627"/>
      <point x="933" y="571"/>
      <point x="921" y="496" type="curve"/>
      <point x="1068" y="517" type="line"/>
      <point x="1084" y="583"/>
      <point x="1091" y="654"/>
      <point x="1091" y="730" type="curve" smooth="yes"/>
      <point x="1091" y="886" type="line" smooth="yes"/>
      <point x="1091" y="1207"/>
      <point x="907" y="1393"/>
      <point x="577" y="1393" type="curve" smooth="yes"/>
      <point x="250" y="1393"/>
      <point x="65" y="1211"/>
      <point x="65" y="908" type="curve" smooth="yes"/>
      <point x="65" y="749" type="line" smooth="yes"/>
      <point x="65" y="593"/>
      <point x="117" y="503"/>
    </contour>
    <contour>
      <point x="398" y="-13" type="curve" smooth="yes"/>
      <point x="550" y="-13"/>
      <point x="629" y="68"/>
      <point x="629" y="238" type="curve" smooth="yes"/>
      <point x="629" y="319" type="line" smooth="yes"/>
      <point x="629" y="410"/>
      <point x="615" y="453"/>
      <point x="563" y="489" type="curve"/>
      <point x="563" y="494" type="line"/>
      <point x="785" y="608" type="line"/>
      <point x="739" y="639" type="line"/>
      <point x="737" y="539"/>
      <point x="735" y="426"/>
      <point x="735" y="341" type="curve" smooth="yes"/>
      <point x="735" y="0" type="line"/>
      <point x="889" y="0" type="line"/>
      <point x="889" y="664" type="line"/>
      <point x="779" y="752" type="line"/>
      <point x="440" y="583" type="line"/>
      <point x="439" y="462" type="line"/>
      <point x="462" y="448"/>
      <point x="477" y="421"/>
      <point x="477" y="362" type="curve" smooth="yes"/>
      <point x="477" y="236" type="line" smooth="yes"/>
      <point x="477" y="163"/>
      <point x="457" y="121"/>
      <point x="399" y="121" type="curve" smooth="yes"/>
      <point x="341" y="121"/>
      <point x="320" y="163"/>
      <point x="320" y="236" type="curve" smooth="yes"/>
      <point x="320" y="466" type="line" smooth="yes"/>
      <point x="320" y="542"/>
      <point x="339" y="585"/>
      <point x="385" y="614" type="curve"/>
      <point x="385" y="777" type="line"/>
      <point x="285" y="744"/>
      <point x="222" y="679"/>
      <point x="193" y="573" type="curve"/>
      <point x="173" y="535" type="line"/>
      <point x="166" y="500"/>
      <point x="166" y="479"/>
      <point x="166" y="445" type="curve" smooth="yes"/>
      <point x="166" y="238" type="line" smooth="yes"/>
      <point x="166" y="78"/>
      <point x="239" y="-13"/>
    </contour>
  </outline>
</glyph>
<glyph name="Jha.or" format="2">
  <advance width="1049"/>
  <unicode hex="0B1D"/>
  <anchor x="586" y="40" name="bottom"/>
  <anchor x="529" y="40" name="nukta"/>
  <anchor x="534" y="1725" name="top1"/>
  <anchor x="761" y="1436" name="top2"/>
  <outline>
    <contour>
      <point x="247" y="453" type="curve"/>
      <point x="305" y="596" type="line"/>
      <point x="245" y="638"/>
      <point x="225" y="693"/>
      <point x="225" y="794" type="curve" smooth="yes"/>
      <point x="225" y="929" type="line" smooth="yes"/>
      <point x="225" y="1127"/>
      <point x="310" y="1238"/>
      <point x="484" y="1238" type="curve" smooth="yes"/>
      <point x="540" y="1238"/>
      <point x="579" y="1232"/>
      <point x="612" y="1221" type="curve"/>
      <point x="504" y="1326" type="line"/>
      <point x="504" y="1272"/>
      <point x="504" y="1220"/>
      <point x="504" y="1162" type="curve" smooth="yes"/>
      <point x="504" y="1055" type="line" smooth="yes"/>
      <point x="504" y="879"/>
      <point x="584" y="785"/>
      <point x="749" y="785" type="curve" smooth="yes"/>
      <point x="912" y="785"/>
      <point x="994" y="879"/>
      <point x="994" y="1055" type="curve" smooth="yes"/>
      <point x="994" y="1190" type="line" smooth="yes"/>
      <point x="994" y="1249"/>
      <point x="994" y="1307"/>
      <point x="994" y="1366" type="curve"/>
      <point x="838" y="1366" type="line"/>
      <point x="838" y="1307"/>
      <point x="838" y="1249"/>
      <point x="838" y="1190" type="curve" smooth="yes"/>
      <point x="838" y="1053" type="line" smooth="yes"/>
      <point x="838" y="965"/>
      <point x="811" y="919"/>
      <point x="749" y="919" type="curve" smooth="yes"/>
      <point x="684" y="919"/>
      <point x="660" y="965"/>
      <point x="660" y="1053" type="curve" smooth="yes"/>
      <point x="660" y="1187" type="line" smooth="yes"/>
      <point x="660" y="1248"/>
      <point x="660" y="1298"/>
      <point x="660" y="1356" type="curve"/>
      <point x="613" y="1372"/>
      <point x="561" y="1386"/>
      <point x="480" y="1386" type="curve" smooth="yes"/>
      <point x="215" y="1386"/>
      <point x="65" y="1213"/>
      <point x="65" y="932" type="curve" smooth="yes"/>
      <point x="65" y="793" type="line" smooth="yes"/>
      <point x="65" y="620"/>
      <point x="121" y="518"/>
    </contour>
    <contour>
      <point x="963" y="-144" type="line"/>
      <point x="963" y="26" type="line"/>
      <point x="707" y="200" type="line"/>
      <point x="628" y="85" type="line"/>
    </contour>
    <contour>
      <point x="483" y="-17" type="curve" smooth="yes"/>
      <point x="596" y="-17"/>
      <point x="657" y="23"/>
      <point x="693" y="93" type="curve"/>
      <point x="723" y="150" type="line"/>
      <point x="735" y="188"/>
      <point x="741" y="232"/>
      <point x="741" y="275" type="curve" smooth="yes"/>
      <point x="741" y="476" type="line" smooth="yes"/>
      <point x="741" y="655"/>
      <point x="660" y="753"/>
      <point x="496" y="753" type="curve" smooth="yes"/>
      <point x="336" y="753"/>
      <point x="273" y="664"/>
      <point x="250" y="528" type="curve"/>
      <point x="238" y="500" type="line"/>
      <point x="237" y="488"/>
      <point x="237" y="474"/>
      <point x="237" y="462" type="curve" smooth="yes"/>
      <point x="237" y="260" type="line" smooth="yes"/>
      <point x="237" y="79"/>
      <point x="318" y="-17"/>
    </contour>
    <contour>
      <point x="489" y="117" type="curve" smooth="yes"/>
      <point x="419" y="117"/>
      <point x="393" y="165"/>
      <point x="393" y="258" type="curve" smooth="yes"/>
      <point x="393" y="477" type="line" smooth="yes"/>
      <point x="393" y="570"/>
      <point x="419" y="619"/>
      <point x="489" y="619" type="curve" smooth="yes"/>
      <point x="556" y="619"/>
      <point x="585" y="570"/>
      <point x="585" y="477" type="curve" smooth="yes"/>
      <point x="585" y="258" type="line" smooth="yes"/>
      <point x="585" y="165"/>
      <point x="556" y="117"/>
    </contour>
  </outline>
</glyph>
<glyph name="Nya.or" format="2">
  <advance width="1104"/>
  <unicode hex="0B1E"/>
  <anchor x="671" y="40" name="bottom"/>
  <anchor x="567" y="40" name="nukta"/>
  <anchor x="567" y="1725" name="top1"/>
  <anchor x="887" y="1436" name="top2"/>
  <outline>
    <contour>
      <point x="390" y="261" type="curve"/>
      <point x="528" y="249" type="line"/>
      <point x="514" y="301"/>
      <point x="507" y="340"/>
      <point x="507" y="397" type="curve" smooth="yes"/>
      <point x="507" y="528" type="line" smooth="yes"/>
      <point x="507" y="588"/>
      <point x="524" y="620"/>
      <point x="567" y="620" type="curve" smooth="yes"/>
      <point x="610" y="620"/>
      <point x="627" y="589"/>
      <point x="627" y="537" type="curve" smooth="yes"/>
      <point x="628" y="284" type="line"/>
      <point x="764" y="284" type="line"/>
      <point x="765" y="536" type="line" smooth="yes"/>
      <point x="765" y="589"/>
      <point x="783" y="621"/>
      <point x="825" y="621" type="curve" smooth="yes"/>
      <point x="868" y="621"/>
      <point x="885" y="589"/>
      <point x="885" y="529" type="curve" smooth="yes"/>
      <point x="885" y="372" type="line" smooth="yes"/>
      <point x="885" y="206"/>
      <point x="785" y="123"/>
      <point x="573" y="123" type="curve" smooth="yes"/>
      <point x="346" y="123"/>
      <point x="234" y="223"/>
      <point x="234" y="407" type="curve" smooth="yes"/>
      <point x="234" y="517" type="line" smooth="yes"/>
      <point x="234" y="603"/>
      <point x="245" y="647"/>
      <point x="277" y="700" type="curve"/>
      <point x="159" y="796" type="line"/>
      <point x="106" y="719"/>
      <point x="79" y="634"/>
      <point x="79" y="516" type="curve" smooth="yes"/>
      <point x="79" y="401" type="line" smooth="yes"/>
      <point x="79" y="129"/>
      <point x="261" y="-19"/>
      <point x="573" y="-19" type="curve" smooth="yes"/>
      <point x="871" y="-19"/>
      <point x="1032" y="122"/>
      <point x="1032" y="373" type="curve" smooth="yes"/>
      <point x="1032" y="523" type="line" smooth="yes"/>
      <point x="1032" y="664"/>
      <point x="973" y="736"/>
      <point x="861" y="736" type="curve" smooth="yes"/>
      <point x="773" y="736"/>
      <point x="718" y="699"/>
      <point x="698" y="632" type="curve"/>
      <point x="693" y="632" type="line"/>
      <point x="676" y="687"/>
      <point x="627" y="710"/>
      <point x="538" y="710" type="curve" smooth="yes"/>
      <point x="418" y="710"/>
      <point x="366" y="646"/>
      <point x="366" y="519" type="curve" smooth="yes"/>
      <point x="366" y="417" type="line" smooth="yes"/>
      <point x="366" y="354"/>
      <point x="373" y="311"/>
    </contour>
    <contour>
      <point x="390" y="881" type="curve"/>
      <point x="528" y="869" type="line"/>
      <point x="514" y="921"/>
      <point x="507" y="960"/>
      <point x="507" y="1017" type="curve" smooth="yes"/>
      <point x="507" y="1146" type="line" smooth="yes"/>
      <point x="507" y="1206"/>
      <point x="524" y="1238"/>
      <point x="567" y="1238" type="curve" smooth="yes"/>
      <point x="610" y="1238"/>
      <point x="627" y="1205"/>
      <point x="627" y="1146" type="curve" smooth="yes"/>
      <point x="628" y="904" type="line"/>
      <point x="764" y="904" type="line"/>
      <point x="765" y="1146" type="line" smooth="yes"/>
      <point x="765" y="1205"/>
      <point x="783" y="1238"/>
      <point x="825" y="1238" type="curve" smooth="yes"/>
      <point x="868" y="1238"/>
      <point x="885" y="1206"/>
      <point x="885" y="1146" type="curve" smooth="yes"/>
      <point x="885" y="997" type="line" smooth="yes"/>
      <point x="885" y="823"/>
      <point x="792" y="741"/>
      <point x="586" y="741" type="curve" smooth="yes"/>
      <point x="351" y="741"/>
      <point x="234" y="845"/>
      <point x="234" y="1029" type="curve" smooth="yes"/>
      <point x="234" y="1099" type="line" smooth="yes"/>
      <point x="234" y="1208"/>
      <point x="240" y="1268"/>
      <point x="285" y="1363" type="curve"/>
      <point x="130" y="1363" type="line"/>
      <point x="88" y="1277"/>
      <point x="79" y="1204"/>
      <point x="79" y="1095" type="curve" smooth="yes"/>
      <point x="79" y="1027" type="line" smooth="yes"/>
      <point x="79" y="913"/>
      <point x="105" y="827"/>
      <point x="170" y="760" type="curve"/>
      <point x="231" y="699" type="line"/>
      <point x="282" y="651"/>
      <point x="372" y="621"/>
      <point x="450" y="610" type="curve"/>
      <point x="533" y="630" type="line"/>
      <point x="653" y="624" type="line"/>
      <point x="752" y="628"/>
      <point x="775" y="647"/>
      <point x="872" y="691" type="curve"/>
      <point x="977" y="747"/>
      <point x="1032" y="845"/>
      <point x="1032" y="987" type="curve" smooth="yes"/>
      <point x="1032" y="1146" type="line" smooth="yes"/>
      <point x="1032" y="1295"/>
      <point x="976" y="1370"/>
      <point x="852" y="1370" type="curve" smooth="yes"/>
      <point x="769" y="1370"/>
      <point x="717" y="1328"/>
      <point x="698" y="1252" type="curve"/>
      <point x="693" y="1252" type="line"/>
      <point x="676" y="1328"/>
      <point x="624" y="1370"/>
      <point x="542" y="1370" type="curve" smooth="yes"/>
      <point x="425" y="1370"/>
      <point x="366" y="1295"/>
      <point x="366" y="1141" type="curve" smooth="yes"/>
      <point x="366" y="1037" type="line" smooth="yes"/>
      <point x="366" y="974"/>
      <point x="373" y="931"/>
    </contour>
  </outline>
</glyph>
<glyph name="Tta.or" format="2">
  <advance width="1059"/>
  <unicode hex="0B1F"/>
  <anchor x="617" y="40" name="bottom"/>
  <anchor x="536" y="40" name="nukta"/>
  <anchor x="530" y="1724" name="top1"/>
  <anchor x="746" y="1436" name="top2"/>
  <outline>
    <contour>
      <point x="283" y="431" type="curve"/>
      <point x="335" y="578" type="line"/>
      <point x="248" y="622"/>
      <point x="225" y="685"/>
      <point x="225" y="790" type="curve" smooth="yes"/>
      <point x="225" y="930" type="line" smooth="yes"/>
      <point x="225" y="1131"/>
      <point x="321" y="1243"/>
      <point x="517" y="1243" type="curve" smooth="yes"/>
      <point x="720" y="1243"/>
      <point x="821" y="1120"/>
      <point x="831" y="919" type="curve"/>
      <point x="831" y="1156" type="line"/>
      <point x="803" y="1296"/>
      <point x="710" y="1393"/>
      <point x="487" y="1393" type="curve" smooth="yes"/>
      <point x="216" y="1393"/>
      <point x="65" y="1219"/>
      <point x="65" y="933" type="curve" smooth="yes"/>
      <point x="65" y="790" type="line" smooth="yes"/>
      <point x="65" y="605"/>
      <point x="129" y="495"/>
    </contour>
    <contour>
      <point x="520" y="-17" type="curve" smooth="yes"/>
      <point x="688" y="-17"/>
      <point x="772" y="79"/>
      <point x="772" y="260" type="curve" smooth="yes"/>
      <point x="772" y="486" type="line" smooth="yes"/>
      <point x="772" y="665"/>
      <point x="691" y="763"/>
      <point x="527" y="763" type="curve" smooth="yes"/>
      <point x="367" y="763"/>
      <point x="304" y="674"/>
      <point x="281" y="538" type="curve"/>
      <point x="269" y="510" type="line"/>
      <point x="268" y="498"/>
      <point x="268" y="484"/>
      <point x="268" y="472" type="curve" smooth="yes"/>
      <point x="268" y="260" type="line" smooth="yes"/>
      <point x="268" y="79"/>
      <point x="350" y="-17"/>
    </contour>
    <contour>
      <point x="520" y="117" type="curve" smooth="yes"/>
      <point x="450" y="117"/>
      <point x="424" y="165"/>
      <point x="424" y="258" type="curve" smooth="yes"/>
      <point x="424" y="487" type="line" smooth="yes"/>
      <point x="424" y="580"/>
      <point x="450" y="629"/>
      <point x="520" y="629" type="curve" smooth="yes"/>
      <point x="587" y="629"/>
      <point x="616" y="580"/>
      <point x="616" y="487" type="curve" smooth="yes"/>
      <point x="616" y="258" type="line" smooth="yes"/>
      <point x="616" y="165"/>
      <point x="587" y="117"/>
    </contour>
    <contour>
      <point x="831" y="752" type="line"/>
      <point x="987" y="752" type="line"/>
      <point x="987" y="1366" type="line"/>
      <point x="831" y="1366" type="line"/>
      <point x="837" y="1172" type="line"/>
      <point x="806" y="1172" type="line"/>
      <point x="831" y="1080" type="line"/>
    </contour>
  </outline>
</glyph>
<glyph name="Ttha.or" format="2">
  <advance width="960"/>
  <unicode hex="0B20"/>
  <anchor x="577" y="40" name="bottom"/>
  <anchor x="480" y="40" name="nukta"/>
  <anchor x="480" y="1725" name="top1"/>
  <anchor x="728" y="1436" name="top2"/>
  <outline>
    <contour>
      <point x="480" y="-15" type="curve" smooth="yes"/>
      <point x="741" y="-15"/>
      <point x="875" y="145"/>
      <point x="875" y="428" type="curve" smooth="yes"/>
      <point x="875" y="949" type="line" smooth="yes"/>
      <point x="875" y="1229"/>
      <point x="740" y="1390"/>
      <point x="480" y="1390" type="curve" smooth="yes"/>
      <point x="219" y="1390"/>
      <point x="85" y="1231"/>
      <point x="85" y="949" type="curve" smooth="yes"/>
      <point x="85" y="428" type="line" smooth="yes"/>
      <point x="85" y="145"/>
      <point x="218" y="-15"/>
    </contour>
    <contour>
      <point x="480" y="131" type="curve" smooth="yes"/>
      <point x="319" y="131"/>
      <point x="245" y="237"/>
      <point x="245" y="427" type="curve" smooth="yes"/>
      <point x="245" y="950" type="line" smooth="yes"/>
      <point x="245" y="1139"/>
      <point x="319" y="1245"/>
      <point x="480" y="1245" type="curve" smooth="yes"/>
      <point x="639" y="1245"/>
      <point x="715" y="1139"/>
      <point x="715" y="950" type="curve" smooth="yes"/>
      <point x="715" y="427" type="line" smooth="yes"/>
      <point x="715" y="237"/>
      <point x="639" y="131"/>
    </contour>
  </outline>
</glyph>
<glyph name="Dda.or" format="2">
  <advance width="1111"/>
  <unicode hex="0B21"/>
  <anchor x="618" y="40" name="bottom"/>
  <anchor x="530" y="40" name="nukta"/>
  <anchor x="557" y="1725" name="top1"/>
  <anchor x="859" y="1436" name="top2"/>
  <outline>
    <contour>
      <point x="283" y="431" type="curve"/>
      <point x="335" y="578" type="line"/>
      <point x="248" y="622"/>
      <point x="225" y="685"/>
      <point x="225" y="790" type="curve" smooth="yes"/>
      <point x="225" y="914" type="line" smooth="yes"/>
      <point x="225" y="1127"/>
      <point x="337" y="1245"/>
      <point x="557" y="1245" type="curve" smooth="yes"/>
      <point x="781" y="1245"/>
      <point x="885" y="1122"/>
      <point x="885" y="906" type="curve" smooth="yes"/>
      <point x="885" y="736" type="line" smooth="yes"/>
      <point x="885" y="650"/>
      <point x="874" y="575"/>
      <point x="847" y="497" type="curve"/>
      <point x="1000" y="516" type="line"/>
      <point x="1027" y="579"/>
      <point x="1044" y="661"/>
      <point x="1044" y="745" type="curve" smooth="yes"/>
      <point x="1044" y="906" type="line" smooth="yes"/>
      <point x="1044" y="1214"/>
      <point x="876" y="1393"/>
      <point x="557" y="1393" type="curve" smooth="yes"/>
      <point x="247" y="1393"/>
      <point x="65" y="1211"/>
      <point x="65" y="913" type="curve" smooth="yes"/>
      <point x="65" y="793" type="line" smooth="yes"/>
      <point x="65" y="605"/>
      <point x="129" y="495"/>
    </contour>
    <contour>
      <point x="518" y="-18" type="curve" smooth="yes"/>
      <point x="700" y="-18"/>
      <point x="795" y="85"/>
      <point x="795" y="278" type="curve" smooth="yes"/>
      <point x="795" y="349" type="line" smooth="yes"/>
      <point x="795" y="469"/>
      <point x="769" y="521"/>
      <point x="707" y="555" type="curve"/>
      <point x="707" y="590" type="line"/>
      <point x="603" y="500" type="line"/>
      <point x="631" y="480"/>
      <point x="641" y="446"/>
      <point x="641" y="384" type="curve" smooth="yes"/>
      <point x="641" y="279" type="line" smooth="yes"/>
      <point x="641" y="178"/>
      <point x="605" y="116"/>
      <point x="518" y="116" type="curve" smooth="yes"/>
      <point x="431" y="116"/>
      <point x="396" y="178"/>
      <point x="396" y="278" type="curve" smooth="yes"/>
      <point x="396" y="460" type="line" smooth="yes"/>
      <point x="396" y="540"/>
      <point x="413" y="586"/>
      <point x="459" y="615" type="curve"/>
      <point x="459" y="777" type="line"/>
      <point x="359" y="745"/>
      <point x="293" y="679"/>
      <point x="265" y="573" type="curve"/>
      <point x="247" y="535" type="line"/>
      <point x="240" y="502"/>
      <point x="240" y="479"/>
      <point x="240" y="445" type="curve" smooth="yes"/>
      <point x="240" y="279" type="line" smooth="yes"/>
      <point x="240" y="85"/>
      <point x="330" y="-18"/>
    </contour>
    <contour>
      <point x="502" y="358" type="line"/>
      <point x="638" y="493" type="line"/>
      <point x="682" y="536" type="line"/>
      <point x="796" y="646" type="line"/>
      <point x="796" y="825" type="line"/>
      <point x="502" y="544" type="line"/>
    </contour>
  </outline>
</glyph>
<glyph name="Ddha.or" format="2">
  <advance width="1115"/>
  <unicode hex="0B22"/>
  <anchor x="628" y="40" name="bottom"/>
  <anchor x="559" y="40" name="nukta"/>
  <anchor x="559" y="1725" name="top1"/>
  <anchor x="861" y="1436" name="top2"/>
  <outline>
    <contour>
      <point x="283" y="431" type="curve"/>
      <point x="335" y="578" type="line"/>
      <point x="248" y="622"/>
      <point x="225" y="685"/>
      <point x="225" y="790" type="curve" smooth="yes"/>
      <point x="225" y="914" type="line" smooth="yes"/>
      <point x="225" y="1127"/>
      <point x="338" y="1245"/>
      <point x="559" y="1245" type="curve" smooth="yes"/>
      <point x="784" y="1245"/>
      <point x="889" y="1122"/>
      <point x="889" y="906" type="curve" smooth="yes"/>
      <point x="889" y="696" type="line" smooth="yes"/>
      <point x="889" y="624"/>
      <point x="888" y="571"/>
      <point x="876" y="497" type="curve"/>
      <point x="1025" y="516" type="line"/>
      <point x="1041" y="583"/>
      <point x="1048" y="654"/>
      <point x="1048" y="731" type="curve" smooth="yes"/>
      <point x="1048" y="906" type="line" smooth="yes"/>
      <point x="1048" y="1214"/>
      <point x="879" y="1393"/>
      <point x="559" y="1393" type="curve" smooth="yes"/>
      <point x="248" y="1393"/>
      <point x="65" y="1211"/>
      <point x="65" y="913" type="curve" smooth="yes"/>
      <point x="65" y="793" type="line" smooth="yes"/>
      <point x="65" y="605"/>
      <point x="129" y="495"/>
    </contour>
    <contour>
      <point x="920" y="-76" type="curve"/>
      <point x="920" y="52" type="line"/>
      <point x="865" y="64"/>
      <point x="802" y="81"/>
      <point x="751" y="106" type="curve"/>
      <point x="634" y="38" type="line"/>
      <point x="697" y="-10"/>
      <point x="819" y="-60"/>
    </contour>
    <contour>
      <point x="523" y="-12" type="curve" smooth="yes"/>
      <point x="602" y="-12"/>
      <point x="649" y="4"/>
      <point x="692" y="28" type="curve"/>
      <point x="755" y="78" type="line"/>
      <point x="824" y="122"/>
      <point x="854" y="197"/>
      <point x="854" y="313" type="curve" smooth="yes"/>
      <point x="854" y="495" type="line" smooth="yes"/>
      <point x="854" y="631"/>
      <point x="785" y="701"/>
      <point x="658" y="701" type="curve" smooth="yes"/>
      <point x="533" y="701"/>
      <point x="460" y="631"/>
      <point x="460" y="497" type="curve" smooth="yes"/>
      <point x="460" y="298" type="line" smooth="yes"/>
      <point x="460" y="196"/>
      <point x="496" y="135"/>
      <point x="570" y="97" type="curve"/>
      <point x="680" y="145" type="line"/>
      <point x="631" y="176"/>
      <point x="599" y="216"/>
      <point x="599" y="293" type="curve" smooth="yes"/>
      <point x="599" y="494" type="line" smooth="yes"/>
      <point x="599" y="550"/>
      <point x="616" y="577"/>
      <point x="657" y="577" type="curve" smooth="yes"/>
      <point x="697" y="577"/>
      <point x="715" y="550"/>
      <point x="715" y="494" type="curve" smooth="yes"/>
      <point x="715" y="293" type="line" smooth="yes"/>
      <point x="715" y="216"/>
      <point x="694" y="170"/>
      <point x="641" y="142" type="curve"/>
      <point x="586" y="121" type="line"/>
      <point x="566" y="116"/>
      <point x="549" y="115"/>
      <point x="524" y="115" type="curve" smooth="yes"/>
      <point x="401" y="115"/>
      <point x="351" y="185"/>
      <point x="351" y="302" type="curve" smooth="yes"/>
      <point x="351" y="460" type="line" smooth="yes"/>
      <point x="351" y="540"/>
      <point x="368" y="586"/>
      <point x="415" y="615" type="curve"/>
      <point x="415" y="777" type="line"/>
      <point x="316" y="745"/>
      <point x="250" y="679"/>
      <point x="222" y="573" type="curve"/>
      <point x="204" y="535" type="line"/>
      <point x="197" y="502"/>
      <point x="197" y="479"/>
      <point x="197" y="445" type="curve" smooth="yes"/>
      <point x="197" y="301" type="line" smooth="yes"/>
      <point x="197" y="97"/>
      <point x="306" y="-12"/>
    </contour>
  </outline>
</glyph>
<glyph name="Ta.or" format="2">
  <advance width="1111"/>
  <unicode hex="0B24"/>
  <anchor x="641" y="40" name="bottom"/>
  <anchor x="556" y="40" name="nukta"/>
  <anchor x="556" y="1725" name="top1"/>
  <anchor x="856" y="1436" name="top2"/>
  <outline>
    <contour>
      <point x="283" y="431" type="curve"/>
      <point x="335" y="578" type="line"/>
      <point x="248" y="622"/>
      <point x="225" y="685"/>
      <point x="225" y="790" type="curve" smooth="yes"/>
      <point x="225" y="914" type="line" smooth="yes"/>
      <point x="225" y="1127"/>
      <point x="337" y="1245"/>
      <point x="557" y="1245" type="curve" smooth="yes"/>
      <point x="781" y="1245"/>
      <point x="885" y="1122"/>
      <point x="885" y="906" type="curve" smooth="yes"/>
      <point x="885" y="736" type="line" smooth="yes"/>
      <point x="885" y="650"/>
      <point x="876" y="575"/>
      <point x="855" y="497" type="curve"/>
      <point x="1008" y="516" type="line"/>
      <point x="1030" y="579"/>
      <point x="1044" y="661"/>
      <point x="1044" y="745" type="curve" smooth="yes"/>
      <point x="1044" y="906" type="line" smooth="yes"/>
      <point x="1044" y="1214"/>
      <point x="876" y="1393"/>
      <point x="557" y="1393" type="curve" smooth="yes"/>
      <point x="247" y="1393"/>
      <point x="65" y="1211"/>
      <point x="65" y="913" type="curve" smooth="yes"/>
      <point x="65" y="793" type="line" smooth="yes"/>
      <point x="65" y="605"/>
      <point x="129" y="495"/>
    </contour>
    <contour>
      <point x="531" y="-18" type="curve" smooth="yes"/>
      <point x="725" y="-18"/>
      <point x="826" y="88"/>
      <point x="826" y="287" type="curve" smooth="yes"/>
      <point x="826" y="474" type="line" smooth="yes"/>
      <point x="826" y="646"/>
      <point x="761" y="712"/>
      <point x="668" y="712" type="curve" smooth="yes"/>
      <point x="591" y="712"/>
      <point x="546" y="666"/>
      <point x="546" y="586" type="curve" smooth="yes"/>
      <point x="546" y="572" type="line" smooth="yes"/>
      <point x="546" y="505"/>
      <point x="585" y="460"/>
      <point x="644" y="460" type="curve" smooth="yes"/>
      <point x="717" y="460"/>
      <point x="739" y="503"/>
      <point x="739" y="554" type="curve"/>
      <point x="739" y="574" type="line" smooth="yes"/>
      <point x="739" y="620"/>
      <point x="711" y="648"/>
      <point x="668" y="657" type="curve"/>
      <point x="583" y="578" type="line"/>
      <point x="596" y="582"/>
      <point x="609" y="584"/>
      <point x="623" y="584" type="curve"/>
      <point x="648" y="584"/>
      <point x="674" y="554"/>
      <point x="674" y="464" type="curve" smooth="yes"/>
      <point x="674" y="288" type="line" smooth="yes"/>
      <point x="674" y="181"/>
      <point x="632" y="116"/>
      <point x="531" y="116" type="curve" smooth="yes"/>
      <point x="431" y="116"/>
      <point x="391" y="181"/>
      <point x="391" y="287" type="curve" smooth="yes"/>
      <point x="391" y="460" type="line" smooth="yes"/>
      <point x="391" y="541"/>
      <point x="411" y="588"/>
      <point x="464" y="616" type="curve"/>
      <point x="464" y="777" type="line"/>
      <point x="359" y="745"/>
      <point x="289" y="679"/>
      <point x="260" y="573" type="curve"/>
      <point x="235" y="479" type="line"/>
      <point x="235" y="288" type="line" smooth="yes"/>
      <point x="235" y="88"/>
      <point x="331" y="-18"/>
    </contour>
  </outline>
</glyph>
<glyph name="Tha.or" format="2">
  <advance width="1053"/>
  <unicode hex="0B25"/>
  <anchor x="958" y="40" name="bottom"/>
  <anchor x="541" y="40" name="nukta"/>
  <anchor x="541" y="1724" name="top1"/>
  <anchor x="864" y="1436" name="top2"/>
  <outline>
    <contour>
      <point x="448" y="-15" type="curve" smooth="yes"/>
      <point x="667" y="-15"/>
      <point x="761" y="69"/>
      <point x="799" y="202" type="curve"/>
      <point x="870" y="202" type="line"/>
      <point x="808" y="377" type="line"/>
      <point x="778" y="229"/>
      <point x="659" y="136"/>
      <point x="485" y="136" type="curve" smooth="yes"/>
      <point x="299" y="136"/>
      <point x="223" y="215"/>
      <point x="223" y="343" type="curve" smooth="yes"/>
      <point x="223" y="366" type="line" smooth="yes"/>
      <point x="223" y="466"/>
      <point x="271" y="515"/>
      <point x="373" y="564" type="curve" smooth="yes"/>
      <point x="450" y="601" type="line" smooth="yes"/>
      <point x="606" y="676"/>
      <point x="667" y="752"/>
      <point x="667" y="928" type="curve" smooth="yes"/>
      <point x="667" y="1111" type="line" smooth="yes"/>
      <point x="667" y="1290"/>
      <point x="585" y="1384"/>
      <point x="421" y="1384" type="curve" smooth="yes"/>
      <point x="255" y="1384"/>
      <point x="174" y="1287"/>
      <point x="174" y="1116" type="curve" smooth="yes"/>
      <point x="174" y="1014" type="line" smooth="yes"/>
      <point x="174" y="946"/>
      <point x="182" y="901"/>
      <point x="197" y="851" type="curve"/>
      <point x="349" y="841" type="line"/>
      <point x="335" y="896"/>
      <point x="328" y="940"/>
      <point x="328" y="1000" type="curve" smooth="yes"/>
      <point x="328" y="1117" type="line" smooth="yes"/>
      <point x="328" y="1204"/>
      <point x="355" y="1250"/>
      <point x="419" y="1250" type="curve" smooth="yes"/>
      <point x="484" y="1250"/>
      <point x="509" y="1204"/>
      <point x="509" y="1117" type="curve" smooth="yes"/>
      <point x="509" y="931" type="line" smooth="yes"/>
      <point x="509" y="820"/>
      <point x="483" y="773"/>
      <point x="393" y="730" type="curve" smooth="yes"/>
      <point x="307" y="689" type="line" smooth="yes"/>
      <point x="136" y="607"/>
      <point x="55" y="529"/>
      <point x="55" y="359" type="curve" smooth="yes"/>
      <point x="55" y="331" type="line" smooth="yes"/>
      <point x="55" y="115"/>
      <point x="183" y="-15"/>
    </contour>
    <contour>
      <point x="803" y="0" type="line"/>
      <point x="959" y="0" type="line"/>
      <point x="959" y="1366" type="line"/>
      <point x="803" y="1366" type="line"/>
      <point x="803" y="272" type="line"/>
      <point x="810" y="254" type="line"/>
    </contour>
  </outline>
</glyph>
<glyph name="Dha.or" format="2">
  <advance width="982"/>
  <unicode hex="0B27"/>
  <anchor x="888" y="40" name="bottom"/>
  <anchor x="509" y="40" name="nukta"/>
  <anchor x="470" y="1724" name="top1"/>
  <anchor x="791" y="1436" name="top2"/>
  <outline>
    <contour>
      <point x="435" y="-17" type="curve" smooth="yes"/>
      <point x="625" y="-17"/>
      <point x="709" y="64"/>
      <point x="733" y="199" type="curve"/>
      <point x="801" y="199" type="line"/>
      <point x="738" y="346" type="line"/>
      <point x="704" y="201"/>
      <point x="618" y="133"/>
      <point x="473" y="133" type="curve" smooth="yes"/>
      <point x="314" y="133"/>
      <point x="235" y="230"/>
      <point x="235" y="395" type="curve" smooth="yes"/>
      <point x="235" y="514" type="line" smooth="yes"/>
      <point x="235" y="665"/>
      <point x="300" y="759"/>
      <point x="464" y="785" type="curve" smooth="yes"/>
      <point x="488" y="788"/>
      <point x="507" y="788"/>
      <point x="524" y="788" type="curve"/>
      <point x="462" y="935" type="line"/>
      <point x="443" y="931"/>
      <point x="427" y="929"/>
      <point x="404" y="924" type="curve" smooth="yes"/>
      <point x="182" y="876"/>
      <point x="73" y="742"/>
      <point x="73" y="513" type="curve" smooth="yes"/>
      <point x="73" y="384" type="line" smooth="yes"/>
      <point x="73" y="130"/>
      <point x="201" y="-17"/>
    </contour>
    <contour>
      <point x="231" y="1366" type="line"/>
      <point x="39" y="1366" type="line"/>
      <point x="39" y="1366" type="line"/>
      <point x="367" y="876" type="line"/>
      <point x="407" y="817" type="line"/>
      <point x="587" y="554" type="line"/>
      <point x="598" y="554" type="line"/>
      <point x="598" y="793" type="line"/>
    </contour>
    <contour>
      <point x="732" y="0" type="line"/>
      <point x="888" y="0" type="line"/>
      <point x="888" y="1366" type="line"/>
      <point x="732" y="1366" type="line"/>
      <point x="732" y="256" type="line"/>
      <point x="709" y="178" type="line"/>
      <point x="739" y="178" type="line"/>
    </contour>
  </outline>
</glyph>
<glyph name="Pha.or" format="2">
  <advance width="1256"/>
  <unicode hex="0B2B"/>
  <anchor x="942" y="40" name="bottom"/>
  <anchor x="572" y="40" name="nukta"/>
  <anchor x="506" y="1724" name="top1"/>
  <anchor x="850" y="1436" name="top2"/>
  <anchor x="942" y="1429" name="top3"/>
  <outline>
    <contour>
      <point x="257" y="459" type="curve"/>
      <point x="322" y="599" type="line"/>
      <point x="250" y="642"/>
      <point x="227" y="695"/>
      <point x="227" y="793" type="curve" smooth="yes"/>
      <point x="227" y="957" type="line" smooth="yes"/>
      <point x="227" y="1141"/>
      <point x="315" y="1243"/>
      <point x="495" y="1243" type="curve" smooth="yes"/>
      <point x="684" y="1243"/>
      <point x="779" y="1124"/>
      <point x="788" y="930" type="curve"/>
      <point x="865" y="932" type="line"/>
      <point x="786" y="1166" type="line"/>
      <point x="760" y="1300"/>
      <point x="673" y="1393"/>
      <point x="465" y="1393" type="curve" smooth="yes"/>
      <point x="208" y="1393"/>
      <point x="65" y="1226"/>
      <point x="65" y="960" type="curve" smooth="yes"/>
      <point x="65" y="794" type="line" smooth="yes"/>
      <point x="65" y="625"/>
      <point x="124" y="521"/>
    </contour>
    <contour>
      <point x="539" y="-17" type="curve" smooth="yes"/>
      <point x="694" y="-17"/>
      <point x="760" y="55"/>
      <point x="783" y="158" type="curve"/>
      <point x="852" y="158" type="line"/>
      <point x="790" y="318" type="line"/>
      <point x="762" y="187"/>
      <point x="699" y="123"/>
      <point x="580" y="123" type="curve" smooth="yes"/>
      <point x="452" y="123"/>
      <point x="396" y="200"/>
      <point x="396" y="331" type="curve" smooth="yes"/>
      <point x="396" y="431" type="line" smooth="yes"/>
      <point x="396" y="541"/>
      <point x="445" y="612"/>
      <point x="538" y="634" type="curve"/>
      <point x="538" y="785" type="line"/>
      <point x="399" y="760"/>
      <point x="316" y="685"/>
      <point x="274" y="586" type="curve"/>
      <point x="254" y="533" type="line"/>
      <point x="237" y="490"/>
      <point x="236" y="466"/>
      <point x="236" y="427" type="curve" smooth="yes"/>
      <point x="236" y="313" type="line" smooth="yes"/>
      <point x="236" y="111"/>
      <point x="335" y="-17"/>
    </contour>
    <contour>
      <point x="786" y="0" type="line"/>
      <point x="942" y="0" type="line"/>
      <point x="942" y="1366" type="line"/>
      <point x="786" y="1366" type="line"/>
      <point x="792" y="1182" type="line"/>
      <point x="763" y="1182" type="line"/>
      <point x="788" y="1096" type="line"/>
      <point x="788" y="236" type="line"/>
      <point x="794" y="187" type="line"/>
    </contour>
    <contour>
      <point x="1021" y="864" type="curve" smooth="yes"/>
      <point x="968" y="864"/>
      <point x="942" y="899"/>
      <point x="942" y="970" type="curve" smooth="yes"/>
      <point x="942" y="1066" type="line" smooth="yes"/>
      <point x="942" y="1136"/>
      <point x="968" y="1173"/>
      <point x="1020" y="1173" type="curve" smooth="yes"/>
      <point x="1072" y="1173"/>
      <point x="1094" y="1137"/>
      <point x="1094" y="1064" type="curve" smooth="yes"/>
      <point x="1094" y="973" type="line" smooth="yes"/>
      <point x="1094" y="900"/>
      <point x="1072" y="864"/>
    </contour>
    <contour>
      <point x="1062" y="744" type="curve" smooth="yes"/>
      <point x="1174" y="744"/>
      <point x="1231" y="820"/>
      <point x="1231" y="952" type="curve" smooth="yes"/>
      <point x="1231" y="1085" type="line" smooth="yes"/>
      <point x="1231" y="1217"/>
      <point x="1175" y="1293"/>
      <point x="1067" y="1293" type="curve" smooth="yes"/>
      <point x="980" y="1293"/>
      <point x="935" y="1242"/>
      <point x="923" y="1170" type="curve"/>
      <point x="918" y="858" type="line"/>
      <point x="929" y="788"/>
      <point x="975" y="744"/>
    </contour>
  </outline>
</glyph>
<glyph name="Bha.or" format="2">
  <advance width="1207"/>
  <unicode hex="0B2D"/>
  <anchor x="636" y="40" name="bottom"/>
  <anchor x="587" y="40" name="nukta"/>
  <anchor x="587" y="1725" name="top1"/>
  <anchor x="907" y="1436" name="top2"/>
  <outline>
    <contour>
      <point x="1246" y="-144" type="line"/>
      <point x="1246" y="20" type="line"/>
      <point x="1028" y="92" type="line"/>
      <point x="1037" y="63" type="line"/>
      <point x="1097" y="114"/>
      <point x="1115" y="194"/>
      <point x="1115" y="296" type="curve" smooth="yes"/>
      <point x="1115" y="855" type="line" smooth="yes"/>
      <point x="1115" y="1201"/>
      <point x="933" y="1393"/>
      <point x="591" y="1393" type="curve" smooth="yes"/>
      <point x="255" y="1393"/>
      <point x="65" y="1208"/>
      <point x="65" y="898" type="curve" smooth="yes"/>
      <point x="65" y="750" type="line" smooth="yes"/>
      <point x="65" y="585"/>
      <point x="118" y="494"/>
      <point x="240" y="445" type="curve"/>
      <point x="286" y="585" type="line"/>
      <point x="231" y="633"/>
      <point x="225" y="669"/>
      <point x="225" y="755" type="curve" smooth="yes"/>
      <point x="225" y="897" type="line" smooth="yes"/>
      <point x="225" y="1120"/>
      <point x="344" y="1245"/>
      <point x="590" y="1245" type="curve" smooth="yes"/>
      <point x="842" y="1245"/>
      <point x="957" y="1104"/>
      <point x="957" y="855" type="curve" smooth="yes"/>
      <point x="957" y="261" type="line" smooth="yes"/>
      <point x="957" y="164"/>
      <point x="937" y="79"/>
      <point x="878" y="14" type="curve"/>
    </contour>
    <contour>
      <point x="528" y="-15" type="curve" smooth="yes"/>
      <point x="733" y="-15"/>
      <point x="846" y="103"/>
      <point x="846" y="312" type="curve" smooth="yes"/>
      <point x="846" y="527" type="line" smooth="yes"/>
      <point x="846" y="585"/>
      <point x="846" y="644"/>
      <point x="846" y="702" type="curve"/>
      <point x="707" y="702" type="line"/>
      <point x="707" y="654"/>
      <point x="707" y="585"/>
      <point x="707" y="526" type="curve" smooth="yes"/>
      <point x="707" y="342" type="line"/>
      <point x="711" y="313" type="line"/>
      <point x="710" y="181"/>
      <point x="650" y="119"/>
      <point x="530" y="119" type="curve" smooth="yes"/>
      <point x="408" y="119"/>
      <point x="353" y="190"/>
      <point x="353" y="321" type="curve" smooth="yes"/>
      <point x="353" y="501" type="line" smooth="yes"/>
      <point x="353" y="614"/>
      <point x="380" y="690"/>
      <point x="418" y="757" type="curve"/>
      <point x="281" y="757" type="line"/>
      <point x="255" y="708"/>
      <point x="237" y="665"/>
      <point x="218" y="594" type="curve"/>
      <point x="198" y="523" type="line"/>
      <point x="198" y="314" type="line" smooth="yes"/>
      <point x="198" y="103"/>
      <point x="306" y="-15"/>
    </contour>
    <contour>
      <point x="592" y="202" type="curve" smooth="yes"/>
      <point x="658" y="202"/>
      <point x="687" y="233"/>
      <point x="703" y="281" type="curve"/>
      <point x="732" y="281" type="line"/>
      <point x="707" y="404" type="line"/>
      <point x="707" y="359"/>
      <point x="688" y="326"/>
      <point x="651" y="326" type="curve" smooth="yes"/>
      <point x="612" y="326"/>
      <point x="597" y="354"/>
      <point x="597" y="410" type="curve" smooth="yes"/>
      <point x="597" y="535" type="line" smooth="yes"/>
      <point x="597" y="604"/>
      <point x="604" y="646"/>
      <point x="623" y="702" type="curve"/>
      <point x="490" y="702" type="line"/>
      <point x="469" y="651"/>
      <point x="458" y="600"/>
      <point x="458" y="534" type="curve" smooth="yes"/>
      <point x="458" y="381" type="line" smooth="yes"/>
      <point x="458" y="266"/>
      <point x="503" y="202"/>
    </contour>
  </outline>
</glyph>
<glyph name="Ma.or" format="2">
  <advance width="992"/>
  <unicode hex="0B2E"/>
  <anchor x="898" y="40" name="bottom"/>
  <anchor x="509" y="40" name="nukta"/>
  <anchor x="484" y="1724" name="top1"/>
  <anchor x="804" y="1436" name="top2"/>
  <outline>
    <contour>
      <point x="444" y="1393" type="curve" smooth="yes"/>
      <point x="204" y="1393"/>
      <point x="70" y="1227"/>
      <point x="70" y="961" type="curve" smooth="yes"/>
      <point x="70" y="842" type="line" smooth="yes"/>
      <point x="70" y="589"/>
      <point x="175" y="456"/>
      <point x="429" y="408" type="curve" smooth="yes"/>
      <point x="445" y="405"/>
      <point x="477" y="401"/>
      <point x="493" y="400" type="curve"/>
      <point x="605" y="522" type="line"/>
      <point x="587" y="522"/>
      <point x="559" y="523"/>
      <point x="527" y="528" type="curve" smooth="yes"/>
      <point x="308" y="563"/>
      <point x="232" y="669"/>
      <point x="232" y="849" type="curve" smooth="yes"/>
      <point x="232" y="960" type="line" smooth="yes"/>
      <point x="232" y="1142"/>
      <point x="310" y="1243"/>
      <point x="476" y="1243" type="curve" smooth="yes"/>
      <point x="647" y="1243"/>
      <point x="727" y="1137"/>
      <point x="742" y="963" type="curve"/>
      <point x="742" y="1176" type="line"/>
      <point x="718" y="1304"/>
      <point x="637" y="1393"/>
    </contour>
    <contour>
      <point x="257" y="0" type="line"/>
      <point x="773" y="638" type="line"/>
      <point x="769" y="835" type="line"/>
      <point x="479" y="503" type="line"/>
      <point x="436" y="460" type="line"/>
      <point x="52" y="0" type="line"/>
      <point x="52" y="0" type="line"/>
    </contour>
    <contour>
      <point x="742" y="0" type="line"/>
      <point x="898" y="0" type="line"/>
      <point x="898" y="1366" type="line"/>
      <point x="742" y="1366" type="line"/>
      <point x="748" y="1192" type="line"/>
      <point x="717" y="1192" type="line"/>
      <point x="742" y="1101" type="line"/>
    </contour>
  </outline>
</glyph>
<glyph name="Ya.or" format="2">
  <advance width="1041"/>
  <unicode hex="0B2F"/>
  <anchor x="947" y="40" name="bottom"/>
  <anchor x="577" y="40" name="nukta"/>
  <anchor x="509" y="1724" name="top1"/>
  <anchor x="853" y="1436" name="top2"/>
  <outline>
    <contour>
      <point x="36" y="187" type="line"/>
      <point x="318" y="440" type="line"/>
      <point x="407" y="516" type="line"/>
      <point x="575" y="669" type="line"/>
      <point x="575" y="848" type="line"/>
      <point x="308" y="615" type="line"/>
      <point x="241" y="556" type="line"/>
      <point x="36" y="378" type="line"/>
    </contour>
    <contour>
      <point x="791" y="0" type="line"/>
      <point x="947" y="0" type="line"/>
      <point x="947" y="1366" type="line"/>
      <point x="791" y="1366" type="line"/>
      <point x="797" y="1182" type="line"/>
      <point x="768" y="1182" type="line"/>
      <point x="793" y="1096" type="line"/>
      <point x="793" y="237" type="line"/>
      <point x="799" y="187" type="line"/>
    </contour>
    <contour>
      <point x="261" y="508" type="curve"/>
      <point x="355" y="626" type="line"/>
      <point x="254" y="669"/>
      <point x="232" y="738"/>
      <point x="232" y="846" type="curve" smooth="yes"/>
      <point x="232" y="958" type="line" smooth="yes"/>
      <point x="232" y="1141"/>
      <point x="321" y="1243"/>
      <point x="501" y="1243" type="curve" smooth="yes"/>
      <point x="689" y="1243"/>
      <point x="784" y="1124"/>
      <point x="793" y="932" type="curve"/>
      <point x="870" y="932" type="line"/>
      <point x="791" y="1166" type="line"/>
      <point x="765" y="1300"/>
      <point x="678" y="1393"/>
      <point x="467" y="1393" type="curve" smooth="yes"/>
      <point x="214" y="1393"/>
      <point x="70" y="1228"/>
      <point x="70" y="961" type="curve" smooth="yes"/>
      <point x="70" y="836" type="line" smooth="yes"/>
      <point x="70" y="674"/>
      <point x="130" y="565"/>
    </contour>
    <contour>
      <point x="553" y="-17" type="curve" smooth="yes"/>
      <point x="703" y="-17"/>
      <point x="766" y="55"/>
      <point x="788" y="158" type="curve"/>
      <point x="857" y="158" type="line"/>
      <point x="795" y="317" type="line"/>
      <point x="768" y="187"/>
      <point x="708" y="123"/>
      <point x="595" y="123" type="curve" smooth="yes"/>
      <point x="472" y="123"/>
      <point x="417" y="198"/>
      <point x="417" y="334" type="curve" smooth="yes"/>
      <point x="417" y="437" type="line" smooth="yes"/>
      <point x="417" y="498"/>
      <point x="422" y="527"/>
      <point x="450" y="560" type="curve"/>
      <point x="297" y="570" type="line"/>
      <point x="273" y="531"/>
      <point x="261" y="487"/>
      <point x="261" y="427" type="curve" smooth="yes"/>
      <point x="261" y="305" type="line" smooth="yes"/>
      <point x="261" y="110"/>
      <point x="354" y="-17"/>
    </contour>
  </outline>
</glyph>
<glyph name="Ra.or" format="2">
  <advance width="1092"/>
  <unicode hex="0B30"/>
  <anchor x="555" y="40" name="bottom"/>
  <anchor x="554" y="40" name="nukta"/>
  <anchor x="536" y="1725" name="top1"/>
  <anchor x="825" y="1436" name="top2"/>
  <outline>
    <contour>
      <point x="1132" y="-144" type="line"/>
      <point x="1132" y="20" type="line"/>
      <point x="914" y="92" type="line"/>
      <point x="923" y="63" type="line"/>
      <point x="983" y="114"/>
      <point x="1001" y="194"/>
      <point x="1001" y="296" type="curve" smooth="yes"/>
      <point x="1001" y="881" type="line" smooth="yes"/>
      <point x="1001" y="1210"/>
      <point x="839" y="1393"/>
      <point x="534" y="1393" type="curve" smooth="yes"/>
      <point x="235" y="1393"/>
      <point x="65" y="1215"/>
      <point x="65" y="917" type="curve" smooth="yes"/>
      <point x="65" y="793" type="line" smooth="yes"/>
      <point x="65" y="615"/>
      <point x="126" y="511"/>
      <point x="250" y="451" type="curve"/>
      <point x="316" y="588" type="line"/>
      <point x="246" y="631"/>
      <point x="225" y="691"/>
      <point x="225" y="790" type="curve" smooth="yes"/>
      <point x="225" y="918" type="line" smooth="yes"/>
      <point x="225" y="1127"/>
      <point x="325" y="1245"/>
      <point x="533" y="1245" type="curve" smooth="yes"/>
      <point x="746" y="1245"/>
      <point x="843" y="1114"/>
      <point x="843" y="881" type="curve" smooth="yes"/>
      <point x="843" y="261" type="line" smooth="yes"/>
      <point x="843" y="164"/>
      <point x="823" y="79"/>
      <point x="764" y="14" type="curve"/>
    </contour>
    <contour>
      <point x="458" y="-17" type="curve" smooth="yes"/>
      <point x="626" y="-17"/>
      <point x="710" y="79"/>
      <point x="710" y="260" type="curve" smooth="yes"/>
      <point x="710" y="486" type="line" smooth="yes"/>
      <point x="710" y="665"/>
      <point x="629" y="763"/>
      <point x="465" y="763" type="curve" smooth="yes"/>
      <point x="305" y="763"/>
      <point x="242" y="674"/>
      <point x="219" y="538" type="curve"/>
      <point x="207" y="510" type="line"/>
      <point x="206" y="498"/>
      <point x="206" y="484"/>
      <point x="206" y="472" type="curve" smooth="yes"/>
      <point x="206" y="260" type="line" smooth="yes"/>
      <point x="206" y="79"/>
      <point x="288" y="-17"/>
    </contour>
    <contour>
      <point x="458" y="117" type="curve" smooth="yes"/>
      <point x="388" y="117"/>
      <point x="362" y="165"/>
      <point x="362" y="258" type="curve" smooth="yes"/>
      <point x="362" y="487" type="line" smooth="yes"/>
      <point x="362" y="580"/>
      <point x="388" y="629"/>
      <point x="458" y="629" type="curve" smooth="yes"/>
      <point x="525" y="629"/>
      <point x="554" y="580"/>
      <point x="554" y="487" type="curve" smooth="yes"/>
      <point x="554" y="258" type="line" smooth="yes"/>
      <point x="554" y="165"/>
      <point x="525" y="117"/>
    </contour>
  </outline>
</glyph>
<glyph name="Va.or" format="2">
  <advance width="1090"/>
  <unicode hex="0B35"/>
  <anchor x="768" y="40" name="bottom"/>
  <anchor x="549" y="40" name="nukta"/>
  <anchor x="549" y="1725" name="top1"/>
  <anchor x="842" y="1436" name="top2"/>
  <outline>
    <contour>
      <point x="283" y="431" type="curve"/>
      <point x="335" y="578" type="line"/>
      <point x="248" y="622"/>
      <point x="225" y="685"/>
      <point x="225" y="790" type="curve" smooth="yes"/>
      <point x="225" y="920" type="line" smooth="yes"/>
      <point x="225" y="1130"/>
      <point x="333" y="1245"/>
      <point x="546" y="1245" type="curve" smooth="yes"/>
      <point x="763" y="1245"/>
      <point x="864" y="1124"/>
      <point x="864" y="912" type="curve" smooth="yes"/>
      <point x="864" y="736" type="line" smooth="yes"/>
      <point x="864" y="650"/>
      <point x="853" y="575"/>
      <point x="825" y="497" type="curve"/>
      <point x="979" y="516" type="line"/>
      <point x="1006" y="579"/>
      <point x="1023" y="661"/>
      <point x="1023" y="745" type="curve" smooth="yes"/>
      <point x="1023" y="912" type="line" smooth="yes"/>
      <point x="1023" y="1216"/>
      <point x="858" y="1393"/>
      <point x="546" y="1393" type="curve" smooth="yes"/>
      <point x="243" y="1393"/>
      <point x="65" y="1213"/>
      <point x="65" y="919" type="curve" smooth="yes"/>
      <point x="65" y="790" type="line" smooth="yes"/>
      <point x="65" y="605"/>
      <point x="129" y="495"/>
    </contour>
    <contour>
      <point x="614" y="0" type="line"/>
      <point x="768" y="0" type="line"/>
      <point x="768" y="488" type="line" smooth="yes"/>
      <point x="768" y="666"/>
      <point x="688" y="763"/>
      <point x="526" y="763" type="curve" smooth="yes"/>
      <point x="367" y="763"/>
      <point x="304" y="675"/>
      <point x="281" y="540" type="curve"/>
      <point x="269" y="470" type="line"/>
      <point x="269" y="344" type="line" smooth="yes"/>
      <point x="269" y="182"/>
      <point x="333" y="91"/>
      <point x="459" y="91" type="curve" smooth="yes"/>
      <point x="552" y="91"/>
      <point x="592" y="129"/>
      <point x="612" y="192" type="curve"/>
      <point x="618" y="192" type="line"/>
      <point x="614" y="64" type="line"/>
    </contour>
    <contour>
      <point x="520" y="222" type="curve" smooth="yes"/>
      <point x="450" y="222"/>
      <point x="424" y="268"/>
      <point x="424" y="354" type="curve" smooth="yes"/>
      <point x="424" y="497" type="line" smooth="yes"/>
      <point x="424" y="584"/>
      <point x="450" y="630"/>
      <point x="520" y="630" type="curve" smooth="yes"/>
      <point x="587" y="630"/>
      <point x="615" y="584"/>
      <point x="615" y="497" type="curve"/>
      <point x="615" y="354" type="line" smooth="yes"/>
      <point x="615" y="268"/>
      <point x="587" y="222"/>
    </contour>
    <contour>
      <point x="519" y="295" type="curve" smooth="yes"/>
      <point x="549" y="295"/>
      <point x="556" y="316"/>
      <point x="556" y="362" type="curve" smooth="yes"/>
      <point x="556" y="489" type="line" smooth="yes"/>
      <point x="556" y="535"/>
      <point x="549" y="557"/>
      <point x="519" y="557" type="curve" smooth="yes"/>
      <point x="490" y="557"/>
      <point x="483" y="535"/>
      <point x="483" y="489" type="curve" smooth="yes"/>
      <point x="483" y="362" type="line" smooth="yes"/>
      <point x="483" y="316"/>
      <point x="490" y="295"/>
    </contour>
  </outline>
</glyph>
<glyph name="Ssa.or" format="2">
  <advance width="1036"/>
  <unicode hex="0B37"/>
  <anchor x="942" y="40" name="bottom"/>
  <anchor x="574" y="40" name="nukta"/>
  <anchor x="505" y="1724" name="top1"/>
  <anchor x="848" y="1436" name="top2"/>
  <outline>
    <contour>
      <point x="257" y="459" type="curve"/>
      <point x="322" y="599" type="line"/>
      <point x="250" y="642"/>
      <point x="227" y="695"/>
      <point x="227" y="793" type="curve" smooth="yes"/>
      <point x="227" y="958" type="line" smooth="yes"/>
      <point x="227" y="1094"/>
      <point x="275" y="1186"/>
      <point x="377" y="1224" type="curve"/>
      <point x="424" y="1238" type="line"/>
      <point x="448" y="1243"/>
      <point x="473" y="1244"/>
      <point x="501" y="1244" type="curve" smooth="yes"/>
      <point x="684" y="1244"/>
      <point x="779" y="1122"/>
      <point x="788" y="930" type="curve"/>
      <point x="865" y="932" type="line"/>
      <point x="786" y="1166" type="line"/>
      <point x="760" y="1300"/>
      <point x="673" y="1393"/>
      <point x="464" y="1393" type="curve" smooth="yes"/>
      <point x="208" y="1393"/>
      <point x="65" y="1226"/>
      <point x="65" y="961" type="curve" smooth="yes"/>
      <point x="65" y="794" type="line" smooth="yes"/>
      <point x="65" y="625"/>
      <point x="124" y="521"/>
    </contour>
    <contour>
      <point x="539" y="-17" type="curve" smooth="yes"/>
      <point x="693" y="-17"/>
      <point x="761" y="56"/>
      <point x="783" y="158" type="curve"/>
      <point x="852" y="158" type="line"/>
      <point x="790" y="317" type="line"/>
      <point x="770" y="187"/>
      <point x="711" y="123"/>
      <point x="584" y="123" type="curve" smooth="yes"/>
      <point x="452" y="123"/>
      <point x="396" y="200"/>
      <point x="396" y="331" type="curve" smooth="yes"/>
      <point x="396" y="430" type="line" smooth="yes"/>
      <point x="396" y="542"/>
      <point x="444" y="614"/>
      <point x="546" y="636" type="curve" smooth="yes"/>
      <point x="569" y="641"/>
      <point x="580" y="642"/>
      <point x="592" y="642" type="curve"/>
      <point x="566" y="787" type="line"/>
      <point x="551" y="786"/>
      <point x="541" y="785"/>
      <point x="516" y="780" type="curve" smooth="yes"/>
      <point x="400" y="756"/>
      <point x="316" y="685"/>
      <point x="274" y="586" type="curve"/>
      <point x="254" y="533" type="line"/>
      <point x="237" y="490"/>
      <point x="236" y="466"/>
      <point x="236" y="427" type="curve" smooth="yes"/>
      <point x="236" y="313" type="line" smooth="yes"/>
      <point x="236" y="113"/>
      <point x="335" y="-17"/>
    </contour>
    <contour>
      <point x="691" y="104" type="line"/>
      <point x="800" y="192" type="line"/>
      <point x="461" y="1294" type="line"/>
      <point x="327" y="1266" type="line"/>
    </contour>
    <contour>
      <point x="786" y="0" type="line"/>
      <point x="942" y="0" type="line"/>
      <point x="942" y="1366" type="line"/>
      <point x="786" y="1366" type="line"/>
      <point x="792" y="1182" type="line"/>
      <point x="763" y="1182" type="line"/>
      <point x="788" y="1096" type="line"/>
      <point x="788" y="224" type="line"/>
      <point x="794" y="187" type="line"/>
    </contour>
  </outline>
</glyph>
<glyph name="Sa.or" format="2">
  <advance width="986"/>
  <unicode hex="0B38"/>
  <anchor x="892" y="40" name="bottom"/>
  <anchor x="530" y="40" name="nukta"/>
  <anchor x="482" y="1724" name="top1"/>
  <anchor x="798" y="1436" name="top2"/>
  <outline>
    <contour>
      <point x="736" y="1366" type="line"/>
      <point x="742" y="1192" type="line"/>
      <point x="711" y="1192" type="line"/>
      <point x="737" y="1083" type="line"/>
      <point x="737" y="820" type="line"/>
      <point x="736" y="117" type="line"/>
      <point x="777" y="152" type="line"/>
      <point x="335" y="308" type="line"/>
      <point x="335" y="319" type="line"/>
      <point x="772" y="696" type="line"/>
      <point x="772" y="883" type="line"/>
      <point x="415" y="578" type="line"/>
      <point x="363" y="534" type="line"/>
      <point x="144" y="348" type="line"/>
      <point x="144" y="218" type="line"/>
      <point x="748" y="0" type="line"/>
      <point x="892" y="0" type="line"/>
      <point x="892" y="1366" type="line"/>
    </contour>
    <contour>
      <point x="483" y="586" type="line"/>
      <point x="296" y="624"/>
      <point x="226" y="730"/>
      <point x="226" y="895" type="curve" smooth="yes"/>
      <point x="226" y="960" type="line" smooth="yes"/>
      <point x="226" y="1142"/>
      <point x="304" y="1243"/>
      <point x="470" y="1243" type="curve" smooth="yes"/>
      <point x="642" y="1243"/>
      <point x="722" y="1137"/>
      <point x="737" y="961" type="curve"/>
      <point x="834" y="959" type="line"/>
      <point x="736" y="1176" type="line"/>
      <point x="712" y="1304"/>
      <point x="631" y="1393"/>
      <point x="438" y="1393" type="curve" smooth="yes"/>
      <point x="198" y="1393"/>
      <point x="64" y="1227"/>
      <point x="64" y="961" type="curve" smooth="yes"/>
      <point x="64" y="891" type="line" smooth="yes"/>
      <point x="64" y="658"/>
      <point x="161" y="537"/>
      <point x="369" y="478" type="curve"/>
    </contour>
  </outline>
</glyph>
<glyph name="Nukta.or" format="2">
  <unicode hex="0B3C"/>
  <anchor x="-572" y="40" name="_nukta"/>
  <outline>
    <contour>
      <point x="-572" y="-324" type="curve" smooth="yes"/>
      <point x="-516" y="-324"/>
      <point x="-489" y="-287"/>
      <point x="-489" y="-221" type="curve" smooth="yes"/>
      <point x="-489" y="-203" type="line" smooth="yes"/>
      <point x="-489" y="-137"/>
      <point x="-516" y="-99"/>
      <point x="-572" y="-99" type="curve" smooth="yes"/>
      <point x="-628" y="-99"/>
      <point x="-655" y="-137"/>
      <point x="-655" y="-203" type="curve" smooth="yes"/>
      <point x="-655" y="-221" type="line" smooth="yes"/>
      <point x="-655" y="-287"/>
      <point x="-628" y="-324"/>
    </contour>
  </outline>
</glyph>
<glyph name="Avagraha.or" format="2">
  <advance width="587"/>
  <unicode hex="0B3D"/>
  <outline>
    <contour>
      <point x="64" y="1044" type="line"/>
      <point x="513" y="1394" type="line"/>
      <point x="513" y="1198" type="line"/>
      <point x="173" y="936" type="line"/>
      <point x="173" y="1019" type="line"/>
      <point x="502" y="749" type="line"/>
      <point x="502" y="610" type="line"/>
      <point x="173" y="350" type="line"/>
      <point x="173" y="429" type="line"/>
      <point x="513" y="170" type="line"/>
      <point x="513" y="-26" type="line"/>
      <point x="63" y="316" type="line"/>
      <point x="63" y="458" type="line"/>
      <point x="351" y="685" type="line"/>
      <point x="351" y="674" type="line"/>
      <point x="64" y="902" type="line"/>
    </contour>
  </outline>
</glyph>
<glyph name="MatraI.or" format="2">
  <unicode hex="0B3F"/>
  <anchor x="-548" y="1725" name="_top1"/>
  <outline>
    <contour>
      <point x="-957" y="1439" type="line"/>
      <point x="-849" y="1512"/>
      <point x="-720" y="1567"/>
      <point x="-548" y="1567" type="curve" smooth="yes"/>
      <point x="-378" y="1567"/>
      <point x="-248" y="1512"/>
      <point x="-140" y="1439" type="curve"/>
      <point x="-150" y="1587" type="line"/>
      <point x="-249" y="1661"/>
      <point x="-381" y="1709"/>
      <point x="-548" y="1709" type="curve" smooth="yes"/>
      <point x="-715" y="1709"/>
      <point x="-849" y="1660"/>
      <point x="-948" y="1587" type="curve"/>
    </contour>
  </outline>
</glyph>
<glyph name="MatraIi.or" format="2">
  <advance width="516"/>
  <unicode hex="0B40"/>
  <outline>
    <contour>
      <point x="265" y="0" type="line"/>
      <point x="421" y="0" type="line"/>
      <point x="422" y="1366" type="line"/>
      <point x="263" y="1366" type="line"/>
      <point x="23" y="1077" type="line"/>
      <point x="23" y="855" type="line"/>
      <point x="31" y="855" type="line"/>
      <point x="257" y="1145" type="line"/>
      <point x="265" y="1145" type="line"/>
    </contour>
  </outline>
</glyph>
<glyph name="MatraU.or" format="2">
  <unicode hex="0B41"/>
  <anchor x="-94" y="40" name="_bottom"/>
  <outline>
    <contour>
      <point x="-355" y="-609" type="curve" smooth="yes"/>
      <point x="-209" y="-609"/>
      <point x="-140" y="-540"/>
      <point x="-120" y="-379" type="curve"/>
      <point x="-109" y="-341" type="line"/>
      <point x="-105" y="-326" type="line"/>
      <point x="-98" y="-236"/>
      <point x="-94" y="-129"/>
      <point x="-94" y="4" type="curve" smooth="yes"/>
      <point x="-94" y="215" type="line"/>
      <point x="-250" y="215" type="line"/>
      <point x="-250" y="4" type="line" smooth="yes"/>
      <point x="-250" y="-113"/>
      <point x="-250" y="-170"/>
      <point x="-250" y="-228" type="curve"/>
      <point x="-255" y="-267" type="line"/>
      <point x="-255" y="-349" type="line"/>
      <point x="-255" y="-443"/>
      <point x="-287" y="-484"/>
      <point x="-347" y="-484" type="curve" smooth="yes"/>
      <point x="-399" y="-484"/>
      <point x="-427" y="-447"/>
      <point x="-427" y="-385" type="curve" smooth="yes"/>
      <point x="-427" y="-368" type="line" smooth="yes"/>
      <point x="-427" y="-310"/>
      <point x="-401" y="-275"/>
      <point x="-354" y="-275" type="curve" smooth="yes"/>
      <point x="-308" y="-275"/>
      <point x="-279" y="-302"/>
      <point x="-241" y="-351" type="curve"/>
      <point x="-205" y="-237" type="line"/>
      <point x="-256" y="-182"/>
      <point x="-298" y="-150"/>
      <point x="-384" y="-150" type="curve" smooth="yes"/>
      <point x="-505" y="-150"/>
      <point x="-577" y="-225"/>
      <point x="-577" y="-368" type="curve" smooth="yes"/>
      <point x="-577" y="-391" type="line" smooth="yes"/>
      <point x="-577" y="-534"/>
      <point x="-500" y="-609"/>
    </contour>
    <contour>
      <point x="127" y="-611" type="curve"/>
      <point x="127" y="-451" type="line"/>
      <point x="27" y="-414"/>
      <point x="-68" y="-353"/>
      <point x="-146" y="-267" type="curve"/>
      <point x="-199" y="-388" type="line"/>
      <point x="-113" y="-482"/>
      <point x="-3" y="-562"/>
    </contour>
  </outline>
</glyph>
<glyph name="MatraVocalicRr.or" format="2">
  <unicode hex="0B44"/>
  <anchor x="-94" y="40" name="_bottom"/>
  <outline>
    <contour>
      <point x="-155" y="-702" type="curve" smooth="yes"/>
      <point x="-13" y="-702"/>
      <point x="74" y="-635"/>
      <point x="74" y="-521" type="curve" smooth="yes"/>
      <point x="74" y="-514" type="line" smooth="yes"/>
      <point x="74" y="-413"/>
      <point x="13" y="-356"/>
      <point x="-89" y="-356" type="curve" smooth="yes"/>
      <point x="-114" y="-356"/>
      <point x="-137" y="-360"/>
      <point x="-157" y="-369" type="curve"/>
      <point x="-157" y="-471" type="line"/>
      <point x="-147" y="-467"/>
      <point x="-134" y="-464"/>
      <point x="-120" y="-464" type="curve" smooth="yes"/>
      <point x="-80" y="-464"/>
      <point x="-56" y="-481"/>
      <point x="-56" y="-517" type="curve" smooth="yes"/>
      <point x="-56" y="-521" type="line" smooth="yes"/>
      <point x="-56" y="-561"/>
      <point x="-91" y="-585"/>
      <point x="-148" y="-585" type="curve" smooth="yes"/>
      <point x="-226" y="-585"/>
      <point x="-268" y="-548"/>
      <point x="-268" y="-483" type="curve" smooth="yes"/>
      <point x="-268" y="-478" type="line" smooth="yes"/>
      <point x="-268" y="-423"/>
      <point x="-240" y="-388"/>
      <point x="-188" y="-381" type="curve"/>
      <point x="-188" y="-275" type="line"/>
      <point x="-237" y="-271"/>
      <point x="-263" y="-251"/>
      <point x="-263" y="-220" type="curve" smooth="yes"/>
      <point x="-263" y="-218" type="line" smooth="yes"/>
      <point x="-263" y="-180"/>
      <point x="-236" y="-161"/>
      <point x="-180" y="-161" type="curve" smooth="yes"/>
      <point x="-148" y="-161"/>
      <point x="-122" y="-166"/>
      <point x="-99" y="-173" type="curve"/>
      <point x="-109" y="-66" type="line"/>
      <point x="-136" y="-56"/>
      <point x="-174" y="-49"/>
      <point x="-217" y="-49" type="curve" smooth="yes"/>
      <point x="-330" y="-49"/>
      <point x="-393" y="-106"/>
      <point x="-393" y="-193" type="curve" smooth="yes"/>
      <point x="-393" y="-199" type="line" smooth="yes"/>
      <point x="-393" y="-260"/>
      <point x="-358" y="-300"/>
      <point x="-305" y="-318" type="curve"/>
      <point x="-305" y="-322" type="line"/>
      <point x="-368" y="-353"/>
      <point x="-399" y="-406"/>
      <point x="-399" y="-488" type="curve" smooth="yes"/>
      <point x="-399" y="-497" type="line" smooth="yes"/>
      <point x="-399" y="-625"/>
      <point x="-308" y="-702"/>
    </contour>
  </outline>
</glyph>
<glyph name="MatraE.or" format="2">
  <advance width="696"/>
  <unicode hex="0B47"/>
  <outline>
    <contour>
      <point x="366" y="-20" type="curve" smooth="yes"/>
      <point x="556" y="-20"/>
      <point x="648" y="92"/>
      <point x="648" y="310" type="curve" smooth="yes"/>
      <point x="648" y="531" type="line" smooth="yes"/>
      <point x="648" y="720"/>
      <point x="584" y="831"/>
      <point x="434" y="831" type="curve" smooth="yes"/>
      <point x="326" y="831"/>
      <point x="274" y="780"/>
      <point x="249" y="705" type="curve"/>
      <point x="211" y="705" type="line"/>
      <point x="238" y="548" type="line"/>
      <point x="249" y="629"/>
      <point x="294" y="681"/>
      <point x="368" y="681" type="curve" smooth="yes"/>
      <point x="455" y="681"/>
      <point x="487" y="622"/>
      <point x="487" y="511" type="curve" smooth="yes"/>
      <point x="487" y="306" type="line" smooth="yes"/>
      <point x="487" y="188"/>
      <point x="453" y="132"/>
      <point x="367" y="132" type="curve" smooth="yes"/>
      <point x="276" y="132"/>
      <point x="240" y="188"/>
      <point x="240" y="306" type="curve" smooth="yes"/>
      <point x="240" y="977" type="line" smooth="yes"/>
      <point x="240" y="1157"/>
      <point x="295" y="1242"/>
      <point x="431" y="1242" type="curve" smooth="yes"/>
      <point x="509" y="1242"/>
      <point x="568" y="1216"/>
      <point x="617" y="1184" type="curve"/>
      <point x="603" y="1338" type="line"/>
      <point x="562" y="1364"/>
      <point x="492" y="1391"/>
      <point x="398" y="1391" type="curve" smooth="yes"/>
      <point x="182" y="1391"/>
      <point x="77" y="1248"/>
      <point x="77" y="989" type="curve" smooth="yes"/>
      <point x="77" y="315" type="line" smooth="yes"/>
      <point x="77" y="92"/>
      <point x="172" y="-20"/>
    </contour>
  </outline>
</glyph>
<glyph name="Virama.or" format="2">
  <unicode hex="0B4D"/>
  <anchor x="-94" y="40" name="_bottom"/>
  <outline>
    <contour>
      <point x="-245" y="-112" type="line"/>
      <point x="-245" y="-97" type="line"/>
      <point x="-94" y="-97" type="line"/>
      <point x="93" y="-477" type="line"/>
      <point x="93" y="-485" type="line"/>
      <point x="-40" y="-485" type="line"/>
    </contour>
  </outline>
</glyph>
<glyph name="LengthmarkAi.or" format="2">
  <unicode hex="0B56"/>
  <outline>
    <contour>
      <point x="-762" y="1800" type="line"/>
      <point x="-761" y="1772" type="line" smooth="yes"/>
      <point x="-758" y="1700"/>
      <point x="-713" y="1670"/>
      <point x="-618" y="1669" type="curve" smooth="yes"/>
      <point x="-387" y="1666" type="line" smooth="yes"/>
      <point x="-186" y="1663"/>
      <point x="-94" y="1591"/>
      <point x="-94" y="1436" type="curve" smooth="yes"/>
      <point x="-94" y="1429" type="line"/>
      <point x="-247" y="1429" type="line"/>
      <point x="-248" y="1441" type="line" smooth="yes"/>
      <point x="-253" y="1498"/>
      <point x="-292" y="1528"/>
      <point x="-392" y="1529" type="curve" smooth="yes"/>
      <point x="-625" y="1532" type="line" smooth="yes"/>
      <point x="-823" y="1535"/>
      <point x="-916" y="1604"/>
      <point x="-916" y="1768" type="curve" smooth="yes"/>
      <point x="-916" y="1800" type="line"/>
    </contour>
  </outline>
</glyph>
<glyph name="LengthmarkAu.or" format="2">
  <advance width="344"/>
  <unicode hex="0B57"/>
  <outline>
    <contour>
      <point x="94" y="0" type="line"/>
      <point x="250" y="0" type="line"/>
      <point x="250" y="1355" type="line" smooth="yes"/>
      <point x="250" y="1574"/>
      <point x="157" y="1665"/>
      <point x="-67" y="1667" type="curve" smooth="yes"/>
      <point x="-274" y="1669" type="line" smooth="yes"/>
      <point x="-369" y="1670"/>
      <point x="-414" y="1700"/>
      <point x="-417" y="1772" type="curve" smooth="yes"/>
      <point x="-418" y="1800" type="line"/>
      <point x="-572" y="1800" type="line"/>
      <point x="-572" y="1768" type="line" smooth="yes"/>
      <point x="-572" y="1604"/>
      <point x="-479" y="1533"/>
      <point x="-280" y="1531" type="curve" smooth="yes"/>
      <point x="-72" y="1529" type="line" smooth="yes"/>
      <point x="54" y="1528"/>
      <point x="94" y="1474"/>
      <point x="94" y="1353" type="curve" smooth="yes"/>
    </contour>
  </outline>
</glyph>
<glyph name="Yya.or" format="2">
  <advance width="1041"/>
  <unicode hex="0B5F"/>
  <anchor x="968" y="-183" name="bottom"/>
  <anchor x="509" y="1724" name="top1"/>
  <anchor x="853" y="1436" name="top2"/>
  <outline>
    <contour>
      <point x="1089" y="-366" type="line"/>
      <point x="1089" y="-202" type="line"/>
      <point x="852" y="-115" type="line"/>
      <point x="848" y="-154" type="line"/>
      <point x="876" y="-144" type="line"/>
      <point x="994" y="-134"/>
      <point x="1039" y="-67"/>
      <point x="1039" y="50" type="curve" smooth="yes"/>
      <point x="1039" y="150" type="line" smooth="yes"/>
      <point x="1039" y="268"/>
      <point x="999" y="325"/>
      <point x="926" y="346" type="curve"/>
      <point x="835" y="354" type="line"/>
      <point x="770" y="350"/>
      <point x="732" y="318"/>
      <point x="667" y="247" type="curve" smooth="yes"/>
      <point x="605" y="179"/>
      <point x="574" y="134"/>
      <point x="510" y="134" type="curve" smooth="yes"/>
      <point x="451" y="134"/>
      <point x="417" y="180"/>
      <point x="417" y="280" type="curve" smooth="yes"/>
      <point x="417" y="437" type="line" smooth="yes"/>
      <point x="417" y="498"/>
      <point x="422" y="527"/>
      <point x="450" y="560" type="curve"/>
      <point x="297" y="570" type="line"/>
      <point x="273" y="531"/>
      <point x="261" y="487"/>
      <point x="261" y="427" type="curve"/>
      <point x="261" y="261" type="line" smooth="yes"/>
      <point x="261" y="84"/>
      <point x="342" y="-14"/>
      <point x="489" y="-14" type="curve" smooth="yes"/>
      <point x="599" y="-14"/>
      <point x="646" y="33"/>
      <point x="706" y="95" type="curve" smooth="yes"/>
      <point x="777" y="168"/>
      <point x="796" y="211"/>
      <point x="839" y="211" type="curve" smooth="yes"/>
      <point x="874" y="211"/>
      <point x="887" y="187"/>
      <point x="887" y="141" type="curve" smooth="yes"/>
      <point x="887" y="47" type="line" smooth="yes"/>
      <point x="887" y="-37"/>
      <point x="860" y="-82"/>
      <point x="778" y="-85" type="curve" smooth="yes"/>
      <point x="752" y="-86" type="line"/>
      <point x="752" y="-201" type="line"/>
    </contour>
    <contour>
      <point x="36" y="187" type="line"/>
      <point x="318" y="440" type="line"/>
      <point x="407" y="516" type="line"/>
      <point x="575" y="669" type="line"/>
      <point x="575" y="848" type="line"/>
      <point x="308" y="615" type="line"/>
      <point x="241" y="556" type="line"/>
      <point x="36" y="378" type="line"/>
    </contour>
    <contour>
      <point x="261" y="508" type="curve"/>
      <point x="355" y="626" type="line"/>
      <point x="254" y="669"/>
      <point x="232" y="738"/>
      <point x="232" y="846" type="curve" smooth="yes"/>
      <point x="232" y="958" type="line" smooth="yes"/>
      <point x="232" y="1141"/>
      <point x="321" y="1243"/>
      <point x="501" y="1243" type="curve" smooth="yes"/>
      <point x="689" y="1243"/>
      <point x="784" y="1124"/>
      <point x="793" y="932" type="curve"/>
      <point x="870" y="932" type="line"/>
      <point x="791" y="1166" type="line"/>
      <point x="765" y="1300"/>
      <point x="678" y="1393"/>
      <point x="467" y="1393" type="curve" smooth="yes"/>
      <point x="214" y="1393"/>
      <point x="70" y="1228"/>
      <point x="70" y="961" type="curve" smooth="yes"/>
      <point x="70" y="836" type="line" smooth="yes"/>
      <point x="70" y="674"/>
      <point x="130" y="565"/>
    </contour>
    <contour>
      <point x="793" y="245" type="line"/>
      <point x="947" y="245" type="line"/>
      <point x="947" y="1366" type="line"/>
      <point x="791" y="1366" type="line"/>
      <point x="797" y="1182" type="line"/>
      <point x="768" y="1182" type="line"/>
      <point x="793" y="1096" type="line"/>
    </contour>
  </outline>
</glyph>
<glyph name="VocalicRr.or" format="2">
  <advance width="1140"/>
  <unicode hex="0B60"/>
  <anchor x="555" y="1725" name="top1"/>
  <anchor x="874" y="1436" name="top2"/>
  <outline>
    <contour>
      <point x="1131" y="-144" type="line"/>
      <point x="1131" y="20" type="line"/>
      <point x="894" y="107" type="line"/>
      <point x="891" y="65" type="line"/>
      <point x="928" y="79" type="line"/>
      <point x="1032" y="84"/>
      <point x="1081" y="142"/>
      <point x="1081" y="234" type="curve" smooth="yes"/>
      <point x="1081" y="247" type="line" smooth="yes"/>
      <point x="1081" y="326"/>
      <point x="1050" y="381"/>
      <point x="968" y="394" type="curve"/>
      <point x="968" y="398" type="line"/>
      <point x="1048" y="410"/>
      <point x="1079" y="462"/>
      <point x="1079" y="539" type="curve" smooth="yes"/>
      <point x="1079" y="551" type="line" smooth="yes"/>
      <point x="1079" y="641"/>
      <point x="1042" y="695"/>
      <point x="955" y="707" type="curve"/>
      <point x="951" y="683" type="line"/>
      <point x="1020" y="709"/>
      <point x="1042" y="771"/>
      <point x="1042" y="862" type="curve" smooth="yes"/>
      <point x="1042" y="907" type="line" smooth="yes"/>
      <point x="1042" y="1213"/>
      <point x="869" y="1393"/>
      <point x="554" y="1393" type="curve" smooth="yes"/>
      <point x="246" y="1393"/>
      <point x="65" y="1211"/>
      <point x="65" y="914" type="curve" smooth="yes"/>
      <point x="65" y="793" type="line" smooth="yes"/>
      <point x="65" y="618"/>
      <point x="125" y="511"/>
      <point x="269" y="450" type="curve"/>
      <point x="331" y="590" type="line"/>
      <point x="247" y="632"/>
      <point x="225" y="691"/>
      <point x="225" y="790" type="curve" smooth="yes"/>
      <point x="225" y="914" type="line" smooth="yes"/>
      <point x="225" y="1128"/>
      <point x="335" y="1245"/>
      <point x="554" y="1245" type="curve" smooth="yes"/>
      <point x="775" y="1245"/>
      <point x="884" y="1123"/>
      <point x="884" y="908" type="curve" smooth="yes"/>
      <point x="884" y="836" type="line" smooth="yes"/>
      <point x="884" y="772"/>
      <point x="867" y="736"/>
      <point x="819" y="731" type="curve" smooth="yes"/>
      <point x="801" y="729" type="line"/>
      <point x="801" y="614" type="line"/>
      <point x="835" y="612" type="line" smooth="yes"/>
      <point x="905" y="608"/>
      <point x="928" y="580"/>
      <point x="928" y="531" type="curve" smooth="yes"/>
      <point x="928" y="522" type="line" smooth="yes"/>
      <point x="928" y="468"/>
      <point x="904" y="443"/>
      <point x="838" y="438" type="curve" smooth="yes"/>
      <point x="810" y="436" type="line"/>
      <point x="810" y="321" type="line"/>
      <point x="839" y="319" type="line" smooth="yes"/>
      <point x="905" y="314"/>
      <point x="929" y="288"/>
      <point x="929" y="233" type="curve" smooth="yes"/>
      <point x="929" y="226" type="line" smooth="yes"/>
      <point x="929" y="171"/>
      <point x="903" y="140"/>
      <point x="823" y="137" type="curve" smooth="yes"/>
      <point x="794" y="136" type="line"/>
      <point x="794" y="21" type="line"/>
    </contour>
    <contour>
      <point x="465" y="-17" type="curve" smooth="yes"/>
      <point x="633" y="-17"/>
      <point x="717" y="79"/>
      <point x="717" y="260" type="curve" smooth="yes"/>
      <point x="717" y="486" type="line" smooth="yes"/>
      <point x="717" y="665"/>
      <point x="636" y="763"/>
      <point x="472" y="763" type="curve" smooth="yes"/>
      <point x="312" y="763"/>
      <point x="249" y="676"/>
      <point x="226" y="538" type="curve"/>
      <point x="214" y="510" type="line"/>
      <point x="213" y="498"/>
      <point x="213" y="484"/>
      <point x="213" y="472" type="curve" smooth="yes"/>
      <point x="213" y="260" type="line" smooth="yes"/>
      <point x="213" y="79"/>
      <point x="295" y="-17"/>
    </contour>
    <contour>
      <point x="465" y="117" type="curve" smooth="yes"/>
      <point x="395" y="117"/>
      <point x="369" y="165"/>
      <point x="369" y="258" type="curve" smooth="yes"/>
      <point x="369" y="487" type="line" smooth="yes"/>
      <point x="369" y="580"/>
      <point x="395" y="629"/>
      <point x="465" y="629" type="curve" smooth="yes"/>
      <point x="532" y="629"/>
      <point x="561" y="580"/>
      <point x="561" y="487" type="curve" smooth="yes"/>
      <point x="561" y="258" type="line" smooth="yes"/>
      <point x="561" y="165"/>
      <point x="532" y="117"/>
    </contour>
  </outline>
</glyph>
<glyph name="VocalicLl.or" format="2">
  <advance width="916"/>
  <unicode hex="0B61"/>
  <anchor x="701" y="1436" name="top2"/>
  <outline>
    <contour>
      <point x="473" y="-7" type="curve" smooth="yes"/>
      <point x="552" y="-7"/>
      <point x="610" y="5"/>
      <point x="659" y="26" type="curve"/>
      <point x="739" y="78" type="line"/>
      <point x="822" y="126"/>
      <point x="866" y="218"/>
      <point x="866" y="344" type="curve" smooth="yes"/>
      <point x="866" y="452" type="line" smooth="yes"/>
      <point x="866" y="614"/>
      <point x="790" y="699"/>
      <point x="642" y="699" type="curve" smooth="yes"/>
      <point x="500" y="699"/>
      <point x="417" y="616"/>
      <point x="417" y="459" type="curve" smooth="yes"/>
      <point x="417" y="309" type="line" smooth="yes"/>
      <point x="417" y="201"/>
      <point x="458" y="139"/>
      <point x="534" y="103" type="curve"/>
      <point x="645" y="146" type="line"/>
      <point x="599" y="177"/>
      <point x="567" y="214"/>
      <point x="567" y="294" type="curve" smooth="yes"/>
      <point x="567" y="458" type="line" smooth="yes"/>
      <point x="567" y="534"/>
      <point x="588" y="572"/>
      <point x="642" y="572" type="curve" smooth="yes"/>
      <point x="695" y="572"/>
      <point x="716" y="534"/>
      <point x="716" y="458" type="curve" smooth="yes"/>
      <point x="716" y="349" type="line" smooth="yes"/>
      <point x="716" y="250"/>
      <point x="690" y="179"/>
      <point x="617" y="150" type="curve"/>
      <point x="576" y="138" type="line"/>
      <point x="540" y="132"/>
      <point x="515" y="130"/>
      <point x="478" y="130" type="curve" smooth="yes"/>
      <point x="306" y="130"/>
      <point x="230" y="219"/>
      <point x="230" y="378" type="curve" smooth="yes"/>
      <point x="230" y="455" type="line" smooth="yes"/>
      <point x="230" y="582"/>
      <point x="267" y="646"/>
      <point x="388" y="724" type="curve" smooth="yes"/>
      <point x="490" y="790" type="line" smooth="yes"/>
      <point x="647" y="892"/>
      <point x="722" y="953"/>
      <point x="722" y="1114" type="curve" smooth="yes"/>
      <point x="722" y="1139" type="line" smooth="yes"/>
      <point x="722" y="1300"/>
      <point x="628" y="1390"/>
      <point x="452" y="1390" type="curve" smooth="yes"/>
      <point x="282" y="1390"/>
      <point x="184" y="1298"/>
      <point x="184" y="1137" type="curve" smooth="yes"/>
      <point x="184" y="1117" type="line" smooth="yes"/>
      <point x="184" y="1065"/>
      <point x="192" y="1033"/>
      <point x="208" y="990" type="curve"/>
      <point x="357" y="990" type="line"/>
      <point x="343" y="1032"/>
      <point x="336" y="1062"/>
      <point x="336" y="1112" type="curve" smooth="yes"/>
      <point x="336" y="1128" type="line" smooth="yes"/>
      <point x="336" y="1211"/>
      <point x="373" y="1258"/>
      <point x="453" y="1258" type="curve" smooth="yes"/>
      <point x="528" y="1258"/>
      <point x="566" y="1215"/>
      <point x="566" y="1131" type="curve" smooth="yes"/>
      <point x="566" y="1106" type="line" smooth="yes"/>
      <point x="566" y="1013"/>
      <point x="506" y="965"/>
      <point x="401" y="898" type="curve" smooth="yes"/>
      <point x="309" y="839" type="line" smooth="yes"/>
      <point x="147" y="735"/>
      <point x="65" y="648"/>
      <point x="65" y="455" type="curve" smooth="yes"/>
      <point x="65" y="367" type="line" smooth="yes"/>
      <point x="65" y="128"/>
      <point x="209" y="-7"/>
    </contour>
    <contour>
      <point x="890" y="-86" type="curve"/>
      <point x="890" y="42" type="line"/>
      <point x="835" y="54"/>
      <point x="772" y="71"/>
      <point x="721" y="96" type="curve"/>
      <point x="604" y="28" type="line"/>
      <point x="667" y="-20"/>
      <point x="789" y="-70"/>
    </contour>
  </outline>
</glyph>
<glyph name="MatraVocalicL.or" format="2">
  <unicode hex="0B62"/>
  <outline>
    <contour>
      <point x="-97" y="-678" type="curve" smooth="yes"/>
      <point x="29" y="-678"/>
      <point x="106" y="-613"/>
      <point x="106" y="-495" type="curve" smooth="yes"/>
      <point x="106" y="-449" type="line" smooth="yes"/>
      <point x="106" y="-370"/>
      <point x="64" y="-327"/>
      <point x="-13" y="-327" type="curve" smooth="yes"/>
      <point x="-88" y="-327"/>
      <point x="-134" y="-368"/>
      <point x="-134" y="-452" type="curve" smooth="yes"/>
      <point x="-134" y="-503" type="line" smooth="yes"/>
      <point x="-134" y="-560"/>
      <point x="-111" y="-586"/>
      <point x="-60" y="-613" type="curve"/>
      <point x="-3" y="-590" type="line"/>
      <point x="-30" y="-574"/>
      <point x="-47" y="-556"/>
      <point x="-47" y="-510" type="curve" smooth="yes"/>
      <point x="-47" y="-447" type="line" smooth="yes"/>
      <point x="-47" y="-418"/>
      <point x="-37" y="-401"/>
      <point x="-14" y="-401" type="curve" smooth="yes"/>
      <point x="10" y="-401"/>
      <point x="19" y="-418"/>
      <point x="19" y="-447" type="curve" smooth="yes"/>
      <point x="19" y="-496" type="line" smooth="yes"/>
      <point x="19" y="-539"/>
      <point x="8" y="-571"/>
      <point x="-27" y="-585" type="curve"/>
      <point x="-47" y="-591" type="line"/>
      <point x="-65" y="-594"/>
      <point x="-77" y="-595"/>
      <point x="-95" y="-595" type="curve" smooth="yes"/>
      <point x="-175" y="-595"/>
      <point x="-211" y="-553"/>
      <point x="-211" y="-480" type="curve" smooth="yes"/>
      <point x="-211" y="-456" type="line" smooth="yes"/>
      <point x="-211" y="-392"/>
      <point x="-190" y="-361"/>
      <point x="-132" y="-324" type="curve" smooth="yes"/>
      <point x="-87" y="-295" type="line" smooth="yes"/>
      <point x="-7" y="-244"/>
      <point x="34" y="-216"/>
      <point x="34" y="-139" type="curve" smooth="yes"/>
      <point x="34" y="-128" type="line" smooth="yes"/>
      <point x="34" y="-47"/>
      <point x="-17" y="-1"/>
      <point x="-106" y="-1" type="curve" smooth="yes"/>
      <point x="-199" y="-1"/>
      <point x="-248" y="-48"/>
      <point x="-248" y="-129" type="curve" smooth="yes"/>
      <point x="-248" y="-136" type="line" smooth="yes"/>
      <point x="-248" y="-160"/>
      <point x="-244" y="-178"/>
      <point x="-236" y="-198" type="curve"/>
      <point x="-147" y="-198" type="line"/>
      <point x="-155" y="-176"/>
      <point x="-158" y="-162"/>
      <point x="-158" y="-143" type="curve" smooth="yes"/>
      <point x="-158" y="-137" type="line" smooth="yes"/>
      <point x="-158" y="-100"/>
      <point x="-142" y="-80"/>
      <point x="-107" y="-80" type="curve" smooth="yes"/>
      <point x="-77" y="-80"/>
      <point x="-60" y="-98"/>
      <point x="-60" y="-133" type="curve" smooth="yes"/>
      <point x="-60" y="-140" type="line" smooth="yes"/>
      <point x="-60" y="-180"/>
      <point x="-88" y="-198"/>
      <point x="-140" y="-230" type="curve" smooth="yes"/>
      <point x="-180" y="-255" type="line" smooth="yes"/>
      <point x="-266" y="-309"/>
      <point x="-311" y="-351"/>
      <point x="-311" y="-458" type="curve" smooth="yes"/>
      <point x="-311" y="-485" type="line" smooth="yes"/>
      <point x="-311" y="-607"/>
      <point x="-234" y="-678"/>
    </contour>
  </outline>
</glyph>
<glyph name="MatraVocalicLl.or" format="2">
  <unicode hex="0B63"/>
  <anchor x="-94" y="40" name="_bottom"/>
  <outline>
    <contour>
      <point x="-178" y="-726" type="curve" smooth="yes"/>
      <point x="-135" y="-726"/>
      <point x="-98" y="-717"/>
      <point x="-67" y="-700" type="curve"/>
      <point x="-37" y="-679" type="line"/>
      <point x="3" y="-649"/>
      <point x="25" y="-604"/>
      <point x="25" y="-543" type="curve" smooth="yes"/>
      <point x="25" y="-497" type="line" smooth="yes"/>
      <point x="25" y="-418"/>
      <point x="-17" y="-375"/>
      <point x="-94" y="-375" type="curve" smooth="yes"/>
      <point x="-169" y="-375"/>
      <point x="-215" y="-416"/>
      <point x="-215" y="-500" type="curve" smooth="yes"/>
      <point x="-215" y="-551" type="line" smooth="yes"/>
      <point x="-215" y="-608"/>
      <point x="-192" y="-634"/>
      <point x="-141" y="-661" type="curve"/>
      <point x="-84" y="-638" type="line"/>
      <point x="-111" y="-622"/>
      <point x="-128" y="-604"/>
      <point x="-128" y="-558" type="curve" smooth="yes"/>
      <point x="-128" y="-495" type="line" smooth="yes"/>
      <point x="-128" y="-466"/>
      <point x="-118" y="-449"/>
      <point x="-95" y="-449" type="curve" smooth="yes"/>
      <point x="-71" y="-449"/>
      <point x="-62" y="-466"/>
      <point x="-62" y="-495" type="curve" smooth="yes"/>
      <point x="-62" y="-544" type="line" smooth="yes"/>
      <point x="-62" y="-587"/>
      <point x="-73" y="-619"/>
      <point x="-108" y="-633" type="curve"/>
      <point x="-128" y="-639" type="line"/>
      <point x="-146" y="-642"/>
      <point x="-158" y="-643"/>
      <point x="-176" y="-643" type="curve" smooth="yes"/>
      <point x="-256" y="-643"/>
      <point x="-292" y="-601"/>
      <point x="-292" y="-528" type="curve" smooth="yes"/>
      <point x="-292" y="-504" type="line" smooth="yes"/>
      <point x="-292" y="-440"/>
      <point x="-271" y="-409"/>
      <point x="-213" y="-372" type="curve" smooth="yes"/>
      <point x="-168" y="-343" type="line" smooth="yes"/>
      <point x="-88" y="-292"/>
      <point x="-47" y="-264"/>
      <point x="-47" y="-187" type="curve" smooth="yes"/>
      <point x="-47" y="-176" type="line" smooth="yes"/>
      <point x="-47" y="-95"/>
      <point x="-98" y="-49"/>
      <point x="-187" y="-49" type="curve" smooth="yes"/>
      <point x="-280" y="-49"/>
      <point x="-329" y="-96"/>
      <point x="-329" y="-177" type="curve" smooth="yes"/>
      <point x="-329" y="-184" type="line" smooth="yes"/>
      <point x="-329" y="-208"/>
      <point x="-325" y="-226"/>
      <point x="-317" y="-246" type="curve"/>
      <point x="-228" y="-246" type="line"/>
      <point x="-236" y="-224"/>
      <point x="-239" y="-210"/>
      <point x="-239" y="-191" type="curve" smooth="yes"/>
      <point x="-239" y="-185" type="line" smooth="yes"/>
      <point x="-239" y="-148"/>
      <point x="-223" y="-128"/>
      <point x="-188" y="-128" type="curve" smooth="yes"/>
      <point x="-158" y="-128"/>
      <point x="-141" y="-146"/>
      <point x="-141" y="-181" type="curve" smooth="yes"/>
      <point x="-141" y="-188" type="line" smooth="yes"/>
      <point x="-141" y="-228"/>
      <point x="-169" y="-246"/>
      <point x="-221" y="-278" type="curve" smooth="yes"/>
      <point x="-261" y="-303" type="line" smooth="yes"/>
      <point x="-347" y="-357"/>
      <point x="-392" y="-399"/>
      <point x="-392" y="-506" type="curve" smooth="yes"/>
      <point x="-392" y="-533" type="line" smooth="yes"/>
      <point x="-392" y="-655"/>
      <point x="-315" y="-726"/>
    </contour>
    <contour>
      <point x="45" y="-766" type="curve"/>
      <point x="45" y="-685" type="line"/>
      <point x="13" y="-678"/>
      <point x="-20" y="-669"/>
      <point x="-49" y="-657" type="curve"/>
      <point x="-117" y="-699" type="line"/>
      <point x="-70" y="-729"/>
      <point x="-12" y="-754"/>
    </contour>
  </outline>
</glyph>
<glyph name="zero.or" format="2">
  <advance width="747"/>
  <unicode hex="0B66"/>
  <outline>
    <contour>
      <point x="71" y="1031" type="curve" smooth="yes"/>
      <point x="71" y="343" type="line" smooth="yes"/>
      <point x="71" y="101"/>
      <point x="174" y="-15"/>
      <point x="373" y="-15" type="curve" smooth="yes"/>
      <point x="573" y="-15"/>
      <point x="676" y="100"/>
      <point x="676" y="343" type="curve" smooth="yes"/>
      <point x="676" y="1031" type="line" smooth="yes"/>
      <point x="676" y="1274"/>
      <point x="574" y="1390"/>
      <point x="373" y="1390" type="curve" smooth="yes"/>
      <point x="173" y="1390"/>
      <point x="71" y="1274"/>
    </contour>
    <contour>
      <point x="231" y="332" type="curve" smooth="yes"/>
      <point x="231" y="1044" type="line" smooth="yes"/>
      <point x="231" y="1180"/>
      <point x="275" y="1245"/>
      <point x="373" y="1245" type="curve" smooth="yes"/>
      <point x="472" y="1245"/>
      <point x="516" y="1180"/>
      <point x="516" y="1044" type="curve" smooth="yes"/>
      <point x="516" y="332" type="line" smooth="yes"/>
      <point x="516" y="196"/>
      <point x="472" y="131"/>
      <point x="373" y="131" type="curve" smooth="yes"/>
      <point x="275" y="131"/>
      <point x="231" y="195"/>
    </contour>
  </outline>
</glyph>
<glyph name="one.or" format="2">
  <advance width="685"/>
  <unicode hex="0B67"/>
  <outline>
    <contour>
      <point x="344" y="1390" type="curve" smooth="yes"/>
      <point x="536" y="1390"/>
      <point x="628" y="1278"/>
      <point x="628" y="1064" type="curve" smooth="yes"/>
      <point x="628" y="852" type="line" smooth="yes"/>
      <point x="628" y="656"/>
      <point x="560" y="550"/>
      <point x="408" y="550" type="curve" smooth="yes"/>
      <point x="314" y="550"/>
      <point x="263" y="591"/>
      <point x="239" y="659" type="curve"/>
      <point x="224" y="659" type="line"/>
      <point x="229" y="840" type="line"/>
      <point x="236" y="744"/>
      <point x="278" y="691"/>
      <point x="356" y="691" type="curve" smooth="yes"/>
      <point x="437" y="691"/>
      <point x="468" y="748"/>
      <point x="468" y="854" type="curve" smooth="yes"/>
      <point x="468" y="1071" type="line" smooth="yes"/>
      <point x="468" y="1186"/>
      <point x="434" y="1245"/>
      <point x="350" y="1245" type="curve" smooth="yes"/>
      <point x="265" y="1245"/>
      <point x="231" y="1186"/>
      <point x="231" y="1071" type="curve" smooth="yes"/>
      <point x="231" y="751" type="line"/>
      <point x="231" y="715" type="line"/>
      <point x="231" y="477" type="line"/>
      <point x="231" y="252"/>
      <point x="328" y="147"/>
      <point x="518" y="147" type="curve" smooth="yes"/>
      <point x="600" y="147" type="line"/>
      <point x="576" y="-3" type="line"/>
      <point x="487" y="-3" type="line" smooth="yes"/>
      <point x="220" y="-3"/>
      <point x="71" y="152"/>
      <point x="71" y="477" type="curve" smooth="yes"/>
      <point x="71" y="1064" type="line" smooth="yes"/>
      <point x="71" y="1280"/>
      <point x="158" y="1390"/>
    </contour>
  </outline>
</glyph>
<glyph name="two.or" format="2">
  <advance width="685"/>
  <unicode hex="0B68"/>
  <outline>
    <contour>
      <point x="345" y="1390" type="curve" smooth="yes"/>
      <point x="531" y="1390"/>
      <point x="618" y="1280"/>
      <point x="618" y="1064" type="curve" smooth="yes"/>
      <point x="618" y="477" type="line" smooth="yes"/>
      <point x="618" y="152"/>
      <point x="469" y="-3"/>
      <point x="202" y="-3" type="curve" smooth="yes"/>
      <point x="113" y="-3" type="line"/>
      <point x="89" y="147" type="line"/>
      <point x="171" y="147" type="line" smooth="yes"/>
      <point x="361" y="147"/>
      <point x="458" y="252"/>
      <point x="458" y="477" type="curve" smooth="yes"/>
      <point x="458" y="715" type="line"/>
      <point x="458" y="751" type="line"/>
      <point x="458" y="1071" type="line" smooth="yes"/>
      <point x="458" y="1186"/>
      <point x="424" y="1245"/>
      <point x="339" y="1245" type="curve" smooth="yes"/>
      <point x="255" y="1245"/>
      <point x="221" y="1186"/>
      <point x="221" y="1071" type="curve" smooth="yes"/>
      <point x="221" y="854" type="line" smooth="yes"/>
      <point x="221" y="748"/>
      <point x="252" y="691"/>
      <point x="333" y="691" type="curve" smooth="yes"/>
      <point x="411" y="691"/>
      <point x="453" y="744"/>
      <point x="460" y="840" type="curve"/>
      <point x="465" y="659" type="line"/>
      <point x="450" y="659" type="line"/>
      <point x="426" y="591"/>
      <point x="375" y="550"/>
      <point x="281" y="550" type="curve" smooth="yes"/>
      <point x="129" y="550"/>
      <point x="61" y="656"/>
      <point x="61" y="852" type="curve" smooth="yes"/>
      <point x="61" y="1064" type="line" smooth="yes"/>
      <point x="61" y="1278"/>
      <point x="153" y="1390"/>
    </contour>
  </outline>
</glyph>
<glyph name="three.or" format="2">
  <advance width="1034"/>
  <unicode hex="0B69"/>
  <outline>
    <contour>
      <point x="305" y="1390" type="curve" smooth="yes"/>
      <point x="148" y="1390"/>
      <point x="59" y="1291"/>
      <point x="59" y="1097" type="curve" smooth="yes"/>
      <point x="59" y="799" type="line" smooth="yes"/>
      <point x="59" y="625"/>
      <point x="125" y="527"/>
      <point x="264" y="527" type="curve" smooth="yes"/>
      <point x="352" y="527"/>
      <point x="399" y="566"/>
      <point x="421" y="636" type="curve"/>
      <point x="436" y="636" type="line"/>
      <point x="429" y="793" type="line"/>
      <point x="427" y="713"/>
      <point x="390" y="668"/>
      <point x="321" y="668" type="curve" smooth="yes"/>
      <point x="247" y="668"/>
      <point x="219" y="716"/>
      <point x="219" y="805" type="curve" smooth="yes"/>
      <point x="219" y="1111" type="line" smooth="yes"/>
      <point x="219" y="1195"/>
      <point x="248" y="1245"/>
      <point x="322" y="1245" type="curve" smooth="yes"/>
      <point x="397" y="1245"/>
      <point x="428" y="1195"/>
      <point x="428" y="1111" type="curve" smooth="yes"/>
      <point x="428" y="737" type="line"/>
      <point x="429" y="708" type="line"/>
      <point x="428" y="599" type="line"/>
      <point x="428" y="0" type="line"/>
      <point x="587" y="0" type="line"/>
      <point x="587" y="1109" type="line" smooth="yes"/>
      <point x="587" y="1197"/>
      <point x="616" y="1245"/>
      <point x="687" y="1245" type="curve" smooth="yes"/>
      <point x="757" y="1245"/>
      <point x="784" y="1197"/>
      <point x="784" y="1111" type="curve" smooth="yes"/>
      <point x="784" y="0" type="line"/>
      <point x="943" y="0" type="line"/>
      <point x="943" y="1097" type="line" smooth="yes"/>
      <point x="943" y="1295"/>
      <point x="874" y="1390"/>
      <point x="709" y="1390" type="curve" smooth="yes"/>
      <point x="607" y="1390"/>
      <point x="538" y="1342"/>
      <point x="511" y="1249" type="curve"/>
      <point x="506" y="1249" type="line"/>
      <point x="482" y="1344"/>
      <point x="416" y="1390"/>
    </contour>
  </outline>
</glyph>
<glyph name="four.or" format="2">
  <advance width="769"/>
  <unicode hex="0B6A"/>
  <outline>
    <contour>
      <point x="430" y="767" type="line"/>
      <point x="806" y="1363" type="line"/>
      <point x="806" y="1364" type="line"/>
      <point x="629" y="1364" type="line"/>
      <point x="321" y="859" type="line"/>
    </contour>
    <contour>
      <point x="319" y="822" type="line"/>
      <point x="438" y="901" type="line"/>
      <point x="145" y="1365" type="line"/>
      <point x="-37" y="1365" type="line"/>
      <point x="-37" y="1363" type="line"/>
    </contour>
    <contour>
      <point x="387" y="-15" type="curve" smooth="yes"/>
      <point x="583" y="-15"/>
      <point x="683" y="98"/>
      <point x="683" y="304" type="curve" smooth="yes"/>
      <point x="683" y="392" type="line" smooth="yes"/>
      <point x="683" y="518"/>
      <point x="634" y="611"/>
      <point x="559" y="731" type="curve" smooth="yes"/>
      <point x="462" y="887" type="line"/>
      <point x="363" y="770" type="line"/>
      <point x="449" y="625" type="line" smooth="yes"/>
      <point x="493" y="551"/>
      <point x="523" y="481"/>
      <point x="523" y="393" type="curve" smooth="yes"/>
      <point x="523" y="306" type="line" smooth="yes"/>
      <point x="523" y="194"/>
      <point x="481" y="131"/>
      <point x="387" y="131" type="curve" smooth="yes"/>
      <point x="292" y="131"/>
      <point x="250" y="193"/>
      <point x="250" y="306" type="curve" smooth="yes"/>
      <point x="250" y="393" type="line" smooth="yes"/>
      <point x="250" y="479"/>
      <point x="276" y="548"/>
      <point x="324" y="623" type="curve" smooth="yes"/>
      <point x="422" y="775" type="line"/>
      <point x="309" y="875" type="line"/>
      <point x="217" y="732" type="line" smooth="yes"/>
      <point x="141" y="614"/>
      <point x="90" y="522"/>
      <point x="90" y="392" type="curve" smooth="yes"/>
      <point x="90" y="305" type="line" smooth="yes"/>
      <point x="90" y="99"/>
      <point x="191" y="-15"/>
    </contour>
  </outline>
</glyph>
<glyph name="five.or" format="2">
  <advance width="927"/>
  <unicode hex="0B6B"/>
  <outline>
    <contour>
      <point x="456" y="637" type="curve"/>
      <point x="536" y="604"/>
      <point x="585" y="559"/>
      <point x="585" y="442" type="curve" smooth="yes"/>
      <point x="585" y="302" type="line" smooth="yes"/>
      <point x="585" y="186"/>
      <point x="546" y="131"/>
      <point x="460" y="131" type="curve" smooth="yes"/>
      <point x="375" y="131"/>
      <point x="336" y="185"/>
      <point x="336" y="302" type="curve" smooth="yes"/>
      <point x="336" y="438" type="line" smooth="yes"/>
      <point x="336" y="556"/>
      <point x="376" y="603"/>
    </contour>
    <contour>
      <point x="478" y="756" type="curve"/>
      <point x="396" y="781"/>
      <point x="351" y="827"/>
      <point x="351" y="951" type="curve" smooth="yes"/>
      <point x="351" y="1076" type="line" smooth="yes"/>
      <point x="351" y="1190"/>
      <point x="389" y="1245"/>
      <point x="474" y="1245" type="curve" smooth="yes"/>
      <point x="560" y="1245"/>
      <point x="598" y="1190"/>
      <point x="598" y="1076" type="curve" smooth="yes"/>
      <point x="598" y="951" type="line" smooth="yes"/>
      <point x="598" y="836"/>
      <point x="558" y="788"/>
    </contour>
    <contour>
      <point x="474" y="1390" type="curve" smooth="yes"/>
      <point x="287" y="1390"/>
      <point x="191" y="1285"/>
      <point x="191" y="1073" type="curve" smooth="yes"/>
      <point x="191" y="979" type="line" smooth="yes"/>
      <point x="191" y="850"/>
      <point x="215" y="808"/>
      <point x="294" y="752" type="curve"/>
      <point x="321" y="688" type="line"/>
      <point x="209" y="639"/>
      <point x="176" y="550"/>
      <point x="176" y="423" type="curve" smooth="yes"/>
      <point x="176" y="302" type="line" smooth="yes"/>
      <point x="176" y="91"/>
      <point x="273" y="-15"/>
      <point x="460" y="-15" type="curve" smooth="yes"/>
      <point x="648" y="-15"/>
      <point x="745" y="90"/>
      <point x="745" y="302" type="curve" smooth="yes"/>
      <point x="745" y="419" type="line" smooth="yes"/>
      <point x="745" y="550"/>
      <point x="714" y="591"/>
      <point x="592" y="647" type="curve"/>
      <point x="596" y="705" type="line"/>
      <point x="722" y="732"/>
      <point x="758" y="829"/>
      <point x="758" y="954" type="curve" smooth="yes"/>
      <point x="758" y="1074" type="line" smooth="yes"/>
      <point x="758" y="1284"/>
      <point x="662" y="1390"/>
    </contour>
    <contour>
      <point x="924" y="480" type="line"/>
      <point x="924" y="627" type="line"/>
      <point x="560" y="753" type="line"/>
      <point x="586" y="602" type="line"/>
    </contour>
    <contour>
      <point x="3" y="902" type="line"/>
      <point x="3" y="755" type="line"/>
      <point x="341" y="637" type="line"/>
      <point x="359" y="767" type="line"/>
    </contour>
  </outline>
</glyph>
<glyph name="six.or" format="2">
  <advance width="785"/>
  <unicode hex="0B6C"/>
  <outline>
    <contour>
      <point x="376" y="1245" type="curve" smooth="yes"/>
      <point x="500" y="1245"/>
      <point x="557" y="1160"/>
      <point x="557" y="990" type="curve" smooth="yes"/>
      <point x="557" y="569" type="line" smooth="yes"/>
      <point x="557" y="283"/>
      <point x="439" y="147"/>
      <point x="177" y="147" type="curve" smooth="yes"/>
      <point x="95" y="147" type="line"/>
      <point x="113" y="-3" type="line"/>
      <point x="196" y="-3" type="line" smooth="yes"/>
      <point x="537" y="-3"/>
      <point x="717" y="185"/>
      <point x="717" y="564" type="curve" smooth="yes"/>
      <point x="717" y="974" type="line" smooth="yes"/>
      <point x="717" y="1256"/>
      <point x="604" y="1389"/>
      <point x="383" y="1390" type="curve" smooth="yes"/>
      <point x="235" y="1391"/>
      <point x="112" y="1299"/>
      <point x="74" y="1162" type="curve"/>
      <point x="74" y="1041" type="line"/>
      <point x="186" y="1030"/>
      <point x="246" y="1002"/>
      <point x="246" y="888" type="curve" smooth="yes"/>
      <point x="246" y="766" type="line" smooth="yes"/>
      <point x="246" y="680"/>
      <point x="212" y="641"/>
      <point x="148" y="641" type="curve" smooth="yes"/>
      <point x="106" y="641"/>
      <point x="68" y="661"/>
      <point x="42" y="682" type="curve"/>
      <point x="49" y="546" type="line"/>
      <point x="81" y="523"/>
      <point x="127" y="505"/>
      <point x="184" y="505" type="curve" smooth="yes"/>
      <point x="317" y="505"/>
      <point x="398" y="591"/>
      <point x="398" y="759" type="curve" smooth="yes"/>
      <point x="398" y="880" type="line" smooth="yes"/>
      <point x="398" y="1084"/>
      <point x="308" y="1141"/>
      <point x="138" y="1161" type="curve"/>
      <point x="197" y="1096" type="line"/>
      <point x="221" y="1184"/>
      <point x="277" y="1245"/>
    </contour>
  </outline>
</glyph>
<glyph name="seven.or" format="2">
  <advance width="866"/>
  <unicode hex="0B6D"/>
  <outline>
    <contour>
      <point x="425" y="1390" type="curve" smooth="yes"/>
      <point x="677" y="1390"/>
      <point x="798" y="1249"/>
      <point x="798" y="968" type="curve" smooth="yes"/>
      <point x="798" y="564" type="line" smooth="yes"/>
      <point x="798" y="186"/>
      <point x="618" y="-3"/>
      <point x="277" y="-3" type="curve" smooth="yes"/>
      <point x="179" y="-3" type="line"/>
      <point x="161" y="147" type="line"/>
      <point x="258" y="147" type="line" smooth="yes"/>
      <point x="519" y="147"/>
      <point x="638" y="284"/>
      <point x="638" y="569" type="curve" smooth="yes"/>
      <point x="638" y="975" type="line" smooth="yes"/>
      <point x="638" y="1154"/>
      <point x="571" y="1245"/>
      <point x="422" y="1245" type="curve" smooth="yes"/>
      <point x="273" y="1245"/>
      <point x="204" y="1157"/>
      <point x="204" y="979" type="curve" smooth="yes"/>
      <point x="204" y="916" type="line"/>
      <point x="205" y="904" type="line"/>
      <point x="205" y="725" type="line" smooth="yes"/>
      <point x="205" y="659"/>
      <point x="227" y="619"/>
      <point x="281" y="619" type="curve" smooth="yes"/>
      <point x="337" y="619"/>
      <point x="357" y="659"/>
      <point x="357" y="725" type="curve" smooth="yes"/>
      <point x="357" y="846" type="line" smooth="yes"/>
      <point x="357" y="915"/>
      <point x="337" y="952"/>
      <point x="284" y="952" type="curve" smooth="yes"/>
      <point x="233" y="952"/>
      <point x="207" y="917"/>
      <point x="201" y="856" type="curve"/>
      <point x="200" y="994" type="line"/>
      <point x="211" y="994" type="line"/>
      <point x="229" y="1047"/>
      <point x="276" y="1081"/>
      <point x="347" y="1081" type="curve" smooth="yes"/>
      <point x="454" y="1081"/>
      <point x="504" y="1001"/>
      <point x="504" y="849" type="curve" smooth="yes"/>
      <point x="504" y="729" type="line" smooth="yes"/>
      <point x="504" y="571"/>
      <point x="432" y="486"/>
      <point x="278" y="486" type="curve" smooth="yes"/>
      <point x="131" y="486"/>
      <point x="57" y="567"/>
      <point x="57" y="742" type="curve" smooth="yes"/>
      <point x="57" y="978" type="line" smooth="yes"/>
      <point x="57" y="1243"/>
      <point x="182" y="1390"/>
    </contour>
  </outline>
</glyph>
<glyph name="eight.or" format="2">
  <advance width="651"/>
  <unicode hex="0B6E"/>
  <outline>
    <contour>
      <point x="254" y="0" type="line"/>
      <point x="94" y="0" type="line"/>
      <point x="94" y="1365" type="line"/>
      <point x="621" y="1365" type="line"/>
      <point x="621" y="1221" type="line"/>
      <point x="254" y="1221" type="line"/>
    </contour>
  </outline>
</glyph>
<glyph name="nine.or" format="2">
  <advance width="751"/>
  <unicode hex="0B6F"/>
  <outline>
    <contour>
      <point x="681" y="680" type="line"/>
      <point x="681" y="1365" type="line"/>
      <point x="525" y="1365" type="line"/>
      <point x="525" y="1085" type="line" smooth="yes"/>
      <point x="525" y="1000"/>
      <point x="530" y="908"/>
      <point x="532" y="833" type="curve"/>
      <point x="579" y="833" type="line"/>
      <point x="227" y="1367" type="line"/>
      <point x="72" y="1367" type="line"/>
      <point x="71" y="1102"/>
      <point x="71" y="1029"/>
      <point x="71" y="795" type="curve" smooth="yes"/>
      <point x="71" y="548" type="line" smooth="yes"/>
      <point x="71" y="181"/>
      <point x="238" y="-3"/>
      <point x="576" y="-3" type="curve" smooth="yes"/>
      <point x="643" y="-3" type="line"/>
      <point x="661" y="145" type="line"/>
      <point x="589" y="145" type="line" smooth="yes"/>
      <point x="359" y="145"/>
      <point x="231" y="281"/>
      <point x="231" y="548" type="curve" smooth="yes"/>
      <point x="231" y="794" type="line" smooth="yes"/>
      <point x="231" y="931"/>
      <point x="227" y="1066"/>
      <point x="223" y="1217" type="curve"/>
      <point x="159" y="1217" type="line"/>
      <point x="527" y="680" type="line"/>
    </contour>
  </outline>
</glyph>
<glyph name="Isshar.or" format="2">
  <advance width="981"/>
  <unicode hex="0B70"/>
  <outline>
    <contour>
      <point x="186" y="874" type="line"/>
      <point x="430" y="165" type="line"/>
      <point x="445" y="165" type="line"/>
      <point x="796" y="1396" type="line"/>
      <point x="951" y="1396" type="line"/>
      <point x="550" y="0" type="line"/>
      <point x="332" y="0" type="line"/>
      <point x="30" y="874" type="line"/>
    </contour>
    <contour>
      <point x="425" y="750" type="curve" smooth="yes"/>
      <point x="481" y="750"/>
      <point x="508" y="787"/>
      <point x="508" y="853" type="curve" smooth="yes"/>
      <point x="508" y="871" type="line" smooth="yes"/>
      <point x="508" y="937"/>
      <point x="481" y="975"/>
      <point x="425" y="975" type="curve" smooth="yes"/>
      <point x="369" y="975"/>
      <point x="342" y="937"/>
      <point x="342" y="871" type="curve" smooth="yes"/>
      <point x="342" y="853" type="line" smooth="yes"/>
      <point x="342" y="787"/>
      <point x="369" y="750"/>
    </contour>
  </outline>
</glyph>
<glyph name="Wa.or" format="2">
  <advance width="913"/>
  <unicode hex="0B71"/>
  <anchor x="772" y="53" name="bottom"/>
  <anchor x="1064" y="11" name="rasmall"/>
  <anchor x="461" y="1725" name="top1"/>
  <outline>
    <contour>
      <point x="386" y="1031" type="curve"/>
      <point x="529" y="1023" type="line"/>
      <point x="521" y="1059"/>
      <point x="517" y="1090"/>
      <point x="517" y="1128" type="curve" smooth="yes"/>
      <point x="517" y="1151" type="line" smooth="yes"/>
      <point x="517" y="1225"/>
      <point x="542" y="1264"/>
      <point x="601" y="1264" type="curve" smooth="yes"/>
      <point x="657" y="1264"/>
      <point x="683" y="1225"/>
      <point x="683" y="1151" type="curve" smooth="yes"/>
      <point x="683" y="1090" type="line" smooth="yes"/>
      <point x="683" y="968"/>
      <point x="640" y="912"/>
      <point x="500" y="907" type="curve" smooth="yes"/>
      <point x="473" y="906" type="line"/>
      <point x="473" y="773" type="line"/>
      <point x="501" y="773" type="line" smooth="yes"/>
      <point x="565" y="773"/>
      <point x="625" y="783"/>
      <point x="672" y="805" type="curve"/>
      <point x="726" y="851" type="line"/>
      <point x="802" y="897"/>
      <point x="835" y="967"/>
      <point x="835" y="1092" type="curve" smooth="yes"/>
      <point x="835" y="1146" type="line" smooth="yes"/>
      <point x="835" y="1306"/>
      <point x="759" y="1394"/>
      <point x="604" y="1394" type="curve" smooth="yes"/>
      <point x="449" y="1394"/>
      <point x="373" y="1304"/>
      <point x="373" y="1157" type="curve" smooth="yes"/>
      <point x="373" y="1137" type="line" smooth="yes"/>
      <point x="373" y="1096"/>
      <point x="378" y="1066"/>
    </contour>
    <contour>
      <point x="478" y="396" type="curve" smooth="yes"/>
      <point x="719" y="396"/>
      <point x="845" y="514"/>
      <point x="845" y="680" type="curve" smooth="yes"/>
      <point x="845" y="693" type="line" smooth="yes"/>
      <point x="845" y="794"/>
      <point x="802" y="861"/>
      <point x="719" y="899" type="curve"/>
      <point x="604" y="829" type="line"/>
      <point x="655" y="803"/>
      <point x="686" y="766"/>
      <point x="686" y="695" type="curve" smooth="yes"/>
      <point x="686" y="686" type="line" smooth="yes"/>
      <point x="686" y="604"/>
      <point x="625" y="542"/>
      <point x="486" y="542" type="curve" smooth="yes"/>
      <point x="305" y="542"/>
      <point x="233" y="657"/>
      <point x="233" y="838" type="curve" smooth="yes"/>
      <point x="233" y="1022" type="line" smooth="yes"/>
      <point x="233" y="1153"/>
      <point x="240" y="1245"/>
      <point x="298" y="1373" type="curve"/>
      <point x="143" y="1373" type="line"/>
      <point x="87" y="1255"/>
      <point x="77" y="1151"/>
      <point x="77" y="1018" type="curve" smooth="yes"/>
      <point x="77" y="824" type="line" smooth="yes"/>
      <point x="77" y="550"/>
      <point x="205" y="396"/>
    </contour>
    <contour>
      <point x="313" y="324" type="curve" smooth="yes"/>
      <point x="313" y="342" type="line" smooth="yes"/>
      <point x="313" y="380"/>
      <point x="323" y="412"/>
      <point x="346" y="442" type="curve"/>
      <point x="224" y="523" type="line"/>
      <point x="179" y="470"/>
      <point x="157" y="410"/>
      <point x="157" y="338" type="curve" smooth="yes"/>
      <point x="157" y="309" type="line" smooth="yes"/>
      <point x="157" y="133"/>
      <point x="245" y="42"/>
      <point x="412" y="42" type="curve" smooth="yes"/>
      <point x="529" y="42"/>
      <point x="590" y="87"/>
      <point x="617" y="160" type="curve"/>
      <point x="623" y="160" type="line"/>
      <point x="618" y="70" type="line"/>
      <point x="618" y="-17" type="line"/>
      <point x="772" y="-17" type="line"/>
      <point x="772" y="517" type="line"/>
      <point x="617" y="507" type="line"/>
      <point x="617" y="242" type="line"/>
      <point x="624" y="302" type="line"/>
      <point x="606" y="238"/>
      <point x="557" y="177"/>
      <point x="462" y="177" type="curve" smooth="yes"/>
      <point x="359" y="177"/>
      <point x="313" y="232"/>
    </contour>
  </outline>
</glyph>
<glyph name="onehalf.or" format="2">
  <advance width="635"/>
  <unicode hex="0B73"/>
  <outline>
    <contour>
      <point x="219" y="1191" type="curve"/>
      <point x="65" y="1191" type="line"/>
      <point x="65" y="1129"/>
      <point x="65" y="1049"/>
      <point x="65" y="986" type="curve" smooth="yes"/>
      <point x="65" y="800" type="line" smooth="yes"/>
      <point x="65" y="638"/>
      <point x="119" y="552"/>
      <point x="248" y="552" type="curve" smooth="yes"/>
      <point x="322" y="552"/>
      <point x="363" y="587"/>
      <point x="380" y="648" type="curve"/>
      <point x="427" y="648" type="line"/>
      <point x="387" y="795" type="line"/>
      <point x="383" y="724"/>
      <point x="357" y="686"/>
      <point x="303" y="686" type="curve" smooth="yes"/>
      <point x="242" y="686"/>
      <point x="219" y="729"/>
      <point x="219" y="805" type="curve" smooth="yes"/>
      <point x="219" y="1011" type="line" smooth="yes"/>
      <point x="219" y="1074"/>
      <point x="219" y="1127"/>
    </contour>
    <contour>
      <point x="385" y="0" type="line"/>
      <point x="541" y="0" type="line"/>
      <point x="541" y="1191" type="line"/>
      <point x="387" y="1191" type="line"/>
      <point x="387" y="717" type="line"/>
      <point x="387" y="708" type="line"/>
      <point x="385" y="462" type="line"/>
    </contour>
  </outline>
</glyph>
<glyph name="threequarter.or" format="2">
  <advance width="940"/>
  <unicode hex="0B74"/>
  <outline>
    <contour>
      <point x="533" y="1191" type="curve"/>
      <point x="379" y="1191" type="line"/>
      <point x="379" y="1129"/>
      <point x="379" y="1049"/>
      <point x="379" y="986" type="curve" smooth="yes"/>
      <point x="379" y="787" type="line" smooth="yes"/>
      <point x="379" y="631"/>
      <point x="432" y="552"/>
      <point x="555" y="552" type="curve" smooth="yes"/>
      <point x="628" y="552"/>
      <point x="667" y="587"/>
      <point x="685" y="648" type="curve"/>
      <point x="732" y="648" type="line"/>
      <point x="692" y="790" type="line"/>
      <point x="688" y="722"/>
      <point x="663" y="686"/>
      <point x="612" y="686" type="curve" smooth="yes"/>
      <point x="555" y="686"/>
      <point x="533" y="727"/>
      <point x="533" y="800" type="curve" smooth="yes"/>
      <point x="533" y="1011" type="line" smooth="yes"/>
      <point x="533" y="1074"/>
      <point x="533" y="1127"/>
    </contour>
    <contour>
      <point x="690" y="0" type="line"/>
      <point x="846" y="0" type="line"/>
      <point x="846" y="1191" type="line"/>
      <point x="692" y="1191" type="line"/>
      <point x="692" y="717" type="line"/>
      <point x="692" y="708" type="line"/>
      <point x="690" y="462" type="line"/>
    </contour>
    <contour>
      <point x="219" y="1191" type="curve"/>
      <point x="65" y="1191" type="line"/>
      <point x="65" y="1129"/>
      <point x="65" y="1049"/>
      <point x="65" y="986" type="curve" smooth="yes"/>
      <point x="65" y="793" type="line" smooth="yes"/>
      <point x="65" y="631"/>
      <point x="124" y="552"/>
      <point x="253" y="552" type="curve" smooth="yes"/>
      <point x="336" y="552"/>
      <point x="374" y="587"/>
      <point x="396" y="648" type="curve"/>
      <point x="425" y="648" type="line"/>
      <point x="379" y="790" type="line"/>
      <point x="375" y="722"/>
      <point x="351" y="686"/>
      <point x="299" y="686" type="curve" smooth="yes"/>
      <point x="241" y="686"/>
      <point x="219" y="727"/>
      <point x="219" y="800" type="curve" smooth="yes"/>
      <point x="219" y="1011" type="line" smooth="yes"/>
      <point x="219" y="1074"/>
      <point x="219" y="1127"/>
    </contour>
  </outline>
</glyph>
<glyph name="onesixteenth.or" format="2">
  <advance width="637"/>
  <unicode hex="0B75"/>
  <outline>
    <contour>
      <point x="7" y="0" type="line"/>
      <point x="465" y="1191" type="line"/>
      <point x="631" y="1191" type="line"/>
      <point x="172" y="0" type="line"/>
    </contour>
  </outline>
</glyph>
<glyph name="oneeigth.or" format="2">
  <advance width="1315"/>
  <unicode hex="0B76"/>
  <outline>
    <contour>
      <point x="279" y="-21" type="curve" smooth="yes"/>
      <point x="121" y="-21"/>
      <point x="46" y="70"/>
      <point x="46" y="233" type="curve" smooth="yes"/>
      <point x="46" y="421" type="line" smooth="yes"/>
      <point x="46" y="676"/>
      <point x="181" y="820"/>
      <point x="410" y="820" type="curve" smooth="yes"/>
      <point x="650" y="820"/>
      <point x="776" y="676"/>
      <point x="776" y="418" type="curve" smooth="yes"/>
      <point x="776" y="347"/>
      <point x="772" y="252"/>
      <point x="764" y="173" type="curve"/>
      <point x="770" y="173" type="line"/>
      <point x="808" y="303"/>
      <point x="847" y="424"/>
      <point x="901" y="564" type="curve" smooth="yes"/>
      <point x="1142" y="1191" type="line"/>
      <point x="1308" y="1191" type="line"/>
      <point x="849" y="0" type="line"/>
      <point x="597" y="0" type="line"/>
      <point x="617" y="62"/>
      <point x="626" y="129"/>
      <point x="626" y="224" type="curve" smooth="yes"/>
      <point x="626" y="430" type="line" smooth="yes"/>
      <point x="626" y="585"/>
      <point x="561" y="681"/>
      <point x="410" y="681" type="curve" smooth="yes"/>
      <point x="262" y="681"/>
      <point x="194" y="598"/>
      <point x="194" y="433" type="curve" smooth="yes"/>
      <point x="194" y="414" type="line"/>
      <point x="195" y="324" type="line"/>
      <point x="195" y="221" type="line" smooth="yes"/>
      <point x="195" y="151"/>
      <point x="219" y="111"/>
      <point x="277" y="111" type="curve" smooth="yes"/>
      <point x="337" y="111"/>
      <point x="360" y="151"/>
      <point x="360" y="221" type="curve" smooth="yes"/>
      <point x="360" y="285" type="line" smooth="yes"/>
      <point x="360" y="354"/>
      <point x="336" y="390"/>
      <point x="279" y="390" type="curve" smooth="yes"/>
      <point x="222" y="390"/>
      <point x="196" y="349"/>
      <point x="194" y="290" type="curve"/>
      <point x="137" y="423" type="line"/>
      <point x="200" y="423" type="line"/>
      <point x="220" y="483"/>
      <point x="263" y="521"/>
      <point x="341" y="521" type="curve" smooth="yes"/>
      <point x="462" y="521"/>
      <point x="514" y="433"/>
      <point x="514" y="283" type="curve" smooth="yes"/>
      <point x="514" y="238" type="line" smooth="yes"/>
      <point x="514" y="69"/>
      <point x="438" y="-21"/>
    </contour>
  </outline>
</glyph>
<glyph name="threesixteenth.or" format="2">
  <advance width="1310"/>
  <unicode hex="0B77"/>
  <outline>
    <contour>
      <point x="249" y="701" type="curve" smooth="yes"/>
      <point x="338" y="701"/>
      <point x="390" y="657"/>
      <point x="409" y="577" type="curve"/>
      <point x="414" y="577" type="line"/>
      <point x="435" y="657"/>
      <point x="490" y="701"/>
      <point x="588" y="701" type="curve" smooth="yes"/>
      <point x="714" y="701"/>
      <point x="771" y="625"/>
      <point x="771" y="462" type="curve" smooth="yes"/>
      <point x="771" y="398"/>
      <point x="768" y="283"/>
      <point x="763" y="173" type="curve"/>
      <point x="768" y="173" type="line"/>
      <point x="806" y="303"/>
      <point x="842" y="425"/>
      <point x="896" y="564" type="curve" smooth="yes"/>
      <point x="1137" y="1191" type="line"/>
      <point x="1303" y="1191" type="line"/>
      <point x="844" y="0" type="line"/>
      <point x="622" y="0" type="line"/>
      <point x="622" y="465" type="line" smooth="yes"/>
      <point x="622" y="529"/>
      <point x="602" y="564"/>
      <point x="553" y="564" type="curve" smooth="yes"/>
      <point x="504" y="564"/>
      <point x="485" y="528"/>
      <point x="485" y="464" type="curve" smooth="yes"/>
      <point x="485" y="0" type="line"/>
      <point x="336" y="0" type="line"/>
      <point x="336" y="464" type="line" smooth="yes"/>
      <point x="336" y="528"/>
      <point x="316" y="564"/>
      <point x="267" y="564" type="curve" smooth="yes"/>
      <point x="219" y="564"/>
      <point x="199" y="529"/>
      <point x="199" y="465" type="curve" smooth="yes"/>
      <point x="199" y="285" type="line" smooth="yes"/>
      <point x="199" y="173"/>
      <point x="202" y="99"/>
      <point x="216" y="0" type="curve"/>
      <point x="67" y="0" type="line"/>
      <point x="51" y="94"/>
      <point x="48" y="177"/>
      <point x="48" y="284" type="curve" smooth="yes"/>
      <point x="48" y="455" type="line" smooth="yes"/>
      <point x="48" y="614"/>
      <point x="115" y="701"/>
    </contour>
  </outline>
</glyph>
<glyph name="quoteright" format="2">
  <advance width="343"/>
  <unicode hex="2019"/>
  <outline>
    <contour>
      <point x="269" y="1329" type="curve"/>
      <point x="104" y="1329" type="line"/>
      <point x="108" y="1283"/>
      <point x="111" y="1249"/>
      <point x="111" y="1209" type="curve" smooth="yes"/>
      <point x="111" y="1082"/>
      <point x="84" y="978"/>
      <point x="39" y="889" type="curve"/>
      <point x="160" y="853" type="line"/>
      <point x="242" y="959"/>
      <point x="278" y="1079"/>
      <point x="278" y="1221" type="curve" smooth="yes"/>
      <point x="278" y="1267"/>
      <point x="273" y="1303"/>
    </contour>
  </outline>
</glyph>
<glyph name="sixsuperior" format="2">
  <advance width="428"/>
  <unicode hex="2076"/>
  <outline>
    <contour>
      <point x="217" y="685" type="curve" smooth="yes"/>
      <point x="334" y="685"/>
      <point x="392" y="751"/>
      <point x="392" y="874" type="curve" smooth="yes"/>
      <point x="392" y="971" type="line" smooth="yes"/>
      <point x="392" y="1077"/>
      <point x="358" y="1143"/>
      <point x="274" y="1143" type="curve" smooth="yes"/>
      <point x="209" y="1143"/>
      <point x="180" y="1108"/>
      <point x="168" y="1060" type="curve"/>
      <point x="142" y="1060" type="line"/>
      <point x="160" y="980" type="line"/>
      <point x="167" y="1026"/>
      <point x="189" y="1046"/>
      <point x="221" y="1046" type="curve" smooth="yes"/>
      <point x="258" y="1046"/>
      <point x="275" y="1017"/>
      <point x="275" y="963" type="curve" smooth="yes"/>
      <point x="275" y="871" type="line" smooth="yes"/>
      <point x="275" y="818"/>
      <point x="259" y="789"/>
      <point x="220" y="789" type="curve" smooth="yes"/>
      <point x="176" y="789"/>
      <point x="163" y="823"/>
      <point x="163" y="869" type="curve" smooth="yes"/>
      <point x="163" y="1158" type="line" smooth="yes"/>
      <point x="163" y="1230"/>
      <point x="182" y="1287"/>
      <point x="265" y="1287" type="curve" smooth="yes"/>
      <point x="307" y="1287"/>
      <point x="339" y="1274"/>
      <point x="369" y="1258" type="curve"/>
      <point x="359" y="1364" type="line"/>
      <point x="333" y="1379"/>
      <point x="289" y="1393"/>
      <point x="238" y="1393" type="curve" smooth="yes"/>
      <point x="103" y="1393"/>
      <point x="44" y="1308"/>
      <point x="44" y="1166" type="curve" smooth="yes"/>
      <point x="44" y="880" type="line" smooth="yes"/>
      <point x="44" y="750"/>
      <point x="100" y="685"/>
    </contour>
  </outline>
</glyph>
<glyph name="BaBa.or" format="2">
  <advance width="1164"/>
  <anchor x="902" y="40" name="bottom"/>
  <anchor x="1194" y="28" name="rasmall"/>
  <anchor x="577" y="1725" name="top1"/>
  <anchor x="891" y="1436" name="top2"/>
  <outline>
    <contour>
      <point x="205" y="459" type="curve"/>
      <point x="283" y="574" type="line"/>
      <point x="240" y="619"/>
      <point x="225" y="662"/>
      <point x="225" y="749" type="curve" smooth="yes"/>
      <point x="225" y="908" type="line" smooth="yes"/>
      <point x="225" y="1123"/>
      <point x="339" y="1245"/>
      <point x="580" y="1245" type="curve" smooth="yes"/>
      <point x="827" y="1245"/>
      <point x="941" y="1113"/>
      <point x="941" y="883" type="curve" smooth="yes"/>
      <point x="941" y="696" type="line" smooth="yes"/>
      <point x="941" y="627"/>
      <point x="939" y="571"/>
      <point x="927" y="496" type="curve"/>
      <point x="1074" y="517" type="line"/>
      <point x="1090" y="583"/>
      <point x="1097" y="654"/>
      <point x="1097" y="730" type="curve" smooth="yes"/>
      <point x="1097" y="886" type="line" smooth="yes"/>
      <point x="1097" y="1207"/>
      <point x="912" y="1393"/>
      <point x="580" y="1393" type="curve" smooth="yes"/>
      <point x="251" y="1393"/>
      <point x="65" y="1211"/>
      <point x="65" y="908" type="curve" smooth="yes"/>
      <point x="65" y="749" type="line" smooth="yes"/>
      <point x="65" y="593"/>
      <point x="117" y="503"/>
    </contour>
    <contour>
      <point x="396" y="225" type="curve" smooth="yes"/>
      <point x="345" y="225"/>
      <point x="327" y="260"/>
      <point x="327" y="325" type="curve" smooth="yes"/>
      <point x="327" y="521" type="line" smooth="yes"/>
      <point x="327" y="587"/>
      <point x="346" y="622"/>
      <point x="396" y="622" type="curve" smooth="yes"/>
      <point x="445" y="622"/>
      <point x="465" y="586"/>
      <point x="465" y="520" type="curve" smooth="yes"/>
      <point x="465" y="320" type="line" smooth="yes"/>
      <point x="465" y="258"/>
      <point x="441" y="225"/>
    </contour>
    <contour>
      <point x="748" y="0" type="line"/>
      <point x="902" y="0" type="line"/>
      <point x="902" y="518" type="line" smooth="yes"/>
      <point x="902" y="681"/>
      <point x="842" y="758"/>
      <point x="713" y="758" type="curve" smooth="yes"/>
      <point x="613" y="758"/>
      <point x="552" y="714"/>
      <point x="532" y="634" type="curve"/>
      <point x="527" y="634" type="line"/>
      <point x="510" y="716"/>
      <point x="462" y="758"/>
      <point x="381" y="758" type="curve" smooth="yes"/>
      <point x="287" y="758"/>
      <point x="235" y="707"/>
      <point x="213" y="607" type="curve"/>
      <point x="192" y="586" type="line"/>
      <point x="177" y="552"/>
      <point x="173" y="518"/>
      <point x="173" y="471" type="curve" smooth="yes"/>
      <point x="173" y="313" type="line" smooth="yes"/>
      <point x="173" y="170"/>
      <point x="225" y="91"/>
      <point x="341" y="91" type="curve" smooth="yes"/>
      <point x="425" y="91"/>
      <point x="464" y="129"/>
      <point x="480" y="192" type="curve"/>
      <point x="485" y="192" type="line"/>
      <point x="503" y="129"/>
      <point x="546" y="91"/>
      <point x="623" y="91" type="curve" smooth="yes"/>
      <point x="698" y="91"/>
      <point x="730" y="129"/>
      <point x="746" y="192" type="curve"/>
      <point x="777" y="192" type="line"/>
      <point x="751" y="320" type="line"/>
      <point x="751" y="258"/>
      <point x="727" y="225"/>
      <point x="682" y="225" type="curve" smooth="yes"/>
      <point x="631" y="225"/>
      <point x="613" y="260"/>
      <point x="613" y="325" type="curve" smooth="yes"/>
      <point x="613" y="521" type="line" smooth="yes"/>
      <point x="613" y="587"/>
      <point x="632" y="622"/>
      <point x="682" y="622" type="curve" smooth="yes"/>
      <point x="731" y="622"/>
      <point x="751" y="586"/>
      <point x="751" y="520" type="curve" smooth="yes"/>
      <point x="751" y="259" type="line"/>
      <point x="754" y="235" type="line"/>
      <point x="748" y="63" type="line"/>
    </contour>
  </outline>
</glyph>
<glyph name="BaDa.or" format="2">
  <advance width="1164"/>
  <anchor x="891" y="40" name="bottom"/>
  <anchor x="1183" y="28" name="rasmall"/>
  <anchor x="594" y="1725" name="top1"/>
  <anchor x="908" y="1436" name="top2"/>
  <outline>
    <contour>
      <point x="205" y="459" type="curve"/>
      <point x="283" y="574" type="line"/>
      <point x="240" y="619"/>
      <point x="225" y="662"/>
      <point x="225" y="749" type="curve" smooth="yes"/>
      <point x="225" y="908" type="line" smooth="yes"/>
      <point x="225" y="1123"/>
      <point x="339" y="1245"/>
      <point x="580" y="1245" type="curve" smooth="yes"/>
      <point x="827" y="1245"/>
      <point x="941" y="1113"/>
      <point x="941" y="883" type="curve" smooth="yes"/>
      <point x="941" y="696" type="line" smooth="yes"/>
      <point x="941" y="627"/>
      <point x="939" y="571"/>
      <point x="927" y="496" type="curve"/>
      <point x="1074" y="517" type="line"/>
      <point x="1090" y="583"/>
      <point x="1097" y="654"/>
      <point x="1097" y="730" type="curve" smooth="yes"/>
      <point x="1097" y="886" type="line" smooth="yes"/>
      <point x="1097" y="1207"/>
      <point x="912" y="1393"/>
      <point x="580" y="1393" type="curve" smooth="yes"/>
      <point x="251" y="1393"/>
      <point x="65" y="1211"/>
      <point x="65" y="908" type="curve" smooth="yes"/>
      <point x="65" y="749" type="line" smooth="yes"/>
      <point x="65" y="593"/>
      <point x="117" y="503"/>
    </contour>
    <contour>
      <point x="385" y="225" type="curve" smooth="yes"/>
      <point x="334" y="225"/>
      <point x="316" y="260"/>
      <point x="316" y="325" type="curve" smooth="yes"/>
      <point x="316" y="521" type="line" smooth="yes"/>
      <point x="316" y="587"/>
      <point x="335" y="622"/>
      <point x="385" y="622" type="curve" smooth="yes"/>
      <point x="434" y="622"/>
      <point x="454" y="586"/>
      <point x="454" y="520" type="curve" smooth="yes"/>
      <point x="454" y="320" type="line" smooth="yes"/>
      <point x="454" y="258"/>
      <point x="430" y="225"/>
    </contour>
    <contour>
      <point x="330" y="91" type="curve" smooth="yes"/>
      <point x="414" y="91"/>
      <point x="454" y="129"/>
      <point x="470" y="192" type="curve"/>
      <point x="475" y="192" type="line"/>
      <point x="492" y="129"/>
      <point x="534" y="91"/>
      <point x="609" y="91" type="curve" smooth="yes"/>
      <point x="686" y="91"/>
      <point x="719" y="129"/>
      <point x="735" y="192" type="curve"/>
      <point x="766" y="192" type="line"/>
      <point x="737" y="321" type="line"/>
      <point x="734" y="258"/>
      <point x="714" y="225"/>
      <point x="670" y="225" type="curve" smooth="yes"/>
      <point x="620" y="225"/>
      <point x="603" y="260"/>
      <point x="603" y="325" type="curve" smooth="yes"/>
      <point x="603" y="511" type="line" smooth="yes"/>
      <point x="603" y="677"/>
      <point x="533" y="758"/>
      <point x="398" y="758" type="curve" smooth="yes"/>
      <point x="283" y="758"/>
      <point x="226" y="707"/>
      <point x="202" y="607" type="curve"/>
      <point x="181" y="586" type="line"/>
      <point x="166" y="552"/>
      <point x="162" y="518"/>
      <point x="162" y="471" type="curve" smooth="yes"/>
      <point x="162" y="313" type="line" smooth="yes"/>
      <point x="162" y="170"/>
      <point x="214" y="91"/>
    </contour>
    <contour>
      <point x="737" y="0" type="line"/>
      <point x="891" y="0" type="line"/>
      <point x="891" y="723" type="line"/>
      <point x="737" y="723" type="line"/>
      <point x="737" y="258" type="line"/>
      <point x="743" y="235" type="line"/>
      <point x="737" y="63" type="line"/>
    </contour>
  </outline>
</glyph>
